<svg width="24" height="24" viewBox="0 0 24 24" fill="none" xmlns="http://www.w3.org/2000/svg">
<path fill-rule="evenodd" clip-rule="evenodd" d="M11.2799 4.22464C11.5788 3.98124 11.9837 3.93534 12.3228 4.08844C12.5489 4.15167 12.7418 4.29275 12.872 4.48061L17.618 8.21383C18.0522 8.55514 18.1275 9.18381 17.7862 9.61801C17.4449 10.0522 16.8162 10.1275 16.382 9.7862L13.049 7.16602L13.0496 18.9504C13.0496 19.4633 12.6636 19.8859 12.1662 19.9437L12.0496 19.9504C11.4973 19.9504 11.0496 19.5027 11.0496 18.9504L11.049 6.99101L7.63151 9.77539C7.23622 10.0973 6.66911 10.0672 6.30989 9.72385L6.22464 9.63151C5.87587 9.20328 5.94029 8.5734 6.36852 8.22464L11.2799 4.22464Z" fill="#333333"/>
</svg>
