<svg width="24" height="24" viewBox="0 0 24 24" fill="none" xmlns="http://www.w3.org/2000/svg">
<path fill-rule="evenodd" clip-rule="evenodd" d="M12 2C17.5228 2 22 6.47715 22 12C22 17.5228 17.5228 22 12 22C6.47715 22 2 17.5228 2 12C2 6.47715 6.47715 2 12 2ZM12 4C7.58172 4 4 7.58172 4 12C4 16.4183 7.58172 20 12 20C16.4183 20 20 16.4183 20 12C20 7.58172 16.4183 4 12 4ZM12 7.07606C12.5523 7.07606 13 7.52377 13 8.07606L13 13.9301L15.3664 12.185C15.7617 11.8631 16.3306 11.8838 16.6901 12.2257L16.7754 12.3179C17.1242 12.7461 17.0598 13.376 16.6315 13.7248L12.644 16.7754C12.4642 16.9219 12.2459 16.9969 12.0267 17L12 16.9991C11.9933 16.9991 11.9865 16.999 11.9798 16.9989C11.9645 16.999 11.9481 16.9981 11.9318 16.9968C11.9032 16.9948 11.8759 16.9918 11.849 16.9877C11.8435 16.9857 11.8372 16.9846 11.8309 16.9835C11.6307 16.9505 11.4515 16.8574 11.3111 16.7239L7.38203 13.7356C6.94784 13.3943 6.87254 12.7656 7.21384 12.3314C7.55515 11.8972 8.18873 11.8327 8.62293 12.174L11 13.9291L11 8.07606C11 7.56322 11.386 7.14055 11.8834 7.08279L12 7.07606Z" fill="#333333"/>
</svg>
