<svg width="24" height="24" viewBox="0 0 24 24" fill="none" xmlns="http://www.w3.org/2000/svg">
<path fill-rule="evenodd" clip-rule="evenodd" d="M12.0496 4.04967C12.6019 4.04967 13.0496 4.49738 13.0496 5.04967L13.049 16.9277L16.3685 14.2247C16.7638 13.9027 17.3309 13.9329 17.6902 14.2762L17.7754 14.3686C18.1242 14.7968 18.0598 15.4267 17.6315 15.7754L12.7201 19.7754C12.3574 20.0708 11.8384 20.0753 11.4707 19.7862L6.38203 15.7862C5.94784 15.4449 5.87254 14.8163 6.21384 14.3821C6.55515 13.9479 7.18382 13.8726 7.61802 14.2139L11.049 16.9107L11.0496 5.04967C11.0496 4.53683 11.4357 4.11416 11.933 4.0564L12.0496 4.04967Z" fill="#3C3333"/>
</svg>
