<svg width="24" height="24" viewBox="0 0 24 24" fill="none" xmlns="http://www.w3.org/2000/svg">
<path fill-rule="evenodd" clip-rule="evenodd" d="M8.21382 6.38205C8.55512 5.94785 9.1838 5.87255 9.61799 6.21386C10.0522 6.55517 10.1275 7.18384 9.78618 7.61804L7.127 11L19 11C19.5128 11 19.9355 11.3861 19.9933 11.8834L20 12C20 12.5523 19.5523 13 19 13L7.032 13L9.77538 16.3685C10.0973 16.7638 10.0672 17.3309 9.72384 17.6902L9.6315 17.7754C9.20327 18.1242 8.57339 18.0598 8.22462 17.6315L4.22462 12.7202C3.92922 12.3575 3.92473 11.8384 4.21382 11.4707L8.21382 6.38205Z" fill="#333333"/>
</svg>
