<svg width="128" height="128" viewBox="0 0 128 128" fill="none" xmlns="http://www.w3.org/2000/svg">
<path d="M0 64C0 28.6538 28.6538 0 64 0C99.3462 0 128 28.6538 128 64C128 99.3462 99.3462 128 64 128C28.6538 128 0 99.3462 0 64Z" fill="#FFFFEE"/>
<path d="M55.52 83L53.552 74.84H42.464L40.448 83H32L42.944 48.584H52.928L63.92 83H55.52ZM49.616 60.776C49.424 60.104 49.232 59.4 49.04 58.664C48.848 57.928 48.656 57.16 48.464 56.36C48.304 55.56 48.144 54.744 47.984 53.912C47.856 54.744 47.696 55.576 47.504 56.408C47.312 57.208 47.12 57.976 46.928 58.712C46.768 59.448 46.592 60.136 46.4 60.776L44.192 68.744H51.872L49.616 60.776ZM87.4419 83L85.4739 74.84H74.3859L72.3699 83H63.9219L74.8659 48.584H84.8499L95.8419 83H87.4419ZM81.5379 60.776C81.3459 60.104 81.1539 59.4 80.9619 58.664C80.7699 57.928 80.5779 57.16 80.3859 56.36C80.2259 55.56 80.0659 54.744 79.9059 53.912C79.7779 54.744 79.6179 55.576 79.4259 56.408C79.2339 57.208 79.0419 57.976 78.8499 58.712C78.6899 59.448 78.5139 60.136 78.3219 60.776L76.1139 68.744H83.7939L81.5379 60.776Z" fill="black"/>
</svg>
