<svg width="24" height="24" viewBox="0 0 24 24" fill="none" xmlns="http://www.w3.org/2000/svg">
<path fill-rule="evenodd" clip-rule="evenodd" d="M12.907 4.57832C13.9733 4.76389 14.965 5.27379 15.7406 6.04942C16.7327 7.04149 17.29 8.38703 17.29 9.79003C17.29 10.5665 17.4573 11.6575 17.6878 12.5618C17.8028 13.0133 17.9229 13.3751 18.0257 13.6052C18.0365 13.6294 18.0463 13.6503 18.0551 13.6682C18.3008 13.8324 18.4706 14.103 18.4966 14.4176C18.5395 14.9361 18.1774 15.401 17.6642 15.4865C17.6642 15.4865 17.6644 15.4865 17.5 14.5001L17.6642 15.4865L17.6536 15.4882L17.6257 15.4928L17.5216 15.5094C17.4314 15.5236 17.3009 15.5436 17.137 15.5676C16.8092 15.6156 16.3466 15.6794 15.8043 15.7432C14.7261 15.87 13.3069 16 12 16C10.6931 16 9.27386 15.87 8.19567 15.7432C7.65339 15.6794 7.19079 15.6156 6.86303 15.5676C6.69905 15.5436 6.56855 15.5236 6.47841 15.5094L6.37425 15.4928L6.34642 15.4882L6.33669 15.4866C6.33669 15.4866 6.33562 15.4865 6.5 14.5001L6.33562 15.4865C5.82238 15.4009 5.46049 14.9361 5.5034 14.4176C5.52962 14.1008 5.70158 13.8286 5.95006 13.6648C5.95859 13.6473 5.96814 13.627 5.97864 13.6035C6.08142 13.3736 6.2011 13.0117 6.3156 12.5595C6.54486 11.6543 6.71 10.5627 6.71 9.79003C6.71 8.38703 7.26733 7.04149 8.2594 6.04942C9.03503 5.27378 10.0267 4.76389 11.093 4.57831C11.2521 4.23676 11.5984 4 12 4C12.4016 4 12.7479 4.23676 12.907 4.57832ZM12 6.5C11.1274 6.5 10.2906 6.84663 9.67362 7.46362C9.05662 8.08062 8.71 8.91746 8.71 9.79003C8.71 10.7774 8.51014 12.0408 8.25439 13.0506C8.19679 13.278 8.13416 13.5014 8.06729 13.7128C8.18301 13.7274 8.30395 13.7421 8.42933 13.7569C9.47613 13.88 10.8069 14 12 14C13.1931 14 14.5239 13.88 15.5707 13.7569C15.6973 13.742 15.8193 13.7271 15.9361 13.7124C15.8696 13.5029 15.8072 13.2814 15.7497 13.0558C15.4927 12.0476 15.29 10.7836 15.29 9.79003C15.29 8.91746 14.9434 8.08062 14.3264 7.46362C13.7094 6.84663 12.8726 6.5 12 6.5ZM10.2481 16.3622C10.7825 16.2231 11.3286 16.5435 11.4677 17.078C11.4984 17.1958 11.5673 17.3001 11.6636 17.3746C11.76 17.4491 11.8783 17.4894 12 17.4894C12.1217 17.4894 12.24 17.4491 12.3364 17.3746C12.4327 17.3001 12.5016 17.1958 12.5323 17.078C12.6714 16.5435 13.2175 16.2231 13.7519 16.3622C14.2864 16.5014 14.6069 17.0474 14.4677 17.5819C14.3255 18.1281 14.0061 18.6118 13.5595 18.957C13.1129 19.3022 12.5644 19.4894 12 19.4894C11.4356 19.4894 10.8871 19.3022 10.4405 18.957C9.99389 18.6118 9.67447 18.1281 9.53226 17.5819C9.39311 17.0474 9.71359 16.5014 10.2481 16.3622Z" fill="#333333"/>
</svg>
