<svg width="24" height="24" viewBox="0 0 24 24" fill="none" xmlns="http://www.w3.org/2000/svg">
<path fill-rule="evenodd" clip-rule="evenodd" d="M10.0704 6C9.73601 6 9.42378 6.1671 9.23832 6.4453L8.42578 7.6641C7.86939 8.4987 6.93269 9 5.92963 9H5C4.44772 9 4 9.44772 4 10V19C4 19.5523 4.44772 20 5 20H19C19.5523 20 20 19.5523 20 19V10C20 9.44772 19.5523 9 19 9H18.0704C17.0673 9 16.1306 8.4987 15.5742 7.6641L14.7617 6.4453C14.5762 6.1671 14.264 6 13.9296 6H10.0704ZM7.57422 5.3359C8.13061 4.5013 9.06731 4 10.0704 4H13.9296C14.9327 4 15.8694 4.5013 16.4258 5.3359L17.2383 6.5547C17.4238 6.8329 17.736 7 18.0704 7H19C20.6569 7 22 8.34315 22 10V19C22 20.6569 20.6569 22 19 22H5C3.34315 22 2 20.6569 2 19V10C2 8.34315 3.34315 7 5 7H5.92963C6.26399 7 6.57622 6.8329 6.76168 6.5547L7.57422 5.3359ZM12 12C10.8954 12 10 12.8954 10 14C10 15.1046 10.8954 16 12 16C13.1046 16 14 15.1046 14 14C14 12.8954 13.1046 12 12 12ZM8 14C8 11.7909 9.79086 10 12 10C14.2091 10 16 11.7909 16 14C16 16.2091 14.2091 18 12 18C9.79086 18 8 16.2091 8 14Z" fill="#333333"/>
</svg>
