<svg width="32" height="32" viewBox="0 0 32 32" fill="none" xmlns="http://www.w3.org/2000/svg">
<circle cx="16" cy="16" r="16" fill="#ED1D1D"/>
<path fill-rule="evenodd" clip-rule="evenodd" d="M16.3137 17.7279L12.0711 21.9706C11.6805 22.3611 11.0474 22.3611 10.6569 21.9706C10.2663 21.58 10.2663 20.9469 10.6569 20.5563L14.8995 16.3137L10.6569 12.0711C10.2663 11.6805 10.2663 11.0474 10.6569 10.6569C11.0474 10.2663 11.6805 10.2663 12.0711 10.6569L16.3137 14.8995L20.5563 10.6569C20.9469 10.2663 21.58 10.2663 21.9706 10.6569C22.3611 11.0474 22.3611 11.6805 21.9706 12.0711L17.7279 16.3137L21.9706 20.5563C22.3611 20.9469 22.3611 21.58 21.9706 21.9706C21.58 22.3611 20.9469 22.3611 20.5563 21.9706L16.3137 17.7279Z" fill="#FEFEFE"/>
</svg>
