<svg width="24" height="24" viewBox="0 0 24 24" fill="none" xmlns="http://www.w3.org/2000/svg">
<path fill-rule="evenodd" clip-rule="evenodd" d="M3.05402 12C4.28974 15.4965 7.62486 18 11.5422 18C15.4595 18 18.7946 15.4966 20.0303 12C18.7946 8.50345 15.4595 6 11.5421 6C7.62486 6 4.28976 8.50342 3.05402 12ZM1.04595 11.7003C2.44737 7.23842 6.61529 4 11.5421 4C16.4691 4 20.637 7.23846 22.0384 11.7004C22.0997 11.8955 22.0997 12.1046 22.0384 12.2997C20.637 16.7616 16.4691 20 11.5422 20C6.61528 20 2.44735 16.7615 1.04595 12.2996C0.984679 12.1045 0.984689 11.8954 1.04595 11.7003ZM11.5417 10C10.4371 10 9.54175 10.8954 9.54175 12C9.54175 13.1046 10.4371 14 11.5417 14C12.6463 14 13.5417 13.1046 13.5417 12C13.5417 10.8954 12.6463 10 11.5417 10ZM7.54175 12C7.54175 9.79086 9.33261 8 11.5417 8C13.7508 8 15.5417 9.79086 15.5417 12C15.5417 14.2091 13.7508 16 11.5417 16C9.33261 16 7.54175 14.2091 7.54175 12Z" fill="#333333"/>
</svg>
