<svg width="24" height="24" viewBox="0 0 24 24" fill="none" xmlns="http://www.w3.org/2000/svg">
<path d="M11.9999 20V20C11.7606 20 11.532 19.9074 11.3629 19.7406L4.37402 12.8759C2.54199 11.0759 2.54199 8.14735 4.37402 6.34735C5.25853 5.47912 6.43999 5 7.69883 5C8.95767 5 10.1391 5.47912 11.0236 6.34735L11.9999 7.30647L12.9753 6.34824C13.8608 5.47912 15.0422 5 16.3011 5C17.5599 5 18.7414 5.47912 19.6259 6.34735C21.4579 8.14735 21.4579 11.0759 19.6268 12.8759L12.637 19.7415C12.4678 19.9074 12.2393 20 11.9999 20" stroke="#333333" stroke-width="2"/>
<mask id="mask0_728_3419" style="mask-type:luminance" maskUnits="userSpaceOnUse" x="2" y="4" width="20" height="17">
<path d="M11.9999 20V20C11.7606 20 11.532 19.9074 11.3629 19.7406L4.37402 12.8759C2.54199 11.0759 2.54199 8.14735 4.37402 6.34735C5.25853 5.47912 6.43999 5 7.69883 5C8.95767 5 10.1391 5.47912 11.0236 6.34735L11.9999 7.30647L12.9753 6.34824C13.8608 5.47912 15.0422 5 16.3011 5C17.5599 5 18.7414 5.47912 19.6259 6.34735C21.4579 8.14735 21.4579 11.0759 19.6268 12.8759L12.637 19.7415C12.4678 19.9074 12.2393 20 11.9999 20" stroke="white" stroke-width="2"/>
</mask>
<g mask="url(#mask0_728_3419)">
</g>
</svg>
