<svg width="24" height="24" viewBox="0 0 24 24" fill="none" xmlns="http://www.w3.org/2000/svg">
<path d="M5.7297 6.25888C4.98683 7.45408 4.60002 8.81574 4.60002 10.203C4.60002 10.4805 4.65716 12.2562 4.65716 12.2562C4.65716 13.5922 4.29672 14.907 3.6066 16.068M16.2066 10.203C16.2022 8.39315 15.0066 6.25888 12.5252 6.25888C10.0438 6.25888 8.59106 8.29489 8.58667 10.1005V11.1932C8.58667 13.7928 8.28747 16.2814 6.67866 18.3602M9.53613 21.6C11.4966 18.8596 12.5472 15.6027 12.5472 12.2647V10.0621M14.2945 20.5851C15.0066 19.8 16.2066 16.2 16.2066 13.8M19.4264 18.4839C20.0769 16.3624 20.3934 12.2518 20.3934 10.0407C20.3934 5.83193 16.8857 2.41283 12.5472 2.40002H12.5252C11.1449 2.40002 9.78668 2.75431 8.58667 3.42447" stroke="#333333" stroke-width="2" stroke-linecap="round" stroke-linejoin="round"/>
</svg>
