<svg width="24" height="24" viewBox="0 0 24 24" fill="none" xmlns="http://www.w3.org/2000/svg">
<path fill-rule="evenodd" clip-rule="evenodd" d="M12 2C17.5228 2 22 6.47715 22 12C22 17.5228 17.5228 22 12 22C6.47715 22 2 17.5228 2 12C2 6.47715 6.47715 2 12 2ZM4 12C4 16.4183 7.58172 20 12 20C13.8478 20 15.5492 19.3736 16.9035 18.3215L5.68162 7.09246C4.62767 8.44745 4 10.1504 4 12ZM12 4C10.1523 4 8.45082 4.62642 7.09648 5.67849L18.3184 16.9076C19.3723 15.5526 20 13.8496 20 12C20 7.58172 16.4183 4 12 4Z" fill="#333333"/>
</svg>
