<svg width="32" height="32" viewBox="0 0 32 32" fill="none" xmlns="http://www.w3.org/2000/svg">
<circle cx="16" cy="16" r="16" fill="#57B4F5"/>
<path fill-rule="evenodd" clip-rule="evenodd" d="M16 8C11.5817 8 8 11.5817 8 16C8 20.4183 11.5817 24 16 24C20.4183 24 24 20.4183 24 16C24 11.5817 20.4183 8 16 8ZM6 16C6 10.4771 10.4771 6 16 6C21.5228 6 26 10.4771 26 16C26 21.5228 21.5228 26 16 26C10.4771 26 6 21.5228 6 16ZM15 12C15 11.4477 15.4477 11 16 11H16.01C16.5623 11 17.01 11.4477 17.01 12C17.01 12.5523 16.5623 13 16.01 13H16C15.4477 13 15 12.5523 15 12ZM14 16C14 15.4477 14.4477 15 15 15H16C16.5523 15 17 15.4477 17 16V19C17.5523 19 18 19.4477 18 20C18 20.5523 17.5523 21 17 21H16C15.4477 21 15 20.5523 15 20V17C14.4477 17 14 16.5523 14 16Z" fill="#FEFEFE"/>
</svg>
