<svg width="24" height="24" viewBox="0 0 24 24" fill="none" xmlns="http://www.w3.org/2000/svg">
<path fill-rule="evenodd" clip-rule="evenodd" d="M16 2C16.5523 2 17 2.44772 17 3V4H19C20.6569 4 22 5.34315 22 7V11.9988C22 12.5511 21.5523 12.9988 21 12.9988C20.4477 12.9988 20 12.5511 20 11.9988V7C20 6.44772 19.5523 6 19 6H17V7C17 7.55228 16.5523 8 16 8C15.4477 8 15 7.55228 15 7V6H9V7C9 7.55228 8.55228 8 8 8C7.44772 8 7 7.55228 7 7V6H5C4.44772 6 4 6.44772 4 7V19C4 19.5523 4.44772 20 5 20H12.0004C12.5527 20 13.0004 20.4477 13.0004 21C13.0004 21.5523 12.5527 22 12.0004 22H5C3.34315 22 2 20.6569 2 19V7C2 5.34315 3.34315 4 5 4H7V3C7 2.44772 7.44772 2 8 2C8.55228 2 9 2.44772 9 3V4H15V3C15 2.44772 15.4477 2 16 2ZM18 14C20.2091 14 22 15.7909 22 18C22 20.2091 20.2091 22 18 22C15.7909 22 14 20.2091 14 18C14 15.7909 15.7909 14 18 14ZM19.1702 16.9727L17.8909 18.3164L17.2514 17.677C17.0562 17.4817 16.7396 17.4817 16.5443 17.677C16.3491 17.8722 16.3491 18.1888 16.5443 18.3841L17.5393 19.3773C17.7351 19.5731 18.0527 19.5725 18.2478 19.3759L19.8801 17.677C20.0746 17.481 20.0733 17.1644 19.8773 16.9699C19.6813 16.7754 19.3647 16.7766 19.1702 16.9727ZM14.5313 11.3831C14.8156 11.3831 15.0694 11.4554 15.2927 11.6C15.5161 11.7446 15.6898 11.9492 15.8139 12.2136C15.938 12.478 16 12.7819 16 13.1254C16 13.4689 15.938 13.7695 15.8139 14.0271C15.6898 14.2847 15.5172 14.4836 15.2961 14.6237C15.075 14.7638 14.8201 14.8339 14.5313 14.8339C14.2967 14.8339 14.0869 14.7842 13.9019 14.6847C13.7169 14.5853 13.5747 14.4475 13.4755 14.2712V16H12.6294V11.4644H13.4619V11.9661C13.5612 11.7808 13.7045 11.6373 13.8917 11.5356C14.079 11.4339 14.2922 11.3831 14.5313 11.3831ZM10.1117 10C10.6531 10 11.0649 10.1209 11.3469 10.3627C11.6289 10.6045 11.7699 10.9537 11.7699 11.4102C11.7699 11.7763 11.6672 12.078 11.4619 12.3153C11.2566 12.5525 10.9667 12.7073 10.5922 12.7797C10.8449 12.8475 11.0479 13.026 11.2014 13.3153L12 14.7797H11.0525L10.2335 13.2542C10.1568 13.1096 10.062 13.0079 9.94924 12.9492C9.83644 12.8904 9.6943 12.861 9.52284 12.861H8.85956V14.7797H8V10H10.1117ZM14.308 12.0407C14.0372 12.0407 13.8285 12.1333 13.6819 12.3186C13.5353 12.504 13.4619 12.7684 13.4619 13.1119C13.4619 13.4508 13.5353 13.713 13.6819 13.8983C13.8285 14.0836 14.0372 14.1763 14.308 14.1763C14.5742 14.1763 14.7817 14.0847 14.9306 13.9017C15.0795 13.7186 15.154 13.4599 15.154 13.1254C15.154 12.7819 15.0795 12.5153 14.9306 12.3254C14.7817 12.1356 14.5742 12.0407 14.308 12.0407ZM9.98985 10.678H8.85279V12.1898H9.98985C10.3192 12.1898 10.5606 12.1277 10.714 12.0034C10.8675 11.8791 10.9442 11.6881 10.9442 11.4305C10.9442 11.1684 10.8675 10.9774 10.714 10.8576C10.5606 10.7379 10.3192 10.678 9.98985 10.678Z" fill="#2E2E2E"/>
</svg>
