<svg width="24" height="24" viewBox="0 0 24 24" fill="none" xmlns="http://www.w3.org/2000/svg">
<path d="M16 3C18.2091 3 20 4.79086 20 7V17C20 19.2091 18.2091 21 16 21H11C8.79086 21 7 19.2091 7 17C7 16.4477 7.44772 16 8 16C8.55228 16 9 16.4477 9 17C9 18.1046 9.89543 19 11 19H16C17.1046 19 18 18.1046 18 17V7C18 5.89543 17.1046 5 16 5H11C9.89543 5 9 5.89543 9 7C9 7.54809 8.55228 7.9958 8 7.9958C7.44772 7.9958 7 7.54809 7 6.9958C7 4.79086 8.79086 3 11 3H16ZM5.70711 9.29289L5.7903 9.3871C6.09532 9.77939 6.06759 10.3466 5.70711 10.7071L5.417 10.997L13 10.9977C13.5523 10.9977 14 11.4454 14 11.9977C14 12.55 13.5523 12.9977 13 12.9977L5.416 12.997L5.70629 13.2875C6.06719 13.6475 6.09557 14.2147 5.791 14.6074L5.70792 14.7017C5.31785 15.0927 4.68468 15.0934 4.29371 14.7033L2.29371 12.7079C1.90242 12.3175 1.90205 11.6837 2.29289 11.2929L4.29289 9.29289C4.68342 8.90237 5.31658 8.90237 5.70711 9.29289Z" fill="#333333"/>
</svg>
