<svg width="24" height="24" viewBox="0 0 24 24" fill="none" xmlns="http://www.w3.org/2000/svg">
<path fill-rule="evenodd" clip-rule="evenodd" d="M8 9C8.55228 9 9 9.44772 9 10C9 10.5523 8.55228 11 8 11H7C5.89543 11 5 11.8954 5 13V18C5 19.1046 5.89543 20 7 20H17C18.1046 20 19 19.1046 19 18V13C19 11.8954 18.1046 11 17 11H15.9205C15.3682 11 14.9205 10.5523 14.9205 10C14.9205 9.44772 15.3682 9 15.9205 9H17C19.2091 9 21 10.7909 21 13V18C21 20.2091 19.2091 22 17 22H7C4.79086 22 3 20.2091 3 18V13C3 10.7909 4.79086 9 7 9H8ZM19 4C19.5523 4 20 4.44772 20 5C20 5.55228 19.5523 6 19 6H16C14.3431 6 13 7.34315 13 9V13.587L13.2957 13.2925C13.6564 12.9322 14.2237 12.9048 14.6158 13.2101L14.7099 13.2933C15.1002 13.6841 15.0998 14.3172 14.7091 14.7075L12.7067 16.7075C12.3161 17.0977 11.6833 17.0975 11.2929 16.7071L9.29289 14.7071C8.90237 14.3166 8.90237 13.6834 9.29289 13.2929C9.68342 12.9024 10.3166 12.9024 10.7071 13.2929L11 13.585V9C11 6.23858 13.2386 4 16 4H19Z" fill="#333333"/>
</svg>
