<svg width="24" height="24" viewBox="0 0 24 24" fill="none" xmlns="http://www.w3.org/2000/svg">
<path fill-rule="evenodd" clip-rule="evenodd" d="M18.2308 5C20.5122 5 22 6.13818 22 8.5V15.5C22 17.8618 20.5122 19 18.2308 19H7C6.44772 19 6 18.5523 6 18C6 17.4477 6.44772 17 7 17H18.2308C19.5068 17 20 16.6227 20 15.5V8.5C20 7.37732 19.5068 7 18.2308 7H5C4.44772 7 4 6.55228 4 6C4 5.44772 4.44772 5 5 5H18.2308ZM8 13C8.55228 13 9 13.4477 9 14C9 14.5523 8.55228 15 8 15H5C4.44772 15 4 14.5523 4 14C4 13.4477 4.44772 13 5 13H8ZM13 9C14.6569 9 16 10.3431 16 12C16 13.6569 14.6569 15 13 15C11.3431 15 10 13.6569 10 12C10 10.3431 11.3431 9 13 9ZM13 11C12.4477 11 12 11.4477 12 12C12 12.5523 12.4477 13 13 13C13.5523 13 14 12.5523 14 12C14 11.4477 13.5523 11 13 11ZM7 9C7.55228 9 8 9.44772 8 10C8 10.5523 7.55228 11 7 11H3C2.44772 11 2 10.5523 2 10C2 9.44772 2.44772 9 3 9H7Z" fill="#333333"/>
</svg>
