<svg width="42" height="42" viewBox="0 0 42 42" fill="none" xmlns="http://www.w3.org/2000/svg">
<rect x="7" y="12.25" width="22.75" height="15.75" rx="3.5" fill="#0A9844"/>
<rect x="7" y="10.5" width="24.5" height="15.75" rx="3.5" fill="#10B855"/>
<rect x="8.75" y="12.25" width="21" height="12.25" rx="1.75" fill="#16D263"/>
<path d="M16.7715 14C17.4821 14 18.0224 14.1767 18.3926 14.5293C18.7627 14.8819 18.9482 15.391 18.9482 16.0566C18.9482 16.5903 18.8132 17.03 18.5439 17.376C18.2745 17.722 17.8939 17.9482 17.4023 18.0537C17.734 18.1526 18.0008 18.4131 18.2021 18.835L19.0029 20.4658C19.1171 20.6983 18.9474 20.9706 18.6885 20.9707H18.2256C18.0915 20.9706 17.9695 20.8933 17.9111 20.7725L16.9316 18.7461C16.831 18.5352 16.7066 18.3865 16.5586 18.3008C16.4106 18.2151 16.2239 18.1719 15.999 18.1719H15.1279V20.6201C15.1279 20.8134 14.9716 20.9706 14.7783 20.9707H14.3496C14.1565 20.9705 14 20.8133 14 20.6201V14.3496C14.0002 14.1566 14.1566 14.0002 14.3496 14H16.7715ZM15.1191 17.1934H16.6113C17.0436 17.1934 17.3611 17.1022 17.5625 16.9209C17.7635 16.7396 17.8642 16.4613 17.8643 16.0859C17.8643 15.7037 17.7638 15.4247 17.5625 15.25C17.3611 15.0753 17.0436 14.9883 16.6113 14.9883H15.1191V17.1934Z" fill="white"/>
<path d="M22.5722 16.0166C22.9452 16.0166 23.2781 16.1222 23.5712 16.333C23.8643 16.5439 24.0929 16.842 24.2558 17.2275C24.4186 17.6131 24.4999 18.0567 24.4999 18.5576C24.4999 19.0583 24.4185 19.4965 24.2558 19.8721C24.0929 20.2477 23.8662 20.5379 23.5761 20.7422C23.2859 20.9465 22.9512 21.0488 22.5722 21.0488C22.2643 21.0488 21.9888 20.977 21.746 20.832C21.566 20.7245 21.1865 20.8528 21.1864 21.0625V22.1943C21.1864 22.5008 20.9382 22.7498 20.6317 22.75C20.3251 22.75 20.0761 22.501 20.0761 22.1943V16.6816C20.0761 16.3801 20.3204 16.135 20.622 16.1348H20.7782C20.9937 16.1348 21.1689 16.3099 21.1689 16.5254C21.1689 16.6083 21.2972 16.6423 21.3485 16.5771C21.4552 16.442 21.5831 16.3294 21.7323 16.2393C21.9781 16.091 22.2583 16.0166 22.5722 16.0166ZM22.2792 16.9756C21.924 16.9756 21.6504 17.1109 21.4579 17.3809C21.2654 17.6511 21.1689 18.0371 21.1689 18.5381C21.1689 19.0324 21.2655 19.4144 21.4579 19.6846C21.6504 19.9548 21.9239 20.0898 22.2792 20.0898C22.6286 20.0898 22.9012 19.9564 23.0966 19.6895C23.2919 19.4225 23.3896 19.0452 23.3896 18.5576C23.3895 18.0567 23.292 17.6674 23.0966 17.3906C22.9012 17.1139 22.6285 16.9756 22.2792 16.9756Z" fill="white"/>
<circle cx="29.75" cy="24.5" r="5.25" fill="#F58220"/>
<path d="M27.125 24.5H32.375" stroke="white" stroke-width="1.75" stroke-linecap="round"/>
<path d="M29.75 21.875V27.125" stroke="white" stroke-width="1.75" stroke-linecap="round"/>
</svg>
