<svg width="24" height="24" viewBox="0 0 24 24" fill="none" xmlns="http://www.w3.org/2000/svg">
<path d="M14.4609 18.915L13.2854 20.0905L14.4609 21.2659C14.8163 21.6213 14.8163 22.1959 14.4609 22.5513C14.2836 22.7286 14.0509 22.8177 13.8181 22.8177C13.5854 22.8177 13.3527 22.7286 13.1754 22.5513L12 21.3759L10.8246 22.5513C10.6473 22.7286 10.4146 22.8177 10.1819 22.8177C9.94914 22.8177 9.71641 22.7286 9.53915 22.5513C9.1837 22.1959 9.1837 21.6213 9.53915 21.2659L10.7146 20.0905L9.53915 18.915C9.1837 18.5596 9.1837 17.9851 9.53915 17.6296C9.89459 17.2742 10.4691 17.2742 10.8246 17.6296L12 18.805L13.1754 17.6296C13.5309 17.2742 14.1054 17.2742 14.4609 17.6296C14.8163 17.9851 14.8163 18.5596 14.4609 18.915ZM20.558 20.0905L21.7334 18.915C22.0889 18.5596 22.0889 17.9851 21.7334 17.6296C21.378 17.2742 20.8034 17.2742 20.448 17.6296L19.2726 18.805L18.0971 17.6296C17.7417 17.2742 17.1672 17.2742 16.8117 17.6296C16.4563 17.9851 16.4563 18.5596 16.8117 18.915L17.9871 20.0905L16.8117 21.2659C16.4563 21.6213 16.4563 22.1959 16.8117 22.5513C16.989 22.7286 17.2217 22.8177 17.4544 22.8177C17.6871 22.8177 17.9199 22.7286 18.0971 22.5513L19.2726 21.3759L20.448 22.5513C20.6253 22.7286 20.858 22.8177 21.0907 22.8177C21.3234 22.8177 21.5561 22.7286 21.7334 22.5513C22.0889 22.1959 22.0889 21.6213 21.7334 21.2659L20.558 20.0905ZM7.18829 17.6296C6.83284 17.2742 6.25831 17.2742 5.90287 17.6296L4.72744 18.805L3.55201 17.6296C3.19656 17.2742 2.62203 17.2742 2.26658 17.6296C1.91114 17.9851 1.91114 18.5596 2.26658 18.915L3.44201 20.0905L2.26658 21.2659C1.91114 21.6213 1.91114 22.1959 2.26658 22.5513C2.44385 22.7286 2.67658 22.8177 2.9093 22.8177C3.14202 22.8177 3.37474 22.7286 3.55201 22.5513L4.72744 21.3759L5.90287 22.5513C6.08013 22.7286 6.31286 22.8177 6.54558 22.8177C6.7783 22.8177 7.01102 22.7286 7.18829 22.5513C7.54374 22.1959 7.54374 21.6213 7.18829 21.2659L6.01286 20.0905L7.18829 18.915C7.54374 18.5596 7.54374 17.9851 7.18829 17.6296ZM17.4544 10.9998C17.4544 13.0052 15.8235 14.6361 13.8181 14.6361H10.1819C8.17645 14.6361 6.54558 13.0052 6.54558 10.9998V9.18163C6.54558 7.84166 7.28192 6.68169 8.36372 6.05079V4.63628C8.36372 2.63087 9.99459 1 12 1C14.0054 1 15.6363 2.63087 15.6363 4.63628V6.05079C16.7181 6.68169 17.4544 7.84166 17.4544 9.18163V10.9998ZM10.1819 5.54535H13.8181V4.63628C13.8181 3.63358 13.0027 2.81814 12 2.81814C10.9973 2.81814 10.1819 3.63358 10.1819 4.63628V5.54535ZM15.6363 9.18163C15.6363 8.17893 14.8208 7.36349 13.8181 7.36349H10.1819C9.17915 7.36349 8.36372 8.17893 8.36372 9.18163V10.9998C8.36372 12.0025 9.17915 12.8179 10.1819 12.8179H13.8181C14.8208 12.8179 15.6363 12.0025 15.6363 10.9998V9.18163ZM12 8.7271C11.2473 8.7271 10.6364 9.33799 10.6364 10.0907C10.6364 10.8434 11.2473 11.4543 12 11.4543C12.7527 11.4543 13.3636 10.8434 13.3636 10.0907C13.3636 9.33799 12.7527 8.7271 12 8.7271Z" fill="#333333"/>
</svg>
