<svg width="42" height="42" viewBox="0 0 42 42" fill="none" xmlns="http://www.w3.org/2000/svg">
<path d="M12.25 14C12.25 12.067 13.817 10.5 15.75 10.5L26.25 10.5C28.183 10.5 29.75 12.067 29.75 14V33.25C29.75 35.183 28.183 36.75 26.25 36.75H15.75C13.817 36.75 12.25 35.183 12.25 33.25L12.25 14Z" fill="#F58220"/>
<path d="M15.75 7H26.25C28.183 7 29.75 8.567 29.75 10.5V31.5C29.75 33.433 28.183 35 26.25 35H15.75C13.817 35 12.25 33.433 12.25 31.5V10.5C12.25 8.567 13.817 7 15.75 7Z" fill="#F4B53C"/>
<path d="M14 28V10.5C14 9.5335 14.7835 8.75 15.75 8.75H26.25C27.2165 8.75 28 9.5335 28 10.5V28C28 28.9665 27.2165 29.75 26.25 29.75H15.75C14.7835 29.75 14 28.9665 14 28Z" fill="#E2A736"/>
<path d="M21 23.0782C20.8993 23.0787 20.7995 23.0593 20.7064 23.021C20.6133 22.9827 20.5287 22.9263 20.4575 22.8551C20.3143 22.7108 20.2339 22.5158 20.2339 22.3126C20.2339 22.1093 20.3143 21.9143 20.4575 21.7701C20.6017 21.6269 20.7967 21.5465 21 21.5465C21.2032 21.5465 21.3982 21.6269 21.5425 21.7701C21.6857 21.9143 21.766 22.1093 21.766 22.3126C21.766 22.5158 21.6857 22.7108 21.5425 22.8551C21.4713 22.9263 21.3867 22.9827 21.2936 23.021C21.2005 23.0593 21.1007 23.0787 21 23.0782Z" fill="white"/>
<path d="M25.375 18.0776C25.2334 18.0826 25.0954 18.0324 24.99 17.9376C23.9305 16.8818 22.4958 16.2889 21 16.2889C19.5043 16.2889 18.0695 16.8818 17.01 17.9376C16.9322 18.0148 16.833 18.0669 16.7253 18.0871C16.6176 18.1072 16.5063 18.0946 16.4059 18.0507C16.3054 18.0068 16.2205 17.9338 16.162 17.8411C16.1036 17.7484 16.0744 17.6402 16.0781 17.5307C16.0778 17.459 16.092 17.3879 16.1198 17.3217C16.1477 17.2556 16.1885 17.1957 16.24 17.1457C16.8649 16.5203 17.6069 16.0241 18.4237 15.6856C19.2404 15.3471 20.1159 15.1729 21 15.1729C21.8841 15.1729 22.7596 15.3471 23.5763 15.6856C24.3931 16.0241 25.1351 16.5203 25.76 17.1457C25.8115 17.1957 25.8523 17.2556 25.8802 17.3217C25.908 17.3879 25.9222 17.459 25.9219 17.5307C25.9219 17.6758 25.8643 17.8149 25.7617 17.9174C25.6591 18.02 25.52 18.0776 25.375 18.0776Z" fill="white"/>
<path d="M24.2157 19.5868C24.0718 19.5862 23.9338 19.5297 23.8307 19.4293C23.0799 18.6786 22.0617 18.2569 21 18.2569C19.9383 18.2569 18.9201 18.6786 18.1694 19.4293C18.0667 19.532 17.9274 19.5897 17.7822 19.5897C17.637 19.5897 17.4977 19.532 17.395 19.4293C17.2923 19.3266 17.2346 19.1874 17.2346 19.0421C17.2346 18.8969 17.2923 18.7576 17.395 18.655C18.3515 17.6996 19.6481 17.163 21 17.163C22.3519 17.163 23.6485 17.6996 24.605 18.655C24.6811 18.7317 24.7327 18.8292 24.7534 18.9353C24.7741 19.0413 24.7629 19.1511 24.7212 19.2508C24.6796 19.3505 24.6093 19.4356 24.5194 19.4954C24.4294 19.5552 24.3237 19.587 24.2157 19.5868Z" fill="white"/>
<path d="M22.9294 21.0702C22.7853 21.0704 22.647 21.0138 22.5444 20.9127C22.1343 20.5039 21.579 20.2744 21 20.2744C20.421 20.2744 19.8657 20.5039 19.4556 20.9127C19.3531 21.0138 19.2147 21.0704 19.0706 21.0702C18.9598 21.0731 18.8508 21.0424 18.7578 20.982C18.6649 20.9215 18.5926 20.8343 18.5503 20.7318C18.5081 20.6294 18.498 20.5165 18.5214 20.4081C18.5448 20.2998 18.6005 20.2011 18.6813 20.1252C19.2971 19.5118 20.1308 19.1674 21 19.1674C21.8692 19.1674 22.703 19.5118 23.3188 20.1252C23.3948 20.2019 23.4464 20.2994 23.4671 20.4055C23.4878 20.5115 23.4766 20.6213 23.435 20.721C23.3933 20.8207 23.3231 20.9058 23.2331 20.9656C23.1431 21.0254 23.0374 21.0572 22.9294 21.057V21.0702Z" fill="white"/>
<rect x="19.25" y="31.5" width="3.5" height="1.75" rx="0.875" fill="#F58220"/>
</svg>
