<svg width="24" height="24" viewBox="0 0 24 24" fill="none" xmlns="http://www.w3.org/2000/svg">
<path d="M11.1667 13C11.1667 13.4608 10.7933 13.8333 10.3333 13.8333H6.16667C3.86917 13.8333 2 11.9642 2 9.66667V7.16667C2 4.86917 3.86917 3 6.16667 3H17.8333C20.1308 3 22 4.86917 22 7.16667C22 7.6275 21.6275 8 21.1667 8C20.7058 8 20.3333 7.6275 20.3333 7.16667C20.3333 5.78833 19.2117 4.66667 17.8333 4.66667H6.16667C4.78833 4.66667 3.66667 5.78833 3.66667 7.16667V9.66667C3.66667 11.045 4.78833 12.1667 6.16667 12.1667H10.3333C10.7933 12.1667 11.1667 12.5392 11.1667 13ZM9.25583 6.5775C8.93 6.25167 8.40333 6.25167 8.0775 6.5775L7.41667 7.23833L6.75583 6.5775C6.43 6.25167 5.90333 6.25167 5.5775 6.5775C5.25167 6.90333 5.25167 7.43 5.5775 7.75583L6.23833 8.41667L5.5775 9.0775C5.25167 9.40333 5.25167 9.93 5.5775 10.2558C5.74 10.4183 5.95333 10.5 6.16667 10.5C6.38 10.5 6.59333 10.4183 6.75583 10.2558L7.41667 9.595L8.0775 10.2558C8.24 10.4183 8.45333 10.5 8.66667 10.5C8.88 10.5 9.09333 10.4183 9.25583 10.2558C9.58167 9.93 9.58167 9.40333 9.25583 9.0775L8.595 8.41667L9.25583 7.75583C9.58167 7.43 9.58167 6.90333 9.25583 6.5775ZM14.2558 7.75583C14.5817 7.43 14.5817 6.90333 14.2558 6.5775C13.93 6.25167 13.4033 6.25167 13.0775 6.5775L12.4167 7.23833L11.7558 6.5775C11.43 6.25167 10.9033 6.25167 10.5775 6.5775C10.2517 6.90333 10.2517 7.43 10.5775 7.75583L11.2383 8.41667L10.5775 9.0775C10.2517 9.40333 10.2517 9.93 10.5775 10.2558C10.74 10.4183 10.9533 10.5 11.1667 10.5C11.38 10.5 11.5933 10.4183 11.7558 10.2558L14.2558 7.75583ZM22 15.5V17.1667C22 19.005 20.505 20.5 18.6667 20.5H15.3333C13.495 20.5 12 19.005 12 17.1667V15.5C12 14.2717 12.675 13.2083 13.6667 12.63V11.3333C13.6667 9.495 15.1617 8 17 8C18.8383 8 20.3333 9.495 20.3333 11.3333V12.63C21.325 13.2083 22 14.2717 22 15.5ZM15.3333 12.1667H18.6667V11.3333C18.6667 10.4142 17.9192 9.66667 17 9.66667C16.0808 9.66667 15.3333 10.4142 15.3333 11.3333V12.1667ZM20.3333 15.5C20.3333 14.5808 19.5858 13.8333 18.6667 13.8333H15.3333C14.4142 13.8333 13.6667 14.5808 13.6667 15.5V17.1667C13.6667 18.0858 14.4142 18.8333 15.3333 18.8333H18.6667C19.5858 18.8333 20.3333 18.0858 20.3333 17.1667V15.5ZM17 15.0833C16.31 15.0833 15.75 15.6433 15.75 16.3333C15.75 17.0233 16.31 17.5833 17 17.5833C17.69 17.5833 18.25 17.0233 18.25 16.3333C18.25 15.6433 17.69 15.0833 17 15.0833Z" fill="black"/>
</svg>
