<svg width="42" height="42" viewBox="0 0 42 42" fill="none" xmlns="http://www.w3.org/2000/svg">
<path d="M31.5 7H29.75V14H31.5C32.4665 14 33.25 13.2165 33.25 12.25V8.75C33.25 7.7835 32.4665 7 31.5 7Z" fill="#5091C0"/>
<path d="M14 8.75H31.5L30.9874 9.26256C30.1951 10.0549 29.75 11.1295 29.75 12.25V31.8567C29.75 33.0166 28.3476 33.5976 27.5273 32.7773C26.8989 32.1489 25.8396 32.3209 25.4421 33.1157L25.375 33.25C24.9445 34.1109 23.7971 34.2971 23.1165 33.6165L22.466 32.966C21.6564 32.1564 20.3436 32.1564 19.534 32.966L19.25 33.25C18.2835 34.2165 16.7165 34.2165 15.75 33.25L15.0251 32.5251C14.459 31.959 13.541 31.959 12.9749 32.5251C12.0616 33.4384 10.5 32.7916 10.5 31.5V12.25C10.5 10.317 12.067 8.75 14 8.75Z" fill="#5091C0"/>
<path d="M14 7H31.5L30.9874 7.51256C30.1951 8.30488 29.75 9.37949 29.75 10.5V30.1067C29.75 31.2666 28.3476 31.8476 27.5273 31.0273C26.8989 30.3989 25.8396 30.5709 25.4421 31.3657L25.375 31.5C24.9445 32.3609 23.7971 32.5471 23.1165 31.8665L22.466 31.216C21.6564 30.4064 20.3436 30.4064 19.534 31.216L19.25 31.5C18.2835 32.4665 16.7165 32.4665 15.75 31.5L15.0251 30.7751C14.459 30.209 13.541 30.209 12.9749 30.7751C12.0616 31.6884 10.5 31.0416 10.5 29.75V10.5C10.5 8.567 12.067 7 14 7Z" fill="#58AAE6"/>
<rect x="14" y="21" width="12.25" height="1.75" rx="0.875" fill="white"/>
<rect x="14" y="24.5" width="8.75" height="1.75" rx="0.875" fill="white"/>
<rect x="24.5" y="24.5" width="1.75" height="1.75" rx="0.875" fill="white"/>
<path d="M19.4059 10.568C19.3526 10.5077 19.263 10.4845 19.1833 10.5106C19.1196 10.531 19.0725 10.5789 19.056 10.6366C19.0146 10.708 18.8106 10.9607 18.595 11.2277C17.6008 12.4595 15.75 14.7523 15.75 16.0654C15.75 17.8214 17.3201 19.25 19.2498 19.25C21.1799 19.25 22.75 17.8214 22.75 16.0654C22.75 14.3628 19.5425 10.722 19.4059 10.568Z" fill="white"/>
</svg>
