<svg width="24" height="24" viewBox="0 0 24 24" fill="none" xmlns="http://www.w3.org/2000/svg">
<path fill-rule="evenodd" clip-rule="evenodd" d="M13 12.9999V19C13 19.5523 12.5523 20 12 20C11.4477 20 11 19.5523 11 19V12.9999H5.00001C4.44772 12.9999 4.00001 12.5522 4.00001 11.9999C4.00001 11.4477 4.44772 10.9999 5.00001 10.9999H11V5C11 4.44772 11.4477 4 12 4C12.5523 4 13 4.44772 13 5V10.9999H19C19.5523 10.9999 20 11.4477 20 11.9999C20 12.5522 19.5523 12.9999 19 12.9999H13Z" fill="#333333"/>
</svg>
