<svg width="42" height="42" viewBox="0 0 42 42" fill="none" xmlns="http://www.w3.org/2000/svg">
<path d="M12.25 12.25C12.25 10.317 13.817 8.75 15.75 8.75L26.25 8.75C28.183 8.75 29.75 10.317 29.75 12.25V33.25C29.75 35.183 28.183 36.75 26.25 36.75H15.75C13.817 36.75 12.25 35.183 12.25 33.25L12.25 12.25Z" fill="#F58220"/>
<path d="M15.75 7H26.25C28.183 7 29.75 8.567 29.75 10.5V31.5C29.75 33.433 28.183 35 26.25 35H15.75C13.817 35 12.25 33.433 12.25 31.5V10.5C12.25 8.567 13.817 7 15.75 7Z" fill="#F4B53C"/>
<path d="M14 28V10.5C14 9.5335 14.7835 8.75 15.75 8.75H26.25C27.2165 8.75 28 9.5335 28 10.5V28C28 28.9665 27.2165 29.75 26.25 29.75H15.75C14.7835 29.75 14 28.9665 14 28Z" fill="#E2A736"/>
<rect x="19.25" y="31.5" width="3.5" height="1.75" rx="0.875" fill="#F58220"/>
<path d="M18.5215 15.75C19.2321 15.75 19.7724 15.9267 20.1426 16.2793C20.5127 16.6319 20.6982 17.141 20.6982 17.8066C20.6982 18.3403 20.5632 18.78 20.2939 19.126C20.0245 19.472 19.6439 19.6982 19.1523 19.8037C19.484 19.9026 19.7508 20.1631 19.9521 20.585L20.7529 22.2158C20.8671 22.4483 20.6974 22.7206 20.4385 22.7207H19.9756C19.8415 22.7206 19.7195 22.6433 19.6611 22.5225L18.6816 20.4961C18.581 20.2852 18.4566 20.1365 18.3086 20.0508C18.1606 19.9651 17.9739 19.9219 17.749 19.9219H16.8779V22.3701C16.8779 22.5634 16.7216 22.7206 16.5283 22.7207H16.0996C15.9065 22.7205 15.75 22.5633 15.75 22.3701V16.0996C15.7502 15.9066 15.9066 15.7502 16.0996 15.75H18.5215ZM16.8691 18.9434H18.3613C18.7936 18.9434 19.1111 18.8522 19.3125 18.6709C19.5135 18.4896 19.6142 18.2113 19.6143 17.8359C19.6143 17.4537 19.5138 17.1747 19.3125 17C19.1111 16.8253 18.7936 16.7383 18.3613 16.7383H16.8691V18.9434Z" fill="white"/>
<path d="M24.3222 17.7666C24.6952 17.7666 25.0281 17.8722 25.3212 18.083C25.6143 18.2939 25.8429 18.592 26.0058 18.9775C26.1686 19.3631 26.2499 19.8067 26.2499 20.3076C26.2499 20.8083 26.1685 21.2465 26.0058 21.6221C25.8429 21.9977 25.6162 22.2879 25.3261 22.4922C25.0359 22.6965 24.7012 22.7988 24.3222 22.7988C24.0143 22.7988 23.7388 22.727 23.496 22.582C23.316 22.4745 22.9365 22.6028 22.9364 22.8125V23.9443C22.9364 24.2508 22.6882 24.4998 22.3817 24.5C22.0751 24.5 21.8261 24.251 21.8261 23.9443V18.4316C21.8261 18.1301 22.0704 17.885 22.372 17.8848H22.5282C22.7437 17.8848 22.9189 18.0599 22.9189 18.2754C22.9189 18.3583 23.0472 18.3923 23.0985 18.3271C23.2052 18.192 23.3331 18.0794 23.4823 17.9893C23.7281 17.841 24.0083 17.7666 24.3222 17.7666ZM24.0292 18.7256C23.674 18.7256 23.4004 18.8609 23.2079 19.1309C23.0154 19.4011 22.9189 19.7871 22.9189 20.2881C22.9189 20.7824 23.0155 21.1644 23.2079 21.4346C23.4004 21.7048 23.6739 21.8398 24.0292 21.8398C24.3786 21.8398 24.6512 21.7064 24.8466 21.4395C25.0419 21.1725 25.1396 20.7952 25.1396 20.3076C25.1395 19.8067 25.042 19.4174 24.8466 19.1406C24.6512 18.8639 24.3785 18.7256 24.0292 18.7256Z" fill="white"/>
</svg>
