<svg width="24" height="24" viewBox="0 0 24 24" fill="none" xmlns="http://www.w3.org/2000/svg">
<path fill-rule="evenodd" clip-rule="evenodd" d="M17 9C18.6569 9 20 7.65685 20 6C20 4.34315 18.6569 3 17 3C15.3431 3 14 4.34315 14 6C14 6.12548 14.0077 6.24917 14.0227 6.37061L7.70346 9.53021C7.21959 9.19584 6.63267 9 6 9C4.34315 9 3 10.3431 3 12C3 13.6569 4.34315 15 6 15C6.63269 15 7.21963 14.8041 7.7035 14.4698L14.0227 17.6293C14.0077 17.7508 14 17.8745 14 18C14 19.6569 15.3431 21 17 21C18.6569 21 20 19.6569 20 18C20 16.3431 18.6569 15 17 15C16.1911 15 15.457 15.3201 14.9174 15.8406L8.88526 12.8246C8.95999 12.5626 9 12.286 9 12C9 11.714 8.95998 11.4374 8.88525 11.1754L14.9174 8.15932C15.4569 8.67984 16.1911 9 17 9Z" fill="#333333"/>
</svg>
