<svg width="24" height="24" viewBox="0 0 24 24" fill="none" xmlns="http://www.w3.org/2000/svg">
<path d="M14.36 12C15.9226 12 17.296 13.0359 17.7253 14.5385L18.6358 17.7253C18.6358 20 16.0109 21 12 21C7.98911 21 5.36421 20 5.36421 17.7253L6.27473 14.5385C6.70403 13.0359 8.07738 12 9.64006 12H14.36ZM14.36 14H9.64006C8.97034 14 8.38176 14.444 8.19778 15.0879L7.65101 17C7.65101 19 10.5506 19 12 19C13.4494 19 16.348 19 16.348 17L15.8022 15.0879C15.6314 14.49 15.1117 14.0644 14.5021 14.0067L14.36 14ZM12 3C14.2091 3 16 4.79086 16 7C16 9.20914 14.2091 11 12 11C9.79087 11 8.00001 9.20914 8.00001 7C8.00001 4.79086 9.79087 3 12 3ZM12 5C10.8954 5 10 5.89543 10 7C10 8.10457 10.8954 9 12 9C13.1046 9 14 8.10457 14 7C14 5.89543 13.1046 5 12 5Z" fill="#333333"/>
</svg>
