<svg width="24" height="24" viewBox="0 0 24 24" fill="none" xmlns="http://www.w3.org/2000/svg">
<path fill-rule="evenodd" clip-rule="evenodd" d="M10 6C10 4.89543 10.8954 4 12 4C13.1046 4 14 4.89543 14 6C14 6.13727 13.9862 6.27132 13.9598 6.40082C15.4012 7.01749 16.5106 8.29785 16.8677 9.90475L17.8164 14.1737C18.514 14.486 19 15.1862 19 16C19 17.1046 18.1046 18 17 18H14C14 19.1046 13.1046 20 12 20C10.8954 20 10 19.1046 10 18H7C5.89543 18 5 17.1046 5 16C5 15.1862 5.48602 14.486 6.18363 14.1737L7.13228 9.90475C7.48937 8.29785 8.59877 7.01749 10.0402 6.40081C10.0138 6.27132 10 6.13727 10 6Z" fill="#2E2E2E"/>
</svg>
