<svg width="72" height="22" viewBox="0 0 72 22" fill="none" xmlns="http://www.w3.org/2000/svg">
<path d="M21.0354 9.2958C19.7521 8.84935 18.699 8.62512 17.8771 8.62512C15.6649 8.62512 14.3285 9.64816 14.3285 11.3729C14.3285 12.8034 15.2915 13.7914 17.2345 14.0607L17.9202 14.1558C18.8912 14.2949 19.3166 14.5202 19.3166 14.9266C19.3166 15.4211 18.8131 15.7164 17.764 15.7164C17.0012 15.7164 16.1494 15.4921 15.2064 15.0437C15.1242 15.0048 15.0301 14.9991 14.9437 15.0278C14.8574 15.0565 14.7855 15.1174 14.7429 15.1978L14.1904 16.2559C14.1676 16.3003 14.1544 16.3489 14.1517 16.3987C14.1491 16.4485 14.157 16.4983 14.175 16.5449C14.1929 16.5914 14.2205 16.6336 14.256 16.6687C14.2914 16.7037 14.3339 16.7309 14.3806 16.7484C15.9171 17.314 17.0393 17.5973 17.747 17.5973C20.1845 17.5973 21.607 16.4792 21.607 14.7444C21.607 13.3229 20.5919 12.5091 18.7701 12.2318L18.0243 12.1187C17.2605 12.0066 16.6529 11.7463 16.6529 11.2608C16.6529 10.8003 17.0873 10.498 17.9462 10.498C18.5178 10.503 19.3066 10.6912 20.3116 11.0626C20.3958 11.0942 20.4888 11.0925 20.5717 11.0579C20.6547 11.0233 20.7213 10.9584 20.7581 10.8764L21.2406 9.77029C21.2599 9.72591 21.2698 9.67805 21.2698 9.62967C21.2698 9.58129 21.2599 9.53343 21.2407 9.48904C21.2214 9.44465 21.1933 9.40468 21.158 9.37162C21.1227 9.33855 21.0809 9.31309 21.0354 9.2968V9.2958ZM25.2487 8.55204H23.8342C23.7878 8.55204 23.7419 8.56118 23.699 8.57894C23.6561 8.5967 23.6172 8.62273 23.5844 8.65554C23.5516 8.68835 23.5255 8.72731 23.5078 8.77018C23.49 8.81305 23.4809 8.859 23.4809 8.9054V17.3841C23.4809 17.5803 23.639 17.7384 23.8342 17.7384H25.2487C25.3424 17.7384 25.4323 17.7012 25.4985 17.6349C25.5648 17.5687 25.602 17.4788 25.602 17.3851V8.90641C25.6022 8.85992 25.5931 8.81386 25.5754 8.77087C25.5577 8.72788 25.5317 8.68881 25.4989 8.65589C25.4661 8.62297 25.4271 8.59686 25.3841 8.57904C25.3412 8.56122 25.2952 8.55204 25.2487 8.55204ZM24.538 4.3127C23.7391 4.3127 23.1265 4.93934 23.1265 5.73416C23.1265 6.52997 23.7391 7.1396 24.538 7.1396C25.3358 7.1396 25.9554 6.52897 25.9554 5.73416C25.9554 4.93934 25.3348 4.3127 24.537 4.3127H24.538Z" fill="#E67A2B"/>
<path fill-rule="evenodd" clip-rule="evenodd" d="M39.25 10.2538C38.6934 10.2538 38.245 10.409 37.9056 10.7213C37.6454 10.9615 37.4502 11.2758 37.323 11.6642C37.3088 11.7071 37.3049 11.7528 37.3118 11.7975C37.3186 11.8422 37.3359 11.8846 37.3622 11.9213C37.3886 11.958 37.4233 11.988 37.4634 12.0087C37.5036 12.0295 37.5481 12.0404 37.5933 12.0406L40.8316 12.0486C40.8769 12.0489 40.9217 12.0385 40.9621 12.0181C41.0026 11.9978 41.0377 11.9681 41.0645 11.9315C41.0912 11.895 41.1089 11.8526 41.1162 11.8079C41.1234 11.7632 41.1198 11.7174 41.1059 11.6742C41.0008 11.3122 40.8023 10.9843 40.5303 10.7233C40.195 10.412 39.7685 10.2558 39.25 10.2538ZM39.273 8.17767C40.5644 8.18167 41.6104 8.61812 42.4142 9.48701C43.2181 10.3569 43.6205 11.4891 43.6235 12.8865C43.6235 13.0867 43.6165 13.2689 43.6035 13.435C43.5977 13.5068 43.5649 13.5738 43.5118 13.6224C43.4587 13.671 43.3892 13.6978 43.3172 13.6973L37.5823 13.6833C37.537 13.6833 37.4924 13.694 37.4521 13.7145C37.4118 13.7351 37.3769 13.7649 37.3503 13.8015C37.3238 13.8381 37.3063 13.8805 37.2993 13.9252C37.2923 13.97 37.2959 14.0157 37.31 14.0587C37.4532 14.4951 37.6854 14.8345 38.0047 15.0767C38.4121 15.387 38.9147 15.5412 39.5143 15.5422C39.9037 15.5432 40.2981 15.4691 40.7005 15.319C41.0188 15.1999 41.3111 15.0437 41.5804 14.8495C41.6376 14.8073 41.7084 14.7878 41.7792 14.7946C41.8499 14.8014 41.9157 14.8342 41.9638 14.8865L43.0008 16.0267C43.111 16.1468 43.0989 16.336 42.9718 16.4381C42.0158 17.2109 40.8156 17.5943 39.3701 17.5903C37.9867 17.5873 36.8656 17.1549 36.0067 16.295C35.1458 15.4341 34.7184 14.3029 34.7224 12.9015C34.7264 11.4921 35.1488 10.3519 35.9907 9.48C36.8315 8.60911 37.9267 8.17466 39.273 8.17867M49.4224 10.446C48.7417 10.444 48.1882 10.6752 47.7577 11.1387C47.3273 11.6022 47.1121 12.1898 47.1101 12.9045C47.1081 13.6172 47.3203 14.2068 47.7487 14.6723C48.1771 15.1388 48.7307 15.372 49.4104 15.373C50.1081 15.375 50.6687 15.1408 51.0921 14.6723C51.5166 14.2018 51.7298 13.6162 51.7318 12.9155C51.7328 12.2148 51.5236 11.6282 51.1011 11.1567C50.6807 10.6842 50.1201 10.448 49.4224 10.446ZM49.8729 8.20469C51.1141 8.2077 52.1482 8.66016 52.9761 9.56008C53.8049 10.46 54.2173 11.5811 54.2143 12.9215C54.2103 14.2629 53.7929 15.381 52.96 16.277C52.1272 17.1739 51.0931 17.6203 49.8589 17.6163C48.996 17.6143 48.2712 17.3771 47.6836 16.9036C47.6416 16.8702 47.591 16.8492 47.5377 16.8432C47.4843 16.8372 47.4303 16.8462 47.3819 16.8694C47.3334 16.8926 47.2925 16.9289 47.2637 16.9743C47.235 17.0196 47.2195 17.0721 47.2192 17.1258L47.2102 20.7856C47.2099 20.823 47.2022 20.86 47.1877 20.8944C47.1731 20.9289 47.1518 20.9601 47.1251 20.9864C47.0984 21.0126 47.0668 21.0333 47.0321 21.0473C46.9974 21.0613 46.9603 21.0683 46.9229 21.0679H45.088C45.012 21.0671 44.9395 21.0363 44.8861 20.9824C44.8326 20.9284 44.8027 20.8555 44.8027 20.7796L44.8327 8.76026C44.8327 8.6031 44.9608 8.47797 45.119 8.47797H46.9088C47.067 8.47797 47.1951 8.60811 47.1951 8.76627C47.1941 9.00752 47.4774 9.09861 47.6626 8.94345C48.2562 8.44894 48.992 8.20269 49.8729 8.20469ZM59.8401 10.472C59.1494 10.47 58.5888 10.7033 58.1624 11.1737C57.7349 11.6432 57.5207 12.2288 57.5187 12.9305C57.5167 13.6312 57.7289 14.2178 58.1534 14.6893C58.5778 15.1608 59.1374 15.3981 59.8281 15.3991C60.5138 15.4011 61.0713 15.1698 61.5018 14.7063C61.9322 14.2439 62.1485 13.6553 62.1505 12.9415C62.1525 12.2278 61.9382 11.6382 61.5098 11.1727C61.0824 10.7073 60.5258 10.473 59.8401 10.472ZM64.4478 8.76627L64.4278 17.1368C64.4278 17.295 64.2977 17.4201 64.1405 17.4191H62.3517C62.2756 17.4186 62.2029 17.388 62.1494 17.3339C62.096 17.2799 62.0661 17.2069 62.0664 17.1308V17.1238C62.0664 16.8836 61.7851 16.7484 61.5989 16.9026C61.0013 17.3961 60.2605 17.6424 59.3786 17.6404C58.1423 17.6373 57.1113 17.1859 56.2834 16.285C55.4546 15.385 55.0422 14.2649 55.0452 12.9245C55.0482 11.5832 55.4666 10.464 56.3005 9.56809C57.1333 8.67217 58.1664 8.22571 59.4016 8.22872C60.2805 8.23072 61.0203 8.48298 61.6179 8.98549C61.6597 9.02001 61.7105 9.04193 61.7644 9.0487C61.8182 9.05547 61.8728 9.04682 61.9219 9.02374C61.971 9.00067 62.0125 8.96412 62.0416 8.91836C62.0707 8.8726 62.0863 8.81951 62.0864 8.76527V8.76026C62.0864 8.6021 62.2165 8.47697 62.3737 8.47797H64.1625C64.3207 8.47797 64.4488 8.60811 64.4478 8.76627ZM71.4099 8.76226L71.4279 10.3539C71.4277 10.3913 71.42 10.4282 71.4054 10.4626C71.3908 10.497 71.3696 10.5282 71.3429 10.5543C71.3161 10.5805 71.2845 10.6011 71.2498 10.615C71.2151 10.6288 71.178 10.6357 71.1406 10.6352H68.4629C68.4255 10.6347 68.3884 10.6415 68.3537 10.6554C68.319 10.6693 68.2874 10.6899 68.2607 10.716C68.234 10.7422 68.2127 10.7733 68.1981 10.8077C68.1835 10.8421 68.1759 10.8791 68.1756 10.9165L68.1676 13.8985C68.1676 14.4281 68.2877 14.8135 68.531 15.0567C68.7742 15.301 69.0996 15.4231 69.507 15.4241C69.9224 15.4251 70.3979 15.2819 70.9324 14.9956C70.9667 14.9775 71.0043 14.9664 71.0429 14.9632C71.0816 14.96 71.1205 14.9646 71.1572 14.9769C71.194 14.9892 71.2279 15.0088 71.2569 15.0345C71.2859 15.0603 71.3094 15.0917 71.3258 15.1268L71.9735 16.5072C72.003 16.5709 72.0081 16.6432 71.9878 16.7103C71.9675 16.7775 71.9232 16.8349 71.8634 16.8716C71.0377 17.3932 70.0803 17.6686 69.1036 17.6654C67.9984 17.6624 67.1616 17.3561 66.596 16.7454C66.0294 16.1348 65.7471 15.2489 65.7501 14.0857L65.7702 6.11255C65.7702 5.95539 65.8993 5.82726 66.0575 5.82826L67.9023 5.83226C68.0605 5.83226 68.1876 5.9614 68.1876 6.11856L68.1606 8.18367C68.1606 8.34183 68.2877 8.47697 68.4459 8.47797H71.1246C71.2828 8.47797 71.4109 8.6051 71.4099 8.76226ZM33.5101 8.76226L33.5282 10.429C33.5278 10.4663 33.52 10.5031 33.5053 10.5374C33.4907 10.5717 33.4694 10.6027 33.4427 10.6288C33.416 10.6548 33.3844 10.6753 33.3498 10.6891C33.3152 10.7029 33.2781 10.7098 33.2409 10.7093H30.5621C30.5247 10.7089 30.4877 10.7159 30.453 10.7299C30.4184 10.7439 30.3868 10.7646 30.3602 10.7908C30.3336 10.817 30.3124 10.8483 30.298 10.8827C30.2835 10.9172 30.276 10.9542 30.2758 10.9915L30.2678 13.8985C30.2678 14.4281 30.3879 14.8135 30.6312 15.0567C30.8744 15.301 31.1998 15.4231 31.6072 15.4241C32.0216 15.4251 32.4981 15.2819 33.0326 14.9956C33.0669 14.9775 33.1045 14.9664 33.1431 14.9632C33.1818 14.96 33.2207 14.9646 33.2574 14.9769C33.2942 14.9892 33.3282 15.0088 33.3571 15.0345C33.3861 15.0603 33.4096 15.0917 33.426 15.1268L34.0737 16.5072C34.1032 16.5709 34.1083 16.6432 34.088 16.7103C34.0677 16.7775 34.0234 16.8349 33.9636 16.8716C33.1378 17.3932 32.1805 17.6686 31.2038 17.6654C30.0986 17.6624 29.2618 17.3561 28.6962 16.7454C28.1286 16.1348 27.8473 15.2489 27.8503 14.0857L27.8704 6.01946C27.8704 5.8623 27.9995 5.73416 28.1577 5.73517L30.0015 5.73316C30.1597 5.73316 30.2878 5.8623 30.2878 6.01946L30.2608 8.25875C30.2608 8.41591 30.3879 8.55205 30.5461 8.55205H33.2238C33.382 8.55205 33.5101 8.67918 33.5101 8.83734" fill="#E67A2B"/>
<path fill-rule="evenodd" clip-rule="evenodd" d="M8.5456 1.34369C7.68335 0.484397 6.51603 0.00131566 5.29872 2.68339e-06C4.0814 -0.00131029 2.91305 0.479252 2.04895 1.33669C1.62175 1.76029 1.28251 2.26417 1.05073 2.81934C0.818942 3.3745 0.699188 3.97002 0.698351 4.57163C0.697514 5.17324 0.81561 5.76908 1.04585 6.32489C1.27609 6.8807 1.61393 7.38552 2.03994 7.81031C2.90227 8.67022 4.07001 9.15369 5.28782 9.155C6.50562 9.15631 7.67441 8.67536 8.53859 7.81732C8.96565 7.39358 9.30474 6.8896 9.53635 6.33436C9.76796 5.77912 9.88753 5.18357 9.88818 4.58196C9.88884 3.98035 9.77056 3.38455 9.54015 2.82881C9.30974 2.27307 8.97174 1.76836 8.5456 1.34369Z" fill="#F9C623"/>
<path fill-rule="evenodd" clip-rule="evenodd" d="M0.852715 10.7493C0.877328 10.6625 0.934764 10.5887 1.01286 10.5435C1.09096 10.4982 1.18359 10.4852 1.27114 10.5071C3.58351 11.0466 7.01102 11.0566 9.3324 10.5311C9.41993 10.5099 9.51228 10.5235 9.58998 10.5691C9.66767 10.6146 9.72462 10.6886 9.74882 10.7754V10.7774C9.74882 10.7824 9.75182 10.7874 9.75283 10.7904L10.5737 14.0457C10.6197 14.2259 10.4736 14.4181 10.2453 14.4701C9.56764 14.6263 8.88394 14.7494 8.19723 14.8405C7.967 14.8695 7.79682 15.0387 7.81684 15.2249L8.01905 17.0448C8.04007 17.23 7.84888 17.4031 7.58961 17.4272C6.05404 17.5693 4.50746 17.5653 2.97289 17.4131C2.71462 17.3871 2.52343 17.2139 2.54545 17.0288C2.61552 16.4221 2.68759 15.8165 2.75867 15.2099C2.77869 15.0247 2.61051 14.8535 2.38128 14.8225C1.69321 14.7286 1.01006 14.6016 0.334184 14.4421C0.106952 14.388 -0.0381971 14.1939 0.00885108 14.0147L0.852715 10.7493Z" fill="#E67A2B"/>
</svg>
