<svg width="84" height="29" viewBox="0 0 84 29" fill="none" xmlns="http://www.w3.org/2000/svg">
<path fill-rule="evenodd" clip-rule="evenodd" d="M36.4069 13.4076C35.6078 13.4056 34.9639 13.6301 34.476 14.0809C34.101 14.4272 33.822 14.8804 33.6395 15.4404C33.5526 15.7073 33.7484 15.9827 34.0292 15.9834L38.68 15.9949C38.9601 15.9956 39.1566 15.7231 39.0725 15.4552C38.8938 14.8873 38.6184 14.4301 38.2472 14.0847C37.7649 13.6348 37.1511 13.4094 36.4069 13.4076ZM36.4401 10.4141C38.2945 10.4188 39.7981 11.0481 40.9533 12.3008C42.1073 13.555 42.6864 15.1892 42.6902 17.2026C42.6895 17.4918 42.6797 17.7552 42.661 17.9935C42.6444 18.2082 42.4646 18.3725 42.2496 18.3718L34.0123 18.3514C33.7313 18.3507 33.5326 18.6259 33.6202 18.8928C33.8265 19.5223 34.1597 20.0118 34.6193 20.3617C35.2033 20.8078 35.9257 21.0307 36.7864 21.033C37.3459 21.0343 37.9136 20.9274 38.4904 20.7104C38.9478 20.5393 39.3695 20.3141 39.7549 20.034C39.9265 19.9093 40.1633 19.9293 40.3062 20.0867L41.7957 21.7303C41.9533 21.9041 41.9357 22.1764 41.7535 22.3242C40.3807 23.438 38.6558 23.9909 36.5796 23.9858C34.5922 23.9809 32.9822 23.3578 31.7477 22.1181C30.5129 20.8774 29.8983 19.2454 29.9032 17.2235C29.9083 15.1921 30.5156 13.5485 31.7252 12.2915C32.9347 11.0354 34.5064 10.4092 36.4401 10.4141Z" fill="white"/>
<path fill-rule="evenodd" clip-rule="evenodd" d="M51.0194 13.6839C50.0436 13.6815 49.2467 14.0141 48.6288 14.6829C48.0106 15.3506 47.7006 16.1993 47.6981 17.2289C47.6954 18.2572 48.0011 19.1074 48.6159 19.7783C49.231 20.45 50.0258 20.7867 51.0017 20.789C52.0046 20.7914 52.8099 20.4542 53.4192 19.7778C54.0287 19.1001 54.3339 18.2559 54.3366 17.2454C54.3392 16.2335 54.0378 15.3882 53.4321 14.7082C52.8259 14.0274 52.0222 13.6864 51.0194 13.6839ZM51.6665 10.4524C53.4492 10.4569 54.9349 11.1086 56.1257 12.4063C57.3153 13.7042 57.9079 15.3204 57.9031 17.2543C57.8982 19.1879 57.2978 20.8003 56.1015 22.0922C54.9043 23.385 53.4199 24.0283 51.6461 24.0236C50.4068 24.0205 49.3657 23.678 48.5225 22.9953C48.2549 22.7788 47.8561 22.9718 47.8553 23.3159L47.8421 28.5928C47.8415 28.82 47.6568 29.0007 47.4296 29.0001H44.7933C44.5662 28.9994 44.3823 28.8113 44.383 28.5844L44.4263 11.2535C44.427 11.0261 44.6115 10.8456 44.8387 10.8463H47.4091C47.6361 10.8468 47.8197 11.0348 47.8195 11.262C47.8186 11.6103 48.2254 11.7417 48.4923 11.5178C49.3439 10.8043 50.4019 10.4493 51.6665 10.4524Z" fill="white"/>
<path fill-rule="evenodd" clip-rule="evenodd" d="M65.9847 13.721C64.992 13.7186 64.1878 14.0555 63.5738 14.7333C62.9601 15.4099 62.6525 16.2541 62.6498 17.266C62.6474 18.2765 62.951 19.122 63.5614 19.8029C64.1718 20.4824 64.9744 20.8238 65.9671 20.826C66.9518 20.8285 67.7527 20.4959 68.3711 19.8271C68.9895 19.1594 69.3005 18.3109 69.3029 17.2824C69.3051 16.2528 68.9988 15.4028 68.3838 14.732C67.7685 14.06 66.9696 13.7235 65.9847 13.721ZM72.6036 11.2617L72.5736 23.3318C72.5731 23.559 72.3884 23.7397 72.161 23.739H69.5921C69.3647 23.7386 69.1811 23.5505 69.1815 23.3234V23.3134C69.1824 22.9664 68.7777 22.7721 68.5109 22.9935C67.652 23.7059 66.5889 24.0607 65.3212 24.0576C63.546 24.0531 62.065 23.4025 60.8753 22.1037C59.6843 20.806 59.092 19.1907 59.0968 17.2571C59.1015 15.3232 59.7021 13.7099 60.8993 12.418C62.0957 11.1261 63.5801 10.4819 65.355 10.4864C66.6175 10.4895 67.6791 10.8531 68.5387 11.5773C68.8046 11.8012 69.2109 11.6089 69.2118 11.2615V11.2532C69.2122 11.0259 69.3969 10.8454 69.6241 10.846H72.1932C72.4204 10.8465 72.604 11.0345 72.6036 11.2617Z" fill="white"/>
<path fill-rule="evenodd" clip-rule="evenodd" d="M82.6044 11.2566L82.6301 13.5517C82.6293 13.7789 82.4448 13.9578 82.2178 13.9571H78.3706C78.1434 13.9567 77.9587 14.1356 77.9582 14.3628L77.9473 18.6617C77.9456 19.4251 78.1183 19.9814 78.469 20.3328C78.8187 20.6849 79.2859 20.8608 79.8712 20.8621C80.4673 20.8637 81.1495 20.6574 81.9184 20.2446C82.1258 20.1332 82.3841 20.2206 82.4837 20.4338L83.4135 22.4232C83.5017 22.6126 83.4339 22.8386 83.2565 22.9487C82.0206 23.7155 80.699 24.0972 79.2915 24.0937C77.7033 24.0899 76.5025 23.6482 75.689 22.7677C74.8743 21.887 74.47 20.6091 74.4742 18.9329L74.5029 7.43607C74.5035 7.20868 74.688 7.02485 74.9152 7.02551L77.565 7.03218C77.7922 7.03285 77.976 7.21735 77.9753 7.44474L77.9364 10.4222C77.9358 10.6494 78.1196 10.8454 78.347 10.8461H82.1936C82.4212 10.8465 82.605 11.0295 82.6044 11.2566Z" fill="white"/>
<path fill-rule="evenodd" clip-rule="evenodd" d="M28.1622 11.2566L28.1879 13.5517C28.1873 13.7789 28.0026 13.9578 27.7754 13.9571H23.9284C23.7012 13.9567 23.5165 14.1356 23.5158 14.3628L23.5051 18.6617C23.5034 19.4251 23.6765 19.9814 24.0268 20.3328C24.3763 20.6849 24.8437 20.8608 25.429 20.8621C26.0249 20.8637 26.7073 20.6574 27.4762 20.2446C27.6834 20.1332 27.9419 20.2206 28.0415 20.4338L28.971 22.4232C29.0595 22.6126 28.9919 22.8386 28.8143 22.9487C27.5784 23.7155 26.2565 24.0972 24.8491 24.0937C23.2611 24.0899 22.0603 23.6482 21.2468 22.7677C20.4319 21.887 20.0278 20.6091 20.032 18.9329L20.0607 7.43607C20.0611 7.20868 20.2458 7.02485 20.473 7.02551L23.1228 7.03218C23.35 7.03285 23.5336 7.21735 23.5331 7.44474L23.4942 10.4222C23.4936 10.6494 23.6774 10.8454 23.9046 10.8461H27.7516C27.979 10.8465 28.1626 11.0295 28.1622 11.2566Z" fill="white"/>
<path fill-rule="evenodd" clip-rule="evenodd" d="M12.268 1.93719C9.69528 -0.6415 5.51927 -0.64639 2.94058 1.92652C0.361895 4.49921 0.357227 8.67521 2.92991 11.2539C5.5026 13.8326 9.67861 13.8373 12.2573 11.2646C14.836 8.69188 14.8407 4.51588 12.268 1.93719Z" fill="white"/>
<path fill-rule="evenodd" clip-rule="evenodd" d="M1.22435 14.2599C1.29326 14.0012 1.56133 13.8481 1.82473 13.9107C5.14384 14.6874 10.0647 14.7016 13.3967 13.9447C13.6608 13.8847 13.9275 14.0383 13.9951 14.2975C13.9944 14.2982 13.994 14.2991 13.9933 14.3C13.9955 14.3066 13.9989 14.3126 14.0004 14.3191C14.3939 15.8822 14.7866 17.445 15.179 19.0083C15.245 19.2677 15.0345 19.5458 14.7077 19.6212C13.7341 19.8461 12.7528 20.0233 11.7665 20.1529C11.4373 20.1958 11.193 20.4407 11.2215 20.7074C11.3184 21.5817 11.4151 22.4564 11.5118 23.331C11.542 23.5978 11.2666 23.8469 10.8958 23.881C8.69079 24.0866 6.47108 24.0801 4.26716 23.8616C3.89662 23.8241 3.62277 23.5742 3.65455 23.3077C3.75636 22.4335 3.85816 21.5599 3.96019 20.6861C3.9902 20.4196 3.74747 20.1731 3.41827 20.1282C2.43289 19.9928 1.45263 19.8101 0.480372 19.5794C0.154063 19.502 -0.0548819 19.2228 0.0126917 18.9639C0.414132 17.403 0.821797 15.8206 1.22435 14.2599Z" fill="white"/>
</svg>
