<svg preserveAspectRatio="none" width="100%" height="100%" overflow="visible" style="display: block;" viewBox="0 0 20 17.9963" fill="none" xmlns="http://www.w3.org/2000/svg">
<g id=" ">
<path id="Icon" fill-rule="evenodd" clip-rule="evenodd" d="M19 12C19.5128 12 19.9355 12.386 19.9933 12.8834L20 13V16.9963C20 17.5092 19.614 17.9319 19.1166 17.9896L19 17.9963H1C0.487164 17.9963 0.0644928 17.6103 0.0067277 17.113L0 16.9963V13C0 12.4477 0.447715 12 1 12C1.51284 12 1.93551 12.386 1.99327 12.8834L2 13V15.996H18V13C18 12.4872 18.386 12.0645 18.8834 12.0067L19 12ZM9.47064 0.213817C9.83839 -0.0752669 10.3574 -0.070779 10.7201 0.224621L15.6315 4.22462C16.0597 4.57339 16.1242 5.20327 15.7754 5.6315L15.6901 5.72384C15.3309 6.06719 14.7638 6.09732 14.3685 5.77538L11 3.032L11 13C11 13.5523 10.5523 14 10 14L9.88338 13.9933C9.38605 13.9355 9.00001 13.5128 9.00001 13L8.99996 3.127L5.618 5.78618C5.1838 6.12749 4.55513 6.05219 4.21382 5.61799C3.87251 5.1838 3.94782 4.55512 4.38201 4.21382L9.47064 0.213817Z" fill="var(--fill-0, #555555)"/>
</g>
</svg>
