<svg preserveAspectRatio="none" width="100%" height="100%" overflow="visible" style="display: block;" viewBox="0 0 18 18" fill="none" xmlns="http://www.w3.org/2000/svg">
<g id=" ">
<path id="Icon" fill-rule="evenodd" clip-rule="evenodd" d="M1 12.0081C1.51284 12.0081 1.93551 12.3941 1.99327 12.8915L2 13.0081V14.9877C2 15.5087 2.38572 15.935 2.87912 15.9932L2.99476 16H5C5.55228 16 6 16.4477 6 17C6 17.5128 5.61396 17.9355 5.11662 17.9933L5 18H2.99476C1.39798 18 0.0960356 16.7442 0.00507665 15.1645L0 14.9877V13.0081C0 12.4558 0.447715 12.0081 1 12.0081ZM17 11.9718C17.5128 11.9718 17.9355 12.3578 17.9933 12.8552L18 12.9718V14.9716C18 16.5676 16.7507 17.8714 15.1762 17.9625L15 17.9676H13.0004C12.4481 17.9676 12.0004 17.5199 12.0004 16.9676C12.0004 16.4548 12.3864 16.0321 12.8837 15.9743L13.0004 15.9676H15C15.5133 15.9676 15.9356 15.5827 15.9933 15.0877L16 14.9716V12.9718C16 12.4195 16.4477 11.9718 17 11.9718ZM7 10C7.55228 10 8 10.4477 8 11V13C8 13.5523 7.55228 14 7 14H5C4.44772 14 4 13.5523 4 13V11C4 10.4477 4.44772 10 5 10H7ZM13 10C13.5523 10 14 10.4477 14 11V13C14 13.5523 13.5523 14 13 14H11C10.4477 14 10 13.5523 10 13V11C10 10.4477 10.4477 10 11 10H13ZM6 4C7.10457 4 8 4.89543 8 6C8 7.10457 7.10457 8 6 8C4.89543 8 4 7.10457 4 6C4 4.89543 4.89543 4 6 4ZM13 4C13.5523 4 14 4.44772 14 5V7C14 7.55228 13.5523 8 13 8H11C10.4477 8 10 7.55228 10 7V5C10 4.44772 10.4477 4 11 4H13ZM14.9912 0C16.5926 0 17.9033 1.24782 17.9949 2.82328L18 2.99963V5C18 5.55228 17.5523 6 17 6C16.4872 6 16.0645 5.61396 16.0067 5.11662L16 5V2.99963C16 2.48794 15.6115 2.0646 15.1091 2.00674L14.9912 2H13C12.4477 2 12 1.55228 12 1C12 0.487164 12.386 0.0644928 12.8834 0.0067277L13 0H14.9912ZM5 0C5.55228 0 6 0.447715 6 1C6 1.55228 5.55228 2 5 2H2.99738C2.44535 2 2 2.44298 2 2.98673V4.9919C2 5.54418 1.55228 5.9919 1 5.9919C0.447715 5.9919 0 5.54418 0 4.9919V2.98673C0 1.33601 1.34316 0 2.99738 0H5Z" fill="var(--fill-0, #555555)"/>
</g>
</svg>
