<svg preserveAspectRatio="none" width="100%" height="100%" overflow="visible" style="display: block;" viewBox="0 0 18 18" fill="none" xmlns="http://www.w3.org/2000/svg">
<g id=" ">
<path id="Icon" fill-rule="evenodd" clip-rule="evenodd" d="M17 8C17.5523 8 18 8.44772 18 9C18 13.9706 13.9706 18 9 18C6.73623 18 4.61705 17.157 2.99872 15.7083L3 16C3 16.5523 2.55228 17 2 17C1.44772 17 1 16.5523 1 16V13C1 12.4477 1.44772 12 2 12H5C5.55228 12 6 12.4477 6 13C6 13.5523 5.55228 14 5 14L4.10092 14.001C5.38562 15.2603 7.12873 16 9 16C12.866 16 16 12.866 16 9C16 8.44772 16.4477 8 17 8ZM9 0C11.2645 0 13.3833 0.843688 15.0008 2.29122L15 2C15 1.44772 15.4477 1 16 1C16.5523 1 17 1.44772 17 2V5C17 5.55228 16.5523 6 16 6H13C12.4477 6 12 5.55228 12 5C12 4.44772 12.4477 4 13 4L13.9008 4.00057C12.6167 2.74111 10.8729 2 9 2C5.13401 2 2 5.13401 2 9C2 9.55228 1.55228 10 1 10C0.447715 10 0 9.55228 0 9C0 4.02944 4.02944 0 9 0Z" fill="var(--fill-0, #555555)"/>
</g>
</svg>
