<svg preserveAspectRatio="none" width="100%" height="100%" overflow="visible" style="display: block;" viewBox="0 0 17.0711 16" fill="none" xmlns="http://www.w3.org/2000/svg">
<g id="Icon">
<path id="Combined-Shape" fill-rule="evenodd" clip-rule="evenodd" d="M10 0C10.5523 0 11 0.447715 11 1C11 1.51284 10.614 1.93551 10.1166 1.99327L10 2H3C2.48716 2 2.06449 2.38604 2.00673 2.88338L2 3V13C2 13.5128 2.38604 13.9355 2.88338 13.9933L3 14H10C10.5523 14 11 14.4477 11 15C11 15.5128 10.614 15.9355 10.1166 15.9933L10 16H3C1.40232 16 0.0963391 14.7511 0.00509269 13.1763L0 13V3C0 1.40232 1.24892 0.0963391 2.82373 0.00509269L3 0H10ZM13.1554 3.71519L13.2426 3.79289L16.7782 7.32843C17.1408 7.69106 17.1667 8.2629 16.8559 8.65542L16.7782 8.74264L13.2426 12.2782C12.8521 12.6687 12.219 12.6687 11.8284 12.2782C11.4658 11.9155 11.4399 11.3437 11.7507 10.9512L11.8284 10.864L13.691 9H8C7.44772 9 7 8.55228 7 8C7 7.48716 7.38604 7.06449 7.88338 7.00673L8 7H13.621L11.8284 5.20711C11.4658 4.84448 11.4399 4.27263 11.7507 3.88011L11.8284 3.79289C12.1911 3.43026 12.7629 3.40436 13.1554 3.71519Z" fill="var(--fill-0, #555555)"/>
</g>
</svg>
