<svg preserveAspectRatio="none" width="100%" height="100%" overflow="visible" style="display: block;" viewBox="0 0 24 24" fill="none" xmlns="http://www.w3.org/2000/svg">
<g id="Icon">
<g id="Rectangle">
</g>
<path id="Combined-Shape" d="M15 13.5C16.1046 13.5 17 14.3954 17 15.5V17.5C17 18.6046 16.1046 19.5 15 19.5H9C7.89543 19.5 7 18.6046 7 17.5V15.5C7 14.3954 7.89543 13.5 9 13.5H15ZM14 17H10C9.72386 17 9.5 17.2239 9.5 17.5C9.5 17.7761 9.72386 18 10 18H14C14.2761 18 14.5 17.7761 14.5 17.5C14.5 17.2239 14.2761 17 14 17ZM20 8.5C20.5523 8.5 21 8.94772 21 9.5V15.5C21 16.0523 20.5523 16.5 20 16.5H18V13.5C18 12.9477 17.5523 12.5 17 12.5H7C6.44772 12.5 6 12.9477 6 13.5V16.5H4C3.44772 16.5 3 16.0523 3 15.5V9.5C3 8.94772 3.44772 8.5 4 8.5H20ZM11 15H10C9.72386 15 9.5 15.2239 9.5 15.5C9.5 15.7761 9.72386 16 10 16H11C11.2761 16 11.5 15.7761 11.5 15.5C11.5 15.2239 11.2761 15 11 15ZM17 5C17.6667 5 18 5.33333 18 6V7.5H6V6C6 5.33333 6.33333 5 7 5H17Z" fill="var(--fill-0, #555555)"/>
</g>
</svg>
