<svg preserveAspectRatio="none" width="100%" height="100%" overflow="visible" style="display: block;" viewBox="0 0 16 16" fill="none" xmlns="http://www.w3.org/2000/svg">
<g id=" ">
<path id="Icon" fill-rule="evenodd" clip-rule="evenodd" d="M4 0C4.74025 0 5.38657 0.402166 5.73239 0.999928L15 1C15.5523 1 16 1.44772 16 2C16 2.51284 15.614 2.93551 15.1166 2.99327L15 3L5.73181 3.00108C5.38585 3.59828 4.73984 4 4 4C3.26016 4 2.61415 3.59828 2.26819 3.00108L1 3C0.447715 3 0 2.55228 0 2C0 1.48716 0.38604 1.06449 0.883379 1.00673L1 1L2.26761 0.999928C2.61343 0.402166 3.25975 0 4 0ZM12 6C12.7403 6 13.3866 6.40217 13.7324 6.99993L15 7C15.5523 7 16 7.44772 16 8C16 8.51284 15.614 8.93551 15.1166 8.99327L15 9L13.7318 9.00108C13.3858 9.59828 12.7398 10 12 10C11.2602 10 10.6142 9.59828 10.2682 9.00108L1 9C0.447715 9 0 8.55228 0 8C0 7.48716 0.38604 7.06449 0.883379 7.00673L1 7L10.2676 6.99993C10.6134 6.40217 11.2597 6 12 6ZM6 12C6.74025 12 7.38657 12.4022 7.73239 12.9999L15 13C15.5523 13 16 13.4477 16 14C16 14.5128 15.614 14.9355 15.1166 14.9933L15 15L7.73181 15.0011C7.38585 15.5983 6.73984 16 6 16C5.26016 16 4.61415 15.5983 4.26819 15.0011L1 15C0.447715 15 0 14.5523 0 14C0 13.4872 0.38604 13.0645 0.883379 13.0067L1 13L4.26761 12.9999C4.61343 12.4022 5.25975 12 6 12Z" fill="var(--fill-0, #555555)"/>
</g>
</svg>
