<svg preserveAspectRatio="none" width="100%" height="100%" overflow="visible" style="display: block;" viewBox="0 0 17 17.6936" fill="none" xmlns="http://www.w3.org/2000/svg">
<g id=" ">
<path id="Icon" fill-rule="evenodd" clip-rule="evenodd" d="M8 0C12.4183 0 16 3.58172 16 8C16 10.0557 15.2247 11.9302 13.9505 13.3472L16.6916 15.9713C17.0905 16.3533 17.1042 16.9863 16.7223 17.3852C16.3403 17.7841 15.7073 17.7978 15.3084 17.4159L12.4323 14.661C11.1635 15.5069 9.63934 16 8 16C3.58172 16 0 12.4183 0 8C0 3.58172 3.58172 0 8 0ZM8 2C4.68629 2 2 4.68629 2 8C2 11.3137 4.68629 14 8 14C11.3137 14 14 11.3137 14 8C14 4.68629 11.3137 2 8 2Z" fill="var(--fill-0, #555555)"/>
</g>
</svg>
