<svg preserveAspectRatio="none" width="100%" height="100%" overflow="visible" style="display: block;" viewBox="0 0 18 19" fill="none" xmlns="http://www.w3.org/2000/svg">
<g id=" ">
<path id="Icon" fill-rule="evenodd" clip-rule="evenodd" d="M12.5 8C15.5376 8 18 10.4624 18 13.5C18 16.5376 15.5376 19 12.5 19C9.46243 19 7 16.5376 7 13.5C7 10.4624 9.46243 8 12.5 8ZM9.92331 13.0462C9.68952 13.0462 9.5 13.2467 9.5 13.4942C9.5 15.226 10.8267 16.6299 12.4632 16.6299C13.1455 16.6299 13.7918 16.3843 14.3101 15.9465L14.1683 16.4063C14.1068 16.6076 14.2112 16.822 14.4051 16.9156L14.473 16.9421C14.6859 17.0072 14.9074 16.9144 14.9995 16.7322L15.0251 16.6683L15.5205 15.048C15.582 14.8468 15.4777 14.6324 15.2837 14.5387L15.2159 14.5122L13.5023 13.9883C13.2657 13.916 13.0185 14.0386 12.9501 14.2621C12.8886 14.4634 12.9929 14.6778 13.1869 14.7714L13.2548 14.7979L14.015 15.03L13.957 15.081C13.5626 15.4968 13.0311 15.734 12.4632 15.734C11.2942 15.734 10.3466 14.7312 10.3466 13.4942C10.3466 13.2467 10.1571 13.0462 9.92331 13.0462ZM0 11C1.2199 11.6104 3.27876 11.9413 6.17659 11.9929C6.06084 12.4761 6 12.9809 6 13.5C6 14.0126 6.05934 14.5114 6.17154 14.9898C2.69617 14.9018 0 14.2684 0 13.5V11ZM10.0926 10C9.85885 10 9.66932 10.2006 9.66932 10.448V12.2398L9.67486 12.3125C9.70767 12.5254 9.88223 12.6878 10.0926 12.6878H11.787L11.8556 12.6819C12.0568 12.6472 12.2103 12.4625 12.2103 12.2398L12.2047 12.1672C12.1719 11.9543 11.9974 11.7919 11.787 11.7919L11.0887 11.7908C11.4677 11.4476 11.9506 11.2543 12.4632 11.2543C13.6321 11.2543 14.5797 12.2571 14.5797 13.4942C14.5797 13.7416 14.7693 13.9421 15.003 13.9421C15.2368 13.9421 15.4264 13.7416 15.4264 13.4942C15.4264 11.7623 14.0997 10.3584 12.4632 10.3584C11.7355 10.3584 11.0488 10.6377 10.5149 11.1314L10.5159 10.448L10.5104 10.3753C10.4776 10.1625 10.303 10 10.0926 10ZM0 7C1.33244 7.66667 3.66577 8 7 8L9.03498 7.99958C7.91026 8.70959 7.01846 9.75504 6.50008 10.9954C2.86723 10.9413 0 10.2924 0 9.5V7ZM14 3V5.5C14 6.32843 10.866 7 7 7C3.13401 7 0 6.32843 0 5.5V3C1.33244 3.66667 3.66577 4 7 4C10.3342 4 12.6676 3.66667 14 3ZM7 0C10.866 0 14 0.671573 14 1.5C14 2.32843 10.866 3 7 3C3.13401 3 0 2.32843 0 1.5C0 0.671573 3.13401 0 7 0Z" fill="var(--fill-0, #555555)"/>
</g>
</svg>
