<svg preserveAspectRatio="none" width="100%" height="100%" overflow="visible" style="display: block;" viewBox="0 0 18 14" fill="none" xmlns="http://www.w3.org/2000/svg">
<g id=" ">
<path id="Icon" fill-rule="evenodd" clip-rule="evenodd" d="M17 0C17.5523 0 18 0.447715 18 1C18 1.51284 17.614 1.93551 17.1166 1.99327L17 2H1C0.447715 2 0 1.55228 0 1C0 0.487164 0.38604 0.0644928 0.883379 0.0067277L1 0H17ZM14 6C14.5523 6 15 6.44772 15 7C15 7.51284 14.614 7.93551 14.1166 7.99327L14 8H4C3.44772 8 3 7.55228 3 7C3 6.48716 3.38604 6.06449 3.88338 6.00673L4 6H14ZM11 12C11.5523 12 12 12.4477 12 13C12 13.5128 11.614 13.9355 11.1166 13.9933L11 14H7C6.44772 14 6 13.5523 6 13C6 12.4872 6.38604 12.0645 6.88338 12.0067L7 12H11Z" fill="var(--fill-0, #555555)"/>
</g>
</svg>
