<svg preserveAspectRatio="none" width="100%" height="100%" overflow="visible" style="display: block;" viewBox="0 0 22.6274 22.6274" fill="none" xmlns="http://www.w3.org/2000/svg">
<g id=" ">
<path id="Icon" fill-rule="evenodd" clip-rule="evenodd" d="M16.9706 5.65685C17.3611 6.04738 17.3611 6.68054 16.9706 7.07107L12.7279 11.3123L16.9706 15.5563C17.3332 15.919 17.3591 16.4908 17.0483 16.8833L16.9706 16.9706C16.58 17.3611 15.9469 17.3611 15.5563 16.9706L11.313 12.7272L7.07107 16.9706C6.70844 17.3332 6.13659 17.3591 5.74407 17.0483L5.65685 16.9706C5.26633 16.58 5.26633 15.9469 5.65685 15.5563L9.89879 11.313L5.65685 7.07107C5.29422 6.70844 5.26832 6.13659 5.57915 5.74407L5.65685 5.65685C6.04738 5.26633 6.68054 5.26633 7.07107 5.65685L11.313 9.89879L15.5563 5.65685C15.919 5.29422 16.4908 5.26832 16.8833 5.57915L16.9706 5.65685Z" fill="var(--fill-0, #555555)"/>
</g>
</svg>
