<svg preserveAspectRatio="none" width="100%" height="100%" overflow="visible" style="display: block;" viewBox="0 0 20 17.9963" fill="none" xmlns="http://www.w3.org/2000/svg">
<g id=" ">
<path id="Icon" fill-rule="evenodd" clip-rule="evenodd" d="M19 12C19.5128 12 19.9355 12.386 19.9933 12.8834L20 13V16.9963C20 17.5092 19.614 17.9319 19.1166 17.9896L19 17.9963H1C0.487164 17.9963 0.0644928 17.6103 0.0067277 17.113L0 16.9963V13C0 12.4477 0.447715 12 1 12C1.51284 12 1.93551 12.386 1.99327 12.8834L2 13V15.996H18V13C18 12.4872 18.386 12.0645 18.8834 12.0067L19 12ZM10 0C10.5523 0 11 0.447715 11 1L11 10.968L14.3685 8.22462C14.7638 7.90268 15.3309 7.93281 15.6901 8.27616L15.7754 8.3685C16.1242 8.79673 16.0597 9.42661 15.6315 9.77538L10.7201 13.7754C10.3574 14.0708 9.83839 14.0753 9.47064 13.7862L4.38201 9.78618C3.94782 9.44488 3.87251 8.8162 4.21382 8.38201C4.55513 7.94781 5.1838 7.87251 5.618 8.21382L8.99996 10.873L9.00001 1C9.00001 0.487164 9.38605 0.0644928 9.88338 0.0067277L10 0Z" fill="var(--fill-0, #555555)"/>
</g>
</svg>
