<svg preserveAspectRatio="none" width="100%" height="100%" overflow="visible" style="display: block;" viewBox="0 0 16 16.002" fill="none" xmlns="http://www.w3.org/2000/svg">
<g id=" ">
<path id="Icon" fill-rule="evenodd" clip-rule="evenodd" d="M12 1C12 0.447715 11.5523 0 11 0C10.4477 0 10 0.447715 10 1V15C10 15.9396 11.1784 16.3605 11.7737 15.6336L15.7737 10.7488C16.1236 10.3215 16.0609 9.69144 15.6336 9.34154C15.2063 8.99164 14.5762 9.05438 14.2263 9.48168L12 12.2004V1ZM4.00003 3.81131V15.002C4.00003 15.5543 4.44775 16.002 5.00003 16.002C5.55232 16.002 6.00003 15.5543 6.00003 15.002V1.00199C6.00003 0.0613095 4.81931 -0.358975 4.22494 0.37013L0.224944 5.27687C-0.124019 5.70494 -0.0598922 6.33485 0.368176 6.68381C0.796245 7.03277 1.42615 6.96865 1.77512 6.54058L4.00003 3.81131Z" fill="var(--fill-0, #555555)"/>
</g>
</svg>
