<svg preserveAspectRatio="none" width="100%" height="100%" overflow="visible" style="display: block;" viewBox="0 0 18 18" fill="none" xmlns="http://www.w3.org/2000/svg">
<g id=" ">
<path id="Icon" fill-rule="evenodd" clip-rule="evenodd" d="M9.47368 0C9.9969 0 10.4211 0.424151 10.4211 0.947369C10.4211 1.47059 9.9969 1.89474 9.47368 1.89474H2.84211C2.31889 1.89474 1.89474 2.31889 1.89474 2.84211V15.1579C1.89474 15.6811 2.31889 16.1053 2.84211 16.1053H15.1579C15.6811 16.1053 16.1053 15.6811 16.1053 15.1579V8.52632C16.1053 8.0031 16.5294 7.57895 17.0526 7.57895C17.5758 7.57895 18 8.0031 18 8.52632V15.1579C18 16.7275 16.7275 18 15.1579 18H2.84211C1.27245 18 0 16.7275 0 15.1579V2.84211C0 1.27245 1.27245 0 2.84211 0H9.47368ZM13.4679 1.51576C14.2979 0.685795 15.6435 0.685795 16.4735 1.51576C16.4771 1.51932 16.4806 1.5229 16.4841 1.52648C17.3023 2.35641 17.2927 3.69242 16.4628 4.51055L8 12.853L4.16113 13.8157L5.03343 9.95025L13.4679 1.51576Z" fill="var(--fill-0, #555555)"/>
</g>
</svg>
