<svg preserveAspectRatio="none" width="100%" height="100%" overflow="visible" style="display: block;" viewBox="0 0 17 17.6936" fill="none" xmlns="http://www.w3.org/2000/svg">
<g id="Icon">
<path id="Combined-Shape" fill-rule="evenodd" clip-rule="evenodd" d="M9 0C13.4183 0 17 3.58172 17 8C17 12.4183 13.4183 16 9 16C7.36066 16 5.83648 15.5069 4.5677 14.661L1.69162 17.4159C1.29273 17.7978 0.659716 17.7841 0.277743 17.3852C-0.10423 16.9863 -0.0905141 16.3533 0.308378 15.9713L3.04953 13.3472C1.77534 11.9302 1 10.0557 1 8C1 3.58172 4.58172 0 9 0ZM9 2C5.68629 2 3 4.68629 3 8C3 11.3137 5.68629 14 9 14C12.3137 14 15 11.3137 15 8C15 4.68629 12.3137 2 9 2ZM9 8.41667C10.5564 8.41667 12.2306 9.50337 12.2306 10.9257C12.2306 11.1509 12.048 11.3335 11.8228 11.3335H6.16029C5.94252 11.3335 5.76598 11.1569 5.76598 10.9391C5.76598 9.45316 7.43871 8.41667 9 8.41667ZM9 4.66667C9.92047 4.66667 10.6667 5.41286 10.6667 6.33333C10.6667 7.25381 9.92047 8 9 8C8.07953 8 7.33333 7.25381 7.33333 6.33333C7.33333 5.41286 8.07953 4.66667 9 4.66667Z" fill="var(--fill-0, #555555)"/>
</g>
</svg>
