<svg preserveAspectRatio="none" width="100%" height="100%" overflow="visible" style="display: block;" viewBox="0 0 20.221 16.0495" fill="none" xmlns="http://www.w3.org/2000/svg">
<g id=" ">
<path id="Path-34" fill-rule="evenodd" clip-rule="evenodd" d="M13.1812 10.5211L18.1661 3.16818C18.7178 2.35444 18.5053 1.24755 17.6916 0.695876C17.6735 0.683618 17.6552 0.671693 17.6367 0.660108C16.7648 0.114732 15.6172 0.361903 15.0471 1.21787L10.1028 8.64176L10.1782 11.2434C10.1862 11.5194 10.4164 11.7367 10.6925 11.7287C10.7661 11.7265 10.8383 11.7082 10.904 11.6749L13.1812 10.5211Z" fill="var(--fill-0, #555555)"/>
<path id="Path-41" d="M1.34188 6.32749C4.00972 4.9864 5.83374 4.78178 6.6663 6.28864C7.23512 7.31818 6.75321 8.11364 4.32975 11.4156C4.27888 11.4849 4.27888 11.4849 4.22804 11.5541C3.94139 11.9441 3.6977 12.2767 3.4887 12.5641L3.46929 12.5908L3.54875 12.5169C3.69451 12.3773 3.973 12.083 4.2706 11.7668L4.57036 11.4482C4.9177 11.0794 5.23951 10.7412 5.35536 10.6444C6.66229 9.5526 7.57482 10.5575 7.57482 12.1543C7.57482 13.2088 8.3335 13.567 10.6156 13.1603C11.1593 13.0634 11.6786 13.4256 11.7755 13.9694C11.8724 14.5131 11.5102 15.0324 10.9664 15.1293C8.14071 15.6328 6.23672 15.0167 5.71775 13.2392L5.69929 13.1688L5.5927 13.2826C5.38039 13.5074 5.17494 13.7218 5.01916 13.8763L4.93199 13.9614C4.04443 14.8113 3.15204 15.4393 2.15381 15.828C1.25171 16.1792 0.504536 16.1832 0.119669 15.3181C-0.123087 14.7724 0.0209209 14.2949 0.394505 13.6022C0.771971 12.9024 1.15747 12.355 2.61642 10.3697C2.66696 10.3009 2.66696 10.3009 2.71742 10.2322C3.56471 9.07778 4.03845 8.40155 4.39566 7.81192C4.49628 7.64583 4.5808 7.49647 4.64862 7.36564L4.70429 7.25277L4.66628 7.25653L4.56477 7.26694C4.03775 7.32606 3.25189 7.60583 2.24014 8.11442C1.7467 8.36247 1.1456 8.16354 0.897546 7.67009C0.649496 7.17664 0.848429 6.57554 1.34188 6.32749Z" fill="var(--fill-0, #555555)"/>
</g>
</svg>
