<svg preserveAspectRatio="none" width="100%" height="100%" overflow="visible" style="display: block;" viewBox="0 0 18 14" fill="none" xmlns="http://www.w3.org/2000/svg">
<g id=" ">
<path id="Icon" fill-rule="evenodd" clip-rule="evenodd" d="M1 2H13C13.5523 2 14 1.55228 14 1C14 0.447715 13.5523 0 13 0H1C0.447715 0 0 0.447715 0 1C0 1.55228 0.447715 2 1 2ZM1 8H17C17.5523 8 18 7.55228 18 7C18 6.44772 17.5523 6 17 6H1C0.447715 6 0 6.44772 0 7C0 7.55228 0.447715 8 1 8ZM1 14H9C9.55228 14 10 13.5523 10 13C10 12.4477 9.55228 12 9 12H1C0.447715 12 0 12.4477 0 13C0 13.5523 0.447715 14 1 14Z" fill="var(--fill-0, #555555)"/>
</g>
</svg>
