<svg preserveAspectRatio="none" width="100%" height="100%" overflow="visible" style="display: block;" viewBox="0 0 14 10" fill="none" xmlns="http://www.w3.org/2000/svg">
<g id=" ">
<path id="Icon" fill-rule="evenodd" clip-rule="evenodd" d="M1 6H13C13.5523 6 14 5.55228 14 5C14 4.44772 13.5523 4 13 4H1C0.447715 4 0 4.44772 0 5C0 5.55228 0.447715 6 1 6ZM1 10H13C13.5523 10 14 9.55228 14 9C14 8.44772 13.5523 8 13 8H1C0.447715 8 0 8.44772 0 9C0 9.55228 0.447715 10 1 10ZM1 2H13C13.5523 2 14 1.55228 14 1C14 0.447715 13.5523 0 13 0H1C0.447715 0 0 0.447715 0 1C0 1.55228 0.447715 2 1 2Z" fill="var(--fill-0, #555555)"/>
</g>
</svg>
