<svg preserveAspectRatio="none" width="100%" height="100%" overflow="visible" style="display: block;" viewBox="0 0 16 18" fill="none" xmlns="http://www.w3.org/2000/svg">
<g id=" ">
<path id="Icon" fill-rule="evenodd" clip-rule="evenodd" d="M16 2.5V3.5C16 3.77614 15.7761 4 15.5 4H0.5C0.223858 4 0 3.77614 0 3.5V2.5C0 2.22386 0.223858 2 0.5 2H5V1C5 0.447715 5.44772 0 6 0H10C10.5523 0 11 0.447715 11 1V2H15.5C15.7761 2 16 2.22386 16 2.5ZM2 16.0132C2.07365 17.0628 2.81787 18.0026 3.87 18H12.15C13.2021 18.0026 14.0764 17.0628 14.15 16.0132V5H2V16.0132Z" fill="var(--fill-0, #555555)"/>
</g>
</svg>
