<svg preserveAspectRatio="none" width="100%" height="100%" overflow="visible" style="display: block;" viewBox="0 0 16 15" fill="none" xmlns="http://www.w3.org/2000/svg">
<g id=" ">
<path id="Icon" fill-rule="evenodd" clip-rule="evenodd" d="M12 0C12.5523 0 13 0.447715 13 1H14C15.1046 1 16 1.89543 16 3C16 4.10457 15.1046 5 14 5H13C13 7.41854 11.2828 9.43601 9.00119 9.89974L9 13H10C10.5523 13 11 13.4477 11 14V15H5V14C5 13.4477 5.44772 13 6 13H7L6.99981 9.89994C4.71767 9.4366 3 7.41889 3 5H2C0.89543 5 0 4.10457 0 3C0 1.89543 0.89543 1 2 1H3C3 0.447715 3.44772 0 4 0H12ZM8 3L7.38947 4.15968L6.09789 4.38197L7.01215 5.32097L6.82443 6.61803L8 6.03869L9.17557 6.61803L8.98785 5.32097L9.90211 4.38197L8.61053 4.15968L8 3ZM3 2H2C1.44772 2 1 2.44772 1 3C1 3.55228 1.44772 4 2 4H3V2ZM14 2H13V4H14C14.5128 4 14.9355 3.61396 14.9933 3.11662L15 3C15 2.44772 14.5523 2 14 2Z" fill="var(--fill-0, #555555)"/>
</g>
</svg>
