<svg preserveAspectRatio="none" width="100%" height="100%" overflow="visible" style="display: block;" viewBox="0 0 19.75 16" fill="none" xmlns="http://www.w3.org/2000/svg">
<g id=" ">
<path id="Icon" fill-rule="evenodd" clip-rule="evenodd" d="M11.75 0C16.1683 0 19.75 3.58172 19.75 8C19.75 12.4183 16.1683 16 11.75 16C9.59146 16 7.56676 15.1398 6.07536 13.639C5.68606 13.2473 5.68804 12.6141 6.07979 12.2248C6.47153 11.8355 7.1047 11.8375 7.494 12.2292C8.6137 13.356 10.1295 14 11.75 14C15.0637 14 17.75 11.3137 17.75 8C17.75 4.68629 15.0637 2 11.75 2C10.1252 2 8.60564 2.64751 7.48525 3.77958C7.09676 4.17213 6.4636 4.17541 6.07105 3.78692C5.67851 3.39843 5.67523 2.76527 6.06372 2.37273C7.55603 0.864855 9.58568 0 11.75 0ZM4.2802 4.4751C4.57317 4.76792 4.57328 5.24279 4.28046 5.53576L2.556 7.26L6.75 7.26085C7.16421 7.26085 7.5 7.59664 7.5 8.01085C7.5 8.42506 7.16421 8.76085 6.75 8.76085L2.564 8.76L4.2802 10.4751C4.57317 10.7679 4.57328 11.2428 4.28046 11.5358C3.98764 11.8287 3.51276 11.8288 3.2198 11.536L0.219798 8.53746C-0.0731661 8.24464 -0.0732805 7.76976 0.219542 7.4768L3.21954 4.47535C3.51236 4.18239 3.98724 4.18227 4.2802 4.4751ZM13.5491 7.01491C14.2558 7.01491 14.75 7.63926 14.75 8.39911C14.75 9.16428 14.2558 9.78864 13.5518 9.78864C13.2462 9.78864 13.0284 9.68502 12.8743 9.53092V10.7823H11.9284V7.08664H12.8344V7.3231C12.9912 7.14244 13.217 7.01491 13.5491 7.01491ZM10.4079 6C11.3537 6 11.8505 6.48886 11.8505 7.23808C11.8505 7.81196 11.5184 8.22376 10.8887 8.35395L11.901 9.71956H10.7107L9.81539 8.39911H9.75959V9.71956H8.75V6H10.4079ZM13.3073 7.89432C13.0363 7.89432 12.8397 8.10686 12.8397 8.40177C12.8397 8.69668 13.0363 8.90923 13.3073 8.90923C13.5783 8.90923 13.7749 8.69668 13.7749 8.40177C13.7749 8.10686 13.5783 7.89432 13.3073 7.89432ZM10.3972 6.90598H9.75959V7.56753H10.3972C10.647 7.56753 10.8303 7.46391 10.8303 7.23808C10.8303 7.01225 10.647 6.90598 10.3972 6.90598Z" fill="var(--fill-0, #555555)"/>
</g>
</svg>
