<svg preserveAspectRatio="none" width="100%" height="100%" overflow="visible" style="display: block;" viewBox="0 0 18 16" fill="none" xmlns="http://www.w3.org/2000/svg">
<g id=" ">
<path id="Icon" fill-rule="evenodd" clip-rule="evenodd" d="M16 0C17.1046 0 18 0.89543 18 2V14C18 15.1046 17.1046 16 16 16H2C0.89543 16 0 15.1046 0 14V2C0 0.89543 0.89543 0 2 0H16ZM15 12H13C12.4477 12 12 12.4477 12 13C12 13.5523 12.4477 14 13 14H15C15.5523 14 16 13.5523 16 13C16 12.4477 15.5523 12 15 12ZM15 8H3C2.44772 8 2 8.44772 2 9C2 9.55228 2.44772 10 3 10H15C15.5523 10 16 9.55228 16 9C16 8.44772 15.5523 8 15 8ZM7 5H3C2.44772 5 2 5.44772 2 6C2 6.55228 2.44772 7 3 7H7C7.55228 7 8 6.55228 8 6C8 5.44772 7.55228 5 7 5ZM15 5H11C10.4477 5 10 5.44772 10 6C10 6.55228 10.4477 7 11 7H15C15.5523 7 16 6.55228 16 6C16 5.44772 15.5523 5 15 5ZM3.5 2H2.5C2.22386 2 2 2.22386 2 2.5C2 2.77614 2.22386 3 2.5 3H3.5C3.77614 3 4 2.77614 4 2.5C4 2.22386 3.77614 2 3.5 2ZM6.5 2H5.5C5.22386 2 5 2.22386 5 2.5C5 2.77614 5.22386 3 5.5 3H6.5C6.77614 3 7 2.77614 7 2.5C7 2.22386 6.77614 2 6.5 2ZM9.5 2H8.5C8.22386 2 8 2.22386 8 2.5C8 2.77614 8.22386 3 8.5 3H9.5C9.77614 3 10 2.77614 10 2.5C10 2.22386 9.77614 2 9.5 2Z" fill="var(--fill-0, #555555)"/>
</g>
</svg>
