<svg preserveAspectRatio="none" width="100%" height="100%" overflow="visible" style="display: block;" viewBox="0 0 19.6508 16" fill="none" xmlns="http://www.w3.org/2000/svg">
<g id=" ">
<path id="Icon" fill-rule="evenodd" clip-rule="evenodd" d="M11.6508 0C16.069 0 19.6508 3.58172 19.6508 8C19.6508 12.4183 16.069 16 11.6508 16C9.49222 16 7.46751 15.1398 5.97612 13.639C5.58682 13.2473 5.5888 12.6141 5.98055 12.2248C6.37229 11.8355 7.00545 11.8375 7.39475 12.2292C8.51445 13.356 10.0303 14 11.6508 14C14.9645 14 17.6508 11.3137 17.6508 8C17.6508 4.68629 14.9645 2 11.6508 2C10.026 2 8.5064 2.64751 7.38601 3.77958C6.99751 4.17213 6.36436 4.17541 5.97181 3.78692C5.57927 3.39843 5.57598 2.76527 5.96448 2.37273C7.45678 0.864855 9.48644 0 11.6508 0ZM3.12055 4.4751C3.41352 4.18227 3.88839 4.18239 4.18121 4.47535L7.18122 7.4768C7.29855 7.59419 7.36885 7.74079 7.39212 7.89319C7.3976 7.93128 7.40076 7.9707 7.40076 8.01085L7.39645 7.9265C7.39842 7.94487 7.39972 7.96331 7.40033 7.98176L7.40076 8.01085C7.40076 8.02066 7.40057 8.03043 7.4002 8.04016C7.39946 8.05326 7.3985 8.06693 7.39716 8.08058C7.39554 8.10233 7.39268 8.12331 7.38898 8.14399C7.38602 8.15589 7.38342 8.16826 7.3805 8.18057C7.37595 8.20439 7.36939 8.2275 7.36178 8.25013C7.35803 8.25718 7.3554 8.26451 7.35265 8.27181C7.30973 8.39117 7.23617 8.49587 7.14208 8.57752L4.18096 11.536C3.88799 11.8288 3.41312 11.8287 3.1203 11.5358C2.82748 11.2428 2.82759 10.7679 3.12055 10.4751L4.836 8.76L0.75 8.76085C0.370304 8.76085 0.0565091 8.4787 0.00684667 8.11262L0 8.01085C0 7.59664 0.335786 7.26085 0.75 7.26085L4.844 7.26L3.1203 5.53576C2.8541 5.26943 2.82999 4.85276 3.04792 4.5592L3.12055 4.4751ZM13.4499 7.01491C14.1566 7.01491 14.6508 7.63926 14.6508 8.39911C14.6508 9.16428 14.1566 9.78864 13.4525 9.78864C13.147 9.78864 12.9291 9.68502 12.775 9.53092V10.7823H11.8292V7.08664H12.7352V7.3231C12.8919 7.14244 13.1178 7.01491 13.4499 7.01491ZM10.3086 6C11.2544 6 11.7513 6.48886 11.7513 7.23808C11.7513 7.81196 11.4192 8.22376 10.7895 8.35395L11.8018 9.71956H10.6115L9.71614 8.39911H9.66035V9.71956H8.65076V6H10.3086ZM13.2081 7.89432C12.9371 7.89432 12.7405 8.10686 12.7405 8.40177C12.7405 8.69668 12.9371 8.90923 13.2081 8.90923C13.4791 8.90923 13.6757 8.69668 13.6757 8.40177C13.6757 8.10686 13.4791 7.89432 13.2081 7.89432ZM10.298 6.90598H9.66035V7.56753H10.298C10.5477 7.56753 10.7311 7.46391 10.7311 7.23808C10.7311 7.01225 10.5477 6.90598 10.298 6.90598Z" fill="var(--fill-0, #555555)"/>
</g>
</svg>
