<svg preserveAspectRatio="none" width="100%" height="100%" overflow="visible" style="display: block;" viewBox="0 0 18 20" fill="none" xmlns="http://www.w3.org/2000/svg">
<g id="Icon">
<path id="Combined-Shape" d="M1.08107 13.0097C3.04748 13.5462 5.96287 13.556 7.93692 13.0332C8.09337 12.9917 8.2514 13.0978 8.29144 13.2768C8.2917 13.2831 8.29368 13.2873 8.2946 13.2917C8.52769 14.3715 8.76039 15.451 8.99283 16.5309C9.03194 16.7101 8.90723 16.9022 8.71364 16.9542C8.13683 17.1096 7.55541 17.232 6.9711 17.3215C6.77606 17.3511 6.63134 17.5203 6.64819 17.7046L6.82018 19.5169C6.83809 19.7011 6.67492 19.8732 6.45526 19.8967C5.14888 20.0387 3.83381 20.0343 2.52809 19.8834C2.30856 19.8574 2.14632 19.6848 2.16515 19.5007C2.22547 18.8968 2.28578 18.2934 2.34623 17.6898C2.36401 17.5057 2.2202 17.3355 2.02516 17.3044C1.44138 17.2109 0.860616 17.0847 0.284598 16.9253C0.091275 16.8719 -0.032515 16.6791 0.00751923 16.5002L0.725369 13.2509C0.766194 13.0722 0.925013 12.9664 1.08107 13.0097ZM16.5 0C17.3284 0 18 0.671573 18 1.5V13.5C18 14.3284 17.3284 15 16.5 15L9.87708 15.0004C9.65705 13.9786 9.4368 12.957 9.21622 11.9353C9.2152 11.9303 9.213 11.9257 9.21154 11.9206C9.16823 11.7198 8.99264 11.6019 8.8188 11.648C8.35622 11.7705 7.84712 11.8667 7.31119 11.9366C7.74945 11.7069 8.16209 11.4081 8.53149 11.0396C10.4864 9.08925 10.4899 5.92345 8.53957 3.96857C7.56287 2.98959 6.28135 2.49994 4.99973 2.5L5 1.5C5 0.671573 5.67157 0 6.5 0H16.5ZM1.32166 4.31443C3.08107 2.55898 5.9303 2.56232 7.68562 4.32171C9.44093 6.08111 9.43774 8.93032 7.67834 10.6856C5.91893 12.4409 3.06969 12.4377 1.31438 10.6783C-0.440929 8.91895 -0.437744 6.06973 1.32166 4.31443ZM16.625 7.96458H11.375C11.1679 7.96458 11 8.20443 11 8.50029C11 8.79616 11.1679 9.03601 11.375 9.03601H16.625C16.8321 9.03601 17 8.79616 17 8.50029C17 8.20443 16.8321 7.96458 16.625 7.96458ZM16.625 4.96458H11.375C11.1679 4.96458 11 5.20443 11 5.50029C11 5.79616 11.1679 6.03601 11.375 6.03601H16.625C16.8321 6.03601 17 5.79616 17 5.50029C17 5.20443 16.8321 4.96458 16.625 4.96458ZM16.625 1.96458H11.375C11.1679 1.96458 11 2.20443 11 2.50029C11 2.79616 11.1679 3.03601 11.375 3.03601H16.625C16.8321 3.03601 17 2.79616 17 2.50029C17 2.20443 16.8321 1.96458 16.625 1.96458Z" fill="var(--fill-0, #555555)"/>
</g>
</svg>
