<svg preserveAspectRatio="none" width="100%" height="100%" overflow="visible" style="display: block;" viewBox="0 0 18 18" fill="none" xmlns="http://www.w3.org/2000/svg">
<g id="Icon">
<path id="Combined-Shape" fill-rule="evenodd" clip-rule="evenodd" d="M15.7782 0H11.2593C10.0322 0 9.03749 0.992889 9.03749 2.22185V5.43521L7.44846 7.55392C7.32857 7.71364 7.30934 7.92746 7.39861 8.10612C7.48801 8.28479 7.67052 8.39767 7.87033 8.39767H15.7782C17.0033 8.39767 18 7.40094 18 6.17583V2.22185C18 0.996735 17.0033 0 15.7782 0ZM13.5187 6.70317C13.2277 6.70317 12.9913 6.46683 12.9913 6.17583C12.9913 5.88469 13.2277 5.64848 13.5187 5.64848C13.8098 5.64848 14.046 5.88469 14.046 6.17583C14.046 6.46683 13.8098 6.70317 13.5187 6.70317ZM13.5187 5.00867C13.2275 5.00867 12.9913 4.77246 12.9913 4.48132C12.9913 4.19005 13.2275 3.95398 13.5187 3.95398C13.8509 3.95398 14.121 3.68372 14.121 3.35165C14.121 3.1907 14.0585 3.03964 13.9448 2.92607C13.8307 2.81181 13.6796 2.74919 13.5187 2.74919C13.1863 2.74919 12.9164 3.01918 12.9164 3.35097C12.9164 3.64224 12.6803 3.87859 12.389 3.87859C12.0979 3.87859 11.8617 3.64279 11.8617 3.35165C11.8617 2.43842 12.6048 1.6945 13.5181 1.6945C13.9617 1.6945 14.3778 1.86713 14.6905 2.18024C15.0033 2.49252 15.1757 2.90877 15.1757 3.35165C15.1758 4.2653 14.4325 5.00867 13.5187 5.00867ZM10.1297 9.60233H2.22185C0.996735 9.60233 0 10.5991 0 11.8242V15.7782C0 17.0033 0.996735 18 2.22185 18H6.74066C7.96783 18 8.96251 17.0071 8.96251 15.7782V12.5648L10.5515 10.4461C10.6714 10.2864 10.6907 10.0725 10.6014 9.89388C10.512 9.71521 10.3295 9.60233 10.1297 9.60233ZM4.48132 15.4582H2.78668C2.49554 15.4582 2.25934 15.2221 2.25934 14.9308C2.25934 14.6396 2.49554 14.4035 2.78668 14.4035H4.48132C4.77246 14.4035 5.00867 14.6396 5.00867 14.9308C5.00867 15.2221 4.77246 15.4582 4.48132 15.4582ZM6.17583 13.1988H2.78668C2.49554 13.1988 2.25934 12.9628 2.25934 12.6715C2.25934 12.3802 2.49554 12.1441 2.78668 12.1441H6.17583C6.46696 12.1441 6.70317 12.3802 6.70317 12.6715C6.70317 12.9628 6.46696 13.1988 6.17583 13.1988ZM0.527481 8.39767H6.17569C6.46696 8.39767 6.70303 8.16161 6.70303 7.87033V7.13425C6.70303 5.28429 5.20422 3.78438 3.35481 3.78273C4.39796 3.78108 5.24309 2.935 5.24309 1.89143C5.24309 0.846909 4.39632 0 3.35165 0C2.30699 0 1.46022 0.846909 1.46022 1.89143C1.46022 2.935 2.30534 3.78108 3.3485 3.78273C1.49895 3.78438 0.000137329 5.28429 0.000137329 7.13425V7.87033C0.000137329 8.16161 0.236206 8.39767 0.527481 8.39767ZM14.6516 13.3851C15.6948 13.3834 16.5399 12.5373 16.5399 11.4938C16.5399 10.4491 15.6931 9.60233 14.6486 9.60233C13.604 9.60233 12.7572 10.4491 12.7572 11.4938C12.7572 12.5373 13.6023 13.3834 14.6455 13.3851C12.7959 13.3867 11.297 14.8865 11.297 16.7364V17.4727C11.297 17.7639 11.5332 18 11.8243 18H17.4727C17.7639 18 18 17.7639 18 17.4727V16.7366C18 14.8866 16.5012 13.3867 14.6516 13.3851Z" fill="var(--fill-0, #555555)"/>
</g>
</svg>
