<svg preserveAspectRatio="none" width="100%" height="100%" overflow="visible" style="display: block;" viewBox="0 0 18 12" fill="none" xmlns="http://www.w3.org/2000/svg">
<g id=" ">
<path id="Icon" fill-rule="evenodd" clip-rule="evenodd" d="M16 0C17.1046 0 18 0.89543 18 2V10C18 11.1046 17.1046 12 16 12H2C0.89543 12 0 11.1046 0 10V2C0 0.89543 0.89543 0 2 0H16ZM16 7.5C14.6193 7.5 13.5 8.61929 13.5 10C13.5 10.2761 13.7239 10.5 14 10.5C14.2761 10.5 14.5 10.2761 14.5 10C14.5 9.17157 15.1716 8.5 16 8.5C16.2761 8.5 16.5 8.27614 16.5 8C16.5 7.72386 16.2761 7.5 16 7.5ZM2 7.5C1.72386 7.5 1.5 7.72386 1.5 8C1.5 8.27614 1.72386 8.5 2 8.5C2.82843 8.5 3.5 9.17157 3.5 10C3.5 10.2761 3.72386 10.5 4 10.5C4.27614 10.5 4.5 10.2761 4.5 10C4.5 8.61929 3.38071 7.5 2 7.5ZM9 4C7.89543 4 7 4.89543 7 6C7 7.10457 7.89543 8 9 8C10.1046 8 11 7.10457 11 6C11 4.89543 10.1046 4 9 4ZM14 1.5C13.7239 1.5 13.5 1.72386 13.5 2C13.5 3.38071 14.6193 4.5 16 4.5C16.2761 4.5 16.5 4.27614 16.5 4C16.5 3.72386 16.2761 3.5 16 3.5C15.1716 3.5 14.5 2.82843 14.5 2C14.5 1.72386 14.2761 1.5 14 1.5ZM4 1.5C3.72386 1.5 3.5 1.72386 3.5 2C3.5 2.82843 2.82843 3.5 2 3.5C1.72386 3.5 1.5 3.72386 1.5 4C1.5 4.27614 1.72386 4.5 2 4.5C3.38071 4.5 4.5 3.38071 4.5 2C4.5 1.72386 4.27614 1.5 4 1.5Z" fill="var(--fill-0, #555555)"/>
</g>
</svg>
