<svg preserveAspectRatio="none" width="100%" height="100%" overflow="visible" style="display: block;" viewBox="0 0 18 18" fill="none" xmlns="http://www.w3.org/2000/svg">
<g id=" ">
<path id="Icon" d="M8.62841 0.0716015C8.86687 -0.0238401 9.13291 -0.0238681 9.37139 0.0715233C11.3058 0.845304 13.2133 1.57095 15.0099 2.2274L16.3999 2.72902L17.3251 3.05431C17.7289 3.19312 18 3.57301 18 4C18 9.63772 15.1444 14.2781 9.53657 17.8439C9.20619 18.0539 8.78361 18.0519 8.45528 17.8386C2.85321 14.1998 0 9.56333 0 4C0 3.57292 0.271226 3.19298 0.675142 3.05424L1.92547 2.61305L2.62118 2.36213L3.89849 1.8935C5.42459 1.32775 7.01744 0.716385 8.62841 0.0716015ZM9 5.00964C8.44772 5.00964 8 5.45736 8 6.00964V7.99964L6 8L5.88338 8.00673C5.38604 8.06449 5 8.48716 5 9C5 9.55228 5.44772 10 6 10L8 9.99964V11.9805L8.00673 12.0971C8.06449 12.5944 8.48716 12.9805 9 12.9805C9.55228 12.9805 10 12.5328 10 11.9805V9.99964L12.0017 10L12.1183 9.99327C12.6157 9.93551 13.0017 9.51284 13.0017 9C13.0017 8.44772 12.554 8 12.0017 8L10 7.99964V6.00964L9.99327 5.89302C9.93551 5.39568 9.51284 5.00964 9 5.00964Z" fill="var(--fill-0, #555555)"/>
</g>
</svg>
