<svg preserveAspectRatio="none" width="100%" height="100%" overflow="visible" style="display: block;" viewBox="0 0 18.8333 16" fill="none" xmlns="http://www.w3.org/2000/svg">
<g id=" ">
<path id="Icon" fill-rule="evenodd" clip-rule="evenodd" d="M10.8333 0C15.2516 0 18.8333 3.58172 18.8333 8C18.8333 12.4183 15.2516 16 10.8333 16C8.67477 16 6.65007 15.1398 5.15867 13.639C4.76937 13.2473 4.77135 12.6141 5.1631 12.2248C5.55484 11.8355 6.18801 11.8375 6.57731 12.2292C7.69701 13.356 9.21286 14 10.8333 14C14.147 14 16.8333 11.3137 16.8333 8C16.8333 4.68629 14.147 2 10.8333 2C9.20853 2 7.68895 2.64751 6.56856 3.77958C6.18007 4.17213 5.54691 4.17541 5.15436 3.78692C4.76182 3.39843 4.75854 2.76527 5.14703 2.37273C6.63934 0.864855 8.66899 0 10.8333 0ZM12.6324 7.01491C13.3391 7.01491 13.8333 7.63926 13.8333 8.39911C13.8333 9.16428 13.3391 9.78864 12.6351 9.78864C12.3295 9.78864 12.1117 9.68502 11.9576 9.53092V10.7823H11.0118V7.08664H11.9177V7.3231C12.0745 7.14244 12.3003 7.01491 12.6324 7.01491ZM9.49117 6C10.437 6 10.9338 6.48886 10.9338 7.23808C10.9338 7.81196 10.6017 8.22376 9.97206 8.35395L10.9843 9.71956H9.79405L8.8987 8.39911H8.8429V9.71956H7.83331V6H9.49117ZM12.3907 7.89432C12.1197 7.89432 11.9231 8.10686 11.9231 8.40177C11.9231 8.69668 12.1197 8.90923 12.3907 8.90923C12.6616 8.90923 12.8583 8.69668 12.8583 8.40177C12.8583 8.10686 12.6616 7.89432 12.3907 7.89432ZM9.48054 6.90598H8.8429V7.56753H9.48054C9.73028 7.56753 9.91361 7.46391 9.91361 7.23808C9.91361 7.01225 9.73028 6.90598 9.48054 6.90598Z" fill="var(--fill-0, #555555)"/>
<path id="Icon_2" fill-rule="evenodd" clip-rule="evenodd" d="M3.07734 7.82803C3.95323 7.82803 4.66327 7.11799 4.66327 6.24211C4.66327 5.36623 3.95323 4.65619 3.07734 4.65619C2.20146 4.65619 1.49142 5.36623 1.49142 6.24211C1.49142 7.11799 2.20146 7.82803 3.07734 7.82803ZM6.15145 10.612C6.15145 9.25857 4.55838 8.22451 3.07734 8.22451C1.5917 8.22451 0 9.21079 0 10.6248C0 10.832 0.167986 11 0.375208 11H5.76341C5.97772 11 6.15145 10.8263 6.15145 10.612Z" fill="var(--fill-0, #555555)"/>
</g>
</svg>
