<svg preserveAspectRatio="none" width="100%" height="100%" overflow="visible" style="display: block;" viewBox="0 0 18 16.0002" fill="none" xmlns="http://www.w3.org/2000/svg">
<g id=" ">
<path id="Icon" fill-rule="evenodd" clip-rule="evenodd" d="M9.53673 0.156238L17.5889 5.27819C17.7043 5.3516 17.7742 5.47891 17.7742 5.61569C17.7742 5.83661 17.5951 6.01569 17.3742 6.01569H16C16 6.56727 15.5529 7.0144 15.0013 7.0144L15 13.004L16.0013 13.0041C16.5135 13.0041 16.9356 13.3896 16.9933 13.8863L17 14.0028C17.5523 14.0028 18 14.4505 18 15.0028V16.0002H0V15.0028C0 14.4505 0.447715 14.0028 1 14.0028C1 13.4512 1.44714 13.0041 1.99871 13.0041L3 13.004V7.014C2.44714 7.0144 2 6.56727 2 6.01569H0.62587C0.489083 6.01569 0.361781 5.9458 0.288365 5.83038C0.169797 5.64398 0.224785 5.39676 0.411183 5.27819L8.4633 0.156238C8.79079 -0.0520793 9.20924 -0.0520793 9.53673 0.156238ZM8 7.014H5V13.004H8V7.014ZM13 7.014H10V13.004H13V7.014ZM9.00002 2.88179C8.40182 2.88179 7.91688 3.34449 7.91688 3.91526C7.91688 4.48604 8.40182 4.94874 9.00002 4.94874C9.59822 4.94874 10.0832 4.48604 10.0832 3.91526C10.0832 3.34449 9.59822 2.88179 9.00002 2.88179Z" fill="var(--fill-0, #555555)"/>
</g>
</svg>
