<svg preserveAspectRatio="none" width="100%" height="100%" overflow="visible" style="display: block;" viewBox="0 0 18 18" fill="none" xmlns="http://www.w3.org/2000/svg">
<g id="Icon">
<path id="Combined-Shape" fill-rule="evenodd" clip-rule="evenodd" d="M13 8C15.7614 8 18 10.2386 18 13C18 15.7614 15.7614 18 13 18C10.2386 18 8 15.7614 8 13C8 10.2386 10.2386 8 13 8ZM11 0C11.5523 0 12 0.447715 12 1V1.999L14 2C15.1046 2 16 2.89543 16 4L16.001 7.80325C15.1182 7.2924 14.0933 7 13 7C9.68629 7 7 9.68629 7 13C7 14.5366 7.57766 15.9384 8.52767 16.9999L2 17C0.89543 17 0 16.1046 0 15V4C0 2.89543 0.89543 2 2 2L4 1.999V1C4 0.487164 4.38604 0.0644928 4.88338 0.00672773L5 0C5.55228 0 6 0.447715 6 1V1.999H10V1C10 0.487164 10.386 0.0644928 10.8834 0.00672773L11 0ZM14.624 11.988C14.488 11.988 14.3653 12.0167 14.256 12.074C14.174 12.117 14.1062 12.1724 14.0527 12.2401L14.004 12.312V12.28C14.004 12.1947 13.9773 12.126 13.924 12.074C13.8707 12.022 13.7987 11.996 13.708 11.996C13.6173 11.996 13.5447 12.022 13.49 12.074C13.449 12.113 13.4234 12.1614 13.4131 12.2191L13.408 12.28V14.464C13.408 14.5467 13.4367 14.6133 13.494 14.664C13.5513 14.7147 13.6267 14.74 13.72 14.74C13.808 14.74 13.8787 14.716 13.932 14.668C13.9676 14.636 13.9913 14.5969 14.0031 14.5507L14.012 14.476V13.72C14.0707 13.8187 14.154 13.8953 14.262 13.95C14.37 14.0047 14.4907 14.032 14.624 14.032C14.7947 14.032 14.9453 13.9907 15.076 13.908C15.2067 13.8253 15.3087 13.7073 15.382 13.554C15.4553 13.4007 15.492 13.2227 15.492 13.02C15.492 12.8173 15.4553 12.638 15.382 12.482C15.3087 12.326 15.206 12.2047 15.074 12.118C14.942 12.0313 14.792 11.988 14.624 11.988ZM11.948 11.18H10.944C10.8507 11.18 10.7787 11.2053 10.728 11.256C10.69 11.294 10.6662 11.344 10.6567 11.406L10.652 11.472V13.712C10.652 13.808 10.68 13.884 10.736 13.94C10.792 13.996 10.868 14.024 10.964 14.024C11.0573 14.024 11.1313 13.996 11.186 13.94C11.227 13.898 11.2526 13.8447 11.2629 13.7802L11.268 13.712V12.904H11.592C11.6693 12.904 11.7333 12.9193 11.784 12.95C11.8178 12.9704 11.8504 12.9995 11.8818 13.0371L11.928 13.1L12.456 13.884C12.488 13.9347 12.528 13.972 12.576 13.996C12.624 14.02 12.6733 14.032 12.724 14.032C12.804 14.032 12.874 14.008 12.934 13.96C12.994 13.912 13.024 13.8507 13.024 13.776C13.024 13.7387 13.0151 13.7007 12.9973 13.6622L12.964 13.604L12.66 13.148C12.6013 13.06 12.5407 12.9927 12.478 12.946C12.4153 12.8993 12.344 12.868 12.264 12.852C12.4827 12.8067 12.652 12.712 12.772 12.568C12.892 12.424 12.952 12.244 12.952 12.028C12.952 11.7533 12.8673 11.5433 12.698 11.398C12.5569 11.2769 12.3598 11.2062 12.1066 11.1861L11.948 11.18ZM14.448 12.448C14.5893 12.448 14.6987 12.498 14.776 12.598C14.8533 12.698 14.892 12.8387 14.892 13.02C14.892 13.1987 14.8533 13.3353 14.776 13.43C14.6987 13.5247 14.5893 13.572 14.448 13.572C14.3067 13.572 14.1973 13.5233 14.12 13.426C14.0427 13.3287 14.004 13.1907 14.004 13.012C14.004 12.8307 14.0427 12.6913 14.12 12.594C14.1973 12.4967 14.3067 12.448 14.448 12.448ZM11.856 11.656C12.0347 11.656 12.164 11.6867 12.244 11.748C12.324 11.8093 12.364 11.908 12.364 12.044C12.364 12.1773 12.324 12.2753 12.244 12.338C12.164 12.4007 12.0347 12.432 11.856 12.432H11.26V11.656H11.856Z" fill="var(--fill-0, #555555)"/>
</g>
</svg>
