<svg preserveAspectRatio="none" width="100%" height="100%" overflow="visible" style="display: block;" viewBox="0 0 24 24" fill="none" xmlns="http://www.w3.org/2000/svg">
<g id=" ">
<g id="Icon">
<g id="Rectangle">
</g>
</g>
<path id="Icon_2" fill-rule="evenodd" clip-rule="evenodd" d="M10.506 6L8.43417 7.93207C7.42439 8.87393 7.36914 10.4562 8.31079 11.4663C9.21149 12.4324 10.698 12.5249 11.7093 11.7069L11.8442 11.5897L12.591 10.8921L17.0619 14.5812C17.598 14.9772 17.6475 15.4579 17.2106 16.0234C16.5552 16.8717 16.5552 16.9124 16.4583 16.9403C16.308 16.98 16.1739 16.8717 15.4554 16.3781C15.3099 16.2782 15.2972 16.441 15.0138 16.8287C14.825 17.0872 14.6283 17.3356 14.4237 17.5738C13.9214 18.0761 13.3604 18.1344 12.7406 17.7487C12.1208 17.3629 11.8259 17.1729 11.8559 17.1787C11.2239 18.0637 10.4266 18.1954 9.46417 17.5738C8.5017 16.9522 7.56694 16.1077 6.65989 15.0404H2V8.02297H6.06269L8.02047 6.00039L10.506 6ZM15.8056 6.00039L17.9215 7.99457H22C21.9408 11.8561 21.9093 14.008 21.9058 14.4503L21.9054 14.9406H18.3925C18.3223 14.6202 18.2079 14.3602 18.0494 14.1606C17.9067 13.981 17.5884 13.6854 17.0945 13.2739L16.9234 13.1324L13.2 10.1828L13.9411 9.40587C14.2453 9.08301 14.293 8.83075 14.0844 8.64909C13.8967 8.48559 13.657 8.55094 13.3654 8.84515L13.2663 8.9517L12.8071 9.34117L10.9521 11.0722C10.3462 11.6373 9.39702 11.6042 8.83203 10.9982C8.26704 10.3922 8.30019 9.44277 8.90606 8.87765L10.1544 7.71396C10.2491 7.62348 10.3486 7.52851 10.4528 7.42904L10.6128 7.27647L12 6.00039H15.8056Z" fill="var(--fill-0, #555555)"/>
</g>
</svg>
