<svg preserveAspectRatio="none" width="100%" height="100%" overflow="visible" style="display: block;" viewBox="0 0 13 15" fill="none" xmlns="http://www.w3.org/2000/svg">
<g id=" ">
<path id="Icon" fill-rule="evenodd" clip-rule="evenodd" d="M11 0C12.1046 0 13 0.89543 13 2V13C13 14.1046 12.1046 15 11 15H2C0.89543 15 0 14.1046 0 13V2C0 0.89543 0.89543 0 2 0H11ZM4.53558 11.4959H3C2.72386 11.4959 2.5 11.7198 2.5 11.9959C2.5 12.2721 2.72386 12.4959 3 12.4959H4.53558C4.81173 12.4959 5.03558 12.2721 5.03558 11.9959C5.03558 11.7198 4.81173 11.4959 4.53558 11.4959ZM10 8.49591H3C2.72386 8.49591 2.5 8.71977 2.5 8.99591C2.5 9.27205 2.72386 9.49591 3 9.49591H10C10.2761 9.49591 10.5 9.27205 10.5 8.99591C10.5 8.71977 10.2761 8.49591 10 8.49591ZM10 5.49591H3C2.72386 5.49591 2.5 5.71977 2.5 5.99591C2.5 6.27205 2.72386 6.49591 3 6.49591H10C10.2761 6.49591 10.5 6.27205 10.5 5.99591C10.5 5.71977 10.2761 5.49591 10 5.49591ZM10 2.49591H3C2.72386 2.49591 2.5 2.71977 2.5 2.99591C2.5 3.27205 2.72386 3.49591 3 3.49591H10C10.2761 3.49591 10.5 3.27205 10.5 2.99591C10.5 2.71977 10.2761 2.49591 10 2.49591Z" fill="var(--fill-0, #555555)"/>
</g>
</svg>
