<svg preserveAspectRatio="none" width="100%" height="100%" overflow="visible" style="display: block;" viewBox="0 0 17 16" fill="none" xmlns="http://www.w3.org/2000/svg">
<g id=" ">
<path id="Icon" fill-rule="evenodd" clip-rule="evenodd" d="M12 6C14.7614 6 17 8.23858 17 11C17 13.7614 14.7614 16 12 16C9.23858 16 7 13.7614 7 11C7 8.23858 9.23858 6 12 6ZM11 0C12.1046 0 13 0.89543 13 2L13.0008 5.08309C12.6753 5.02845 12.341 5 12 5C11.1506 5 10.3424 5.1765 9.61017 5.49482L3 5.49591C2.72386 5.49591 2.5 5.71977 2.5 5.99591C2.5 6.27205 2.72386 6.49591 3 6.49591L8.03628 6.49558C7.40979 7.04729 6.89932 7.72765 6.54618 8.49535L3 8.49591C2.72386 8.49591 2.5 8.71977 2.5 8.99591C2.5 9.27205 2.72386 9.49591 3 9.49591L6.19024 9.49528C6.06606 9.97613 6 10.4804 6 11C6 12.5371 6.57802 13.9393 7.52856 15.0009L2 15C0.89543 15 0 14.1046 0 13V2C0 0.89543 0.89543 0 2 0H11ZM13.624 9.988C13.488 9.988 13.3653 10.0167 13.256 10.074C13.174 10.117 13.1062 10.1724 13.0527 10.2401L13.004 10.312V10.28C13.004 10.1947 12.9773 10.126 12.924 10.074C12.8707 10.022 12.7987 9.996 12.708 9.996C12.6173 9.996 12.5447 10.022 12.49 10.074C12.449 10.113 12.4234 10.1614 12.4131 10.2191L12.408 10.28V12.464C12.408 12.5467 12.4367 12.6133 12.494 12.664C12.5513 12.7147 12.6267 12.74 12.72 12.74C12.808 12.74 12.8787 12.716 12.932 12.668C12.9676 12.636 12.9913 12.5969 13.0031 12.5507L13.012 12.476V11.72C13.0707 11.8187 13.154 11.8953 13.262 11.95C13.37 12.0047 13.4907 12.032 13.624 12.032C13.7947 12.032 13.9453 11.9907 14.076 11.908C14.2067 11.8253 14.3087 11.7073 14.382 11.554C14.4553 11.4007 14.492 11.2227 14.492 11.02C14.492 10.8173 14.4553 10.638 14.382 10.482C14.3087 10.326 14.206 10.2047 14.074 10.118C13.942 10.0313 13.792 9.988 13.624 9.988ZM4.53558 11.4959H3C2.72386 11.4959 2.5 11.7198 2.5 11.9959C2.5 12.2721 2.72386 12.4959 3 12.4959H4.53558C4.81173 12.4959 5.03558 12.2721 5.03558 11.9959C5.03558 11.7198 4.81173 11.4959 4.53558 11.4959ZM10.948 9.18H9.944C9.85067 9.18 9.77867 9.20533 9.728 9.256C9.69 9.294 9.66625 9.344 9.65675 9.406L9.652 9.472V11.712C9.652 11.808 9.68 11.884 9.736 11.94C9.792 11.996 9.868 12.024 9.964 12.024C10.0573 12.024 10.1313 11.996 10.186 11.94C10.227 11.898 10.2526 11.8447 10.2629 11.7802L10.268 11.712V10.904H10.592C10.6693 10.904 10.7333 10.9193 10.784 10.95C10.8178 10.9704 10.8504 10.9995 10.8818 11.0371L10.928 11.1L11.456 11.884C11.488 11.9347 11.528 11.972 11.576 11.996C11.624 12.02 11.6733 12.032 11.724 12.032C11.804 12.032 11.874 12.008 11.934 11.96C11.994 11.912 12.024 11.8507 12.024 11.776C12.024 11.7387 12.0151 11.7007 11.9973 11.6622L11.964 11.604L11.66 11.148C11.6013 11.06 11.5407 10.9927 11.478 10.946C11.4153 10.8993 11.344 10.868 11.264 10.852C11.4827 10.8067 11.652 10.712 11.772 10.568C11.892 10.424 11.952 10.244 11.952 10.028C11.952 9.75333 11.8673 9.54333 11.698 9.398C11.5569 9.27689 11.3598 9.20624 11.1066 9.18606L10.948 9.18ZM13.448 10.448C13.5893 10.448 13.6987 10.498 13.776 10.598C13.8533 10.698 13.892 10.8387 13.892 11.02C13.892 11.1987 13.8533 11.3353 13.776 11.43C13.6987 11.5247 13.5893 11.572 13.448 11.572C13.3067 11.572 13.1973 11.5233 13.12 11.426C13.0427 11.3287 13.004 11.1907 13.004 11.012C13.004 10.8307 13.0427 10.6913 13.12 10.594C13.1973 10.4967 13.3067 10.448 13.448 10.448ZM10.856 9.656C11.0347 9.656 11.164 9.68667 11.244 9.748C11.324 9.80933 11.364 9.908 11.364 10.044C11.364 10.1773 11.324 10.2753 11.244 10.338C11.164 10.4007 11.0347 10.432 10.856 10.432H10.26V9.656H10.856ZM10 2.49591H3C2.72386 2.49591 2.5 2.71977 2.5 2.99591C2.5 3.27205 2.72386 3.49591 3 3.49591H10C10.2761 3.49591 10.5 3.27205 10.5 2.99591C10.5 2.71977 10.2761 2.49591 10 2.49591Z" fill="var(--fill-0, #555555)"/>
</g>
</svg>
