<svg preserveAspectRatio="none" width="100%" height="100%" overflow="visible" style="display: block;" viewBox="0 0 16 16" fill="none" xmlns="http://www.w3.org/2000/svg">
<g id=" ">
<path id="Icon" fill-rule="evenodd" clip-rule="evenodd" d="M8 0C12.4183 0 16 3.58172 16 8C16 12.4183 12.4183 16 8 16C3.58172 16 0 12.4183 0 8C0 3.58172 3.58172 0 8 0ZM8 12C7.44772 12 7 12.4477 7 13C7 13.5523 7.44772 14 8 14C8.55228 14 9 13.5523 9 13C9 12.4477 8.55228 12 8 12ZM8 2C5.79086 2 4 3.79086 4 6C4 6.55228 4.44772 7 5 7C5.55228 7 6 6.55228 6 6C6 4.89543 6.89543 4 8 4C9.10457 4 10 4.89543 10 6C10 7.05436 9.18412 7.91817 8.14926 7.99451L8 8C7.44772 8 7 8.44772 7 9V10.0059C7 10.5582 7.44772 11.0059 8 11.0059C8.55228 11.0059 9 10.5582 9 10.0059L9.00076 9.87379C10.7256 9.42948 12 7.86357 12 6C12 3.79086 10.2091 2 8 2Z" fill="var(--fill-0, #555555)"/>
</g>
</svg>
