<svg preserveAspectRatio="none" width="100%" height="100%" overflow="visible" style="display: block;" viewBox="0 0 14.3006 15.9988" fill="none" xmlns="http://www.w3.org/2000/svg">
<g id=" ">
<path id="Icon" fill-rule="evenodd" clip-rule="evenodd" d="M13.8006 0C14.0767 0 14.3006 0.223858 14.3006 0.5C14.3006 0.631824 14.2485 0.758315 14.1557 0.85195L12.027 3L14.1557 5.14805C14.3501 5.34419 14.3487 5.66077 14.1525 5.85515C14.0589 5.94794 13.9324 6 13.8006 6H7.963L7.99439 11.0503C10.9636 11.344 14 12.8968 14 15.0356C14 15.5676 13.5687 15.9988 13.0368 15.9988H0.99478C0.445378 15.9988 0 15.5534 0 15.004C0 12.9072 3.07318 11.3304 6.04854 11.046L6.018 6H6V0H13.8006Z" fill="var(--fill-0, #555555)"/>
</g>
</svg>
