<svg preserveAspectRatio="none" width="100%" height="100%" overflow="visible" style="display: block;" viewBox="0 0 16.6784 15.8631" fill="none" xmlns="http://www.w3.org/2000/svg">
<g id=" ">
<path id="Icon" fill-rule="evenodd" clip-rule="evenodd" d="M7.87142 0.11641C8.35953 -0.141995 8.96469 0.0442125 9.22309 0.532316L16.5622 14.3952C16.6385 14.5394 16.6784 14.7 16.6784 14.8631C16.6784 15.4154 16.2307 15.8631 15.6784 15.8631H1.0002C0.837096 15.8631 0.676467 15.8232 0.532317 15.7469C0.0442127 15.4885 -0.141995 14.8833 0.11641 14.3952L7.45551 0.532316C7.54932 0.355122 7.69423 0.210217 7.87142 0.11641ZM8.3393 11.8629C7.78702 11.8629 7.3393 12.3106 7.3393 12.8629C7.3393 13.4152 7.78702 13.8629 8.3393 13.8629C8.89159 13.8629 9.3393 13.4152 9.3393 12.8629C9.3393 12.3106 8.89159 11.8629 8.3393 11.8629ZM8.3393 3.86292C7.78702 3.86292 7.3393 4.31063 7.3393 4.86292V9.89795C7.3393 10.4502 7.78702 10.8979 8.3393 10.8979C8.89159 10.8979 9.3393 10.4502 9.3393 9.89795V4.86292C9.3393 4.31063 8.89159 3.86292 8.3393 3.86292Z" fill="var(--fill-0, #555555)"/>
</g>
</svg>
