<svg preserveAspectRatio="none" width="100%" height="100%" overflow="visible" style="display: block;" viewBox="0 0 16.0026 16.0026" fill="none" xmlns="http://www.w3.org/2000/svg">
<g id=" ">
<path id="Combined-Shape" fill-rule="evenodd" clip-rule="evenodd" d="M14.0027 0C15.1072 0 16.0026 0.89543 16.0026 2V15C16.0026 16.1046 15.1072 16 14.0027 16C13.4581 16 13.0166 15.5589 13.016 15.0144L13.0038 4.02098C13.0031 3.46913 12.5556 3.02209 12.0038 3.02209H1.00265C0.450365 3.02209 0.0026502 2.57438 0.0026502 2.02209V2C0.0026502 0.89543 -0.101919 0 1.00265 0H14.0027ZM10.0027 5C10.5549 5 11.0027 5.44772 11.0027 6V15C11.0027 15.5523 10.5549 16 10.0027 16H1.00265C0.450365 16 0.0026502 15.5523 0.0026502 15V6C0.0026502 5.44772 0.450365 5 1.00265 5H10.0027ZM2.50265 10C2.22651 10 2.00265 10.2239 2.00265 10.5V13.5C2.00265 13.7761 2.22651 14 2.50265 14H5.50265C5.77879 14 6.00265 13.7761 6.00265 13.5L5.99459 13.4101C5.95226 13.1769 5.74811 13 5.50265 13L3.69565 12.999L5.85258 10.8642C6.04879 10.6699 6.05034 10.3534 5.85604 10.1572L5.78707 10.099C5.59287 9.96301 5.32335 9.98098 5.14894 10.1537L3.00165 12.279L3.00265 10.5C3.00265 10.2239 2.77879 10 2.50265 10Z" fill="var(--fill-0, #555555)"/>
</g>
</svg>
