<svg preserveAspectRatio="none" width="100%" height="100%" overflow="visible" style="display: block;" viewBox="0 0 16 16" fill="none" xmlns="http://www.w3.org/2000/svg">
<g id=" ">
<path id="Icon" fill-rule="evenodd" clip-rule="evenodd" d="M14 0C15.1046 0 16 0.89543 16 2V14C16 15.1046 15.1046 16 14 16H10.0128C9.46114 16 9.01369 15.5533 9.0128 15.0016L9.0016 8.02049C9.00072 7.46883 8.55326 7.02209 8.0016 7.02209H1C0.447715 7.02209 0 6.57438 0 6.02209V2C0 0.89543 0.89543 0 2 0H14ZM6 9C6.55228 9 7 9.44772 7 10V15C7 15.5523 6.55228 16 6 16H1C0.447715 16 0 15.5523 0 15V10C0 9.44772 0.447715 9 1 9H6ZM13.5 2H10.5C10.2239 2 10 2.22386 10 2.5L10.0081 2.58988C10.0504 2.82312 10.2545 3 10.5 3H12.306L10.1501 5.13575C9.95386 5.33006 9.95231 5.64663 10.1466 5.84285L10.2156 5.90104C10.4098 6.03699 10.6793 6.01902 10.8537 5.8463L13 3.72V5.5C13 5.77614 13.2239 6 13.5 6C13.7761 6 14 5.77614 14 5.5V2.5C14 2.22386 13.7761 2 13.5 2Z" fill="var(--fill-0, #555555)"/>
</g>
</svg>
