<svg preserveAspectRatio="none" width="100%" height="100%" overflow="visible" style="display: block;" viewBox="0 0 18 12.0001" fill="none" xmlns="http://www.w3.org/2000/svg">
<g id=" ">
<path id="Icon" fill-rule="evenodd" clip-rule="evenodd" d="M4.21382 0.382049C4.55512 -0.0521481 5.1838 -0.127449 5.61799 0.213859C6.05219 0.555167 6.12749 1.18384 5.78618 1.61804L3.127 5L17 5.00004C17.5128 5.00004 17.9355 5.38608 17.9933 5.88342L18 6.00004C18 6.55233 17.5523 7.00004 17 7.00004L3.032 7L5.77538 10.3685C6.09732 10.7638 6.06719 11.3309 5.72384 11.6902L5.6315 11.7754C5.20327 12.1242 4.57339 12.0598 4.22462 11.6315L0.224621 6.72016C-0.0707788 6.35746 -0.075267 5.83843 0.213817 5.47067L4.21382 0.382049Z" fill="var(--fill-0, #555555)"/>
</g>
</svg>
