<svg preserveAspectRatio="none" width="100%" height="100%" overflow="visible" style="display: block;" viewBox="0 0 18.9008 12.0001" fill="none" xmlns="http://www.w3.org/2000/svg">
<g id=" ">
<path id="Icon" fill-rule="evenodd" clip-rule="evenodd" d="M14.687 0.382049L18.687 5.47067C18.9761 5.83843 18.9716 6.35746 18.6762 6.72016L14.6762 11.6315C14.3274 12.0598 13.6975 12.1242 13.2693 11.7754C12.8411 11.4267 12.7767 10.7968 13.1254 10.3685L15.868 7L1 7.00004C0.487164 7.00004 0.0644928 6.614 0.0067277 6.11666L0 6.00004C0 5.44776 0.447715 5.00004 1 5.00004L15.773 5L13.1146 1.61804C12.7733 1.18384 12.8486 0.555167 13.2828 0.213859C13.717 -0.127449 14.3457 -0.0521481 14.687 0.382049Z" fill="var(--fill-0, #555555)"/>
</g>
</svg>
