<svg preserveAspectRatio="none" width="100%" height="100%" overflow="visible" style="display: block;" viewBox="0 0 24 24" fill="none" xmlns="http://www.w3.org/2000/svg">
<g id="Icon">
<g id=" ">
<path id="Icon_2" fill-rule="evenodd" clip-rule="evenodd" d="M2 22V12L2.00384 11.7201C2.15207 6.32667 6.57076 2 12 2C17.5228 2 22 6.47715 22 12C22 17.5228 17.5228 22 12 22H2Z" fill="var(--fill-0, #EF3636)"/>
<path id="Icon_3" d="M8 10L12 7L16 10" stroke="var(--stroke-0, white)" stroke-width="2" stroke-linecap="round" stroke-linejoin="round"/>
</g>
<path id="Star 2" d="M11.6196 12.1708C11.7393 11.8023 12.2607 11.8023 12.3804 12.1708L12.8083 13.4875C12.8618 13.6523 13.0154 13.7639 13.1887 13.7639H14.5732C14.9606 13.7639 15.1218 14.2598 14.8083 14.4875L13.6882 15.3013C13.548 15.4032 13.4893 15.5837 13.5429 15.7485L13.9707 17.0652C14.0905 17.4338 13.6687 17.7402 13.3552 17.5125L12.2351 16.6987C12.0949 16.5968 11.9051 16.5968 11.7649 16.6987L10.6448 17.5125C10.3313 17.7402 9.90954 17.4338 10.0293 17.0652L10.4571 15.7485C10.5107 15.5837 10.452 15.4032 10.3118 15.3013L9.19173 14.4875C8.87825 14.2598 9.03936 13.7639 9.42685 13.7639H10.8113C10.9846 13.7639 11.1382 13.6523 11.1917 13.4875L11.6196 12.1708Z" fill="var(--fill-0, white)"/>
</g>
</svg>
