<svg preserveAspectRatio="none" width="100%" height="100%" overflow="visible" style="display: block;" viewBox="0 0 20 17.4368" fill="none" xmlns="http://www.w3.org/2000/svg">
<g id=" ">
<path id="Icon" fill-rule="evenodd" clip-rule="evenodd" d="M6.60111 12.0876C6.9331 12.0876 7.20223 12.3567 7.20223 12.6887C7.20223 14.3486 8.54786 15.6942 10.2078 15.6942C11.0143 15.6942 11.7689 15.3759 12.329 14.818C12.3656 14.7815 12.4058 14.7507 12.4484 14.7256L11.3988 14.4065L11.3079 14.3705C11.0484 14.2424 10.9124 13.9416 10.9998 13.6559C11.0968 13.3384 11.4329 13.1597 11.7503 13.2568L14.0497 13.9598L14.1407 13.9958C14.4002 14.1239 14.5362 14.4247 14.4488 14.7104L13.7454 17.0113L13.7094 17.1022C13.5813 17.3617 13.2805 17.4977 12.9948 17.4104L12.9039 17.3743C12.6443 17.2463 12.5083 16.9455 12.5957 16.6598L12.796 16.0066C12.0659 16.5771 11.1616 16.8965 10.2078 16.8965C7.88389 16.8965 6 15.0126 6 12.6887C6 12.3567 6.26913 12.0876 6.60111 12.0876ZM10.0531 2.71775e-05C13.0574 2.71775e-05 15.5907 2.18577 16.2144 5.11732L16.2588 5.34992L16.3456 5.36028C18.3136 5.64045 19.8537 7.32262 19.9821 9.4088L19.9861 9.52732L19.9942 9.57583L20 9.6943C20 11.3812 19.164 12.921 17.8133 13.8126C17.39 14.0921 16.828 13.9635 16.558 13.5254C16.288 13.0873 16.4123 12.5056 16.8356 12.2262C17.6166 11.7106 18.1164 10.8476 18.1759 9.88754L18.1779 9.79547L18.1746 9.78323L18.1722 9.64544C18.1488 8.28847 17.0774 7.20061 15.7633 7.20095L15.5806 7.20376L14.5802 7.26991L14.5387 6.31084C14.432 3.84367 12.4526 1.8818 10.0504 1.88179C9.06424 1.8788 8.10543 2.2152 7.32423 2.83863C6.66352 3.36465 6.15715 4.06726 5.85838 4.86826L5.77503 5.11143L5.60291 5.66116L5.05131 5.75085C3.25 6.04374 1.90799 7.60542 1.82252 9.47093L1.81819 9.68957C1.81819 10.7506 2.35132 11.7121 3.21119 12.2564C3.6395 12.5275 3.77434 13.1067 3.51236 13.5499C3.25038 13.9932 2.69079 14.1328 2.26248 13.8616C0.928928 13.0174 0.0765097 11.5481 0.00490723 9.91345L3.90862e-06 9.66606C-0.0029897 7.01628 1.71391 4.72836 4.1324 4.03446L4.23335 4.00637C4.62708 3.04353 5.23134 2.19527 6.00087 1.52589L6.2148 1.34782C7.31481 0.469975 8.66611 -0.0041354 10.0531 2.71775e-05ZM6.84156 8C7.14035 8 7.38822 8.21799 7.4348 8.50361L7.44267 8.60111L7.44157 9.51782C8.19974 8.85562 9.17468 8.48089 10.2078 8.48089C12.5317 8.48089 14.4156 10.3648 14.4156 12.6887C14.4156 13.0207 14.1465 13.2898 13.8145 13.2898C13.4825 13.2898 13.2134 13.0207 13.2134 12.6887C13.2134 11.0288 11.8677 9.68312 10.2078 9.68312C9.47985 9.68312 8.79423 9.94247 8.25593 10.403L9.24755 10.4045C9.54634 10.4045 9.79421 10.6224 9.8408 10.9081L9.84867 11.0056C9.84867 11.3044 9.63067 11.5522 9.34506 11.5988L9.24755 11.6067H6.84156C6.54277 11.6067 6.2949 11.3887 6.24831 11.1031L6.24045 11.0056V8.60111C6.24045 8.26913 6.50957 8 6.84156 8Z" fill="var(--fill-0, #555555)"/>
</g>
</svg>
