<svg preserveAspectRatio="none" width="100%" height="100%" overflow="visible" style="display: block;" viewBox="0 0 17.9951 12" fill="none" xmlns="http://www.w3.org/2000/svg">
<g id=" ">
<path id="Icon" fill-rule="evenodd" clip-rule="evenodd" d="M8.99513 0C14.4951 0 17.9967 5.2753 17.9951 6C17.9936 6.7247 14.4869 12 8.98862 12C3.49039 12 -0.00168202 6.96188 6.07801e-07 6C0.00169912 5.03812 3.49514 0 8.99513 0ZM9 2C6.79086 2 5 3.79086 5 6C5 8.20914 6.79086 10 9 10C11.2091 10 13 8.20914 13 6C13 3.79086 11.2091 2 9 2ZM9 4C10.1046 4 11 4.89543 11 6C11 7.10457 10.1046 8 9 8C7.89543 8 7 7.10457 7 6C7 4.89543 7.89543 4 9 4Z" fill="var(--fill-0, #555555)"/>
</g>
</svg>
