<svg preserveAspectRatio="none" width="100%" height="100%" overflow="visible" style="display: block;" viewBox="0 0 20 17" fill="none" xmlns="http://www.w3.org/2000/svg">
<g id=" ">
<path id="Icon" d="M10 15.5C10.4142 15.5 10.75 15.8358 10.75 16.25C10.75 16.6642 10.4142 17 10 17C9.58579 17 9.25 16.6642 9.25 16.25C9.25 15.8358 9.58579 15.5 10 15.5ZM10 8C11.6569 8 13 9.34315 13 11C13 12.3974 12.0445 13.5717 10.7512 13.9052L10.75 14.0044C10.75 14.4187 10.4142 14.7544 10 14.7544C9.58579 14.7544 9.25 14.4187 9.25 14.0044V13.25C9.25 12.8358 9.58579 12.5 10 12.5L10.1119 12.4959C10.8881 12.4386 11.5 11.7908 11.5 11C11.5 10.1716 10.8284 9.5 10 9.5C9.17157 9.5 8.5 10.1716 8.5 11C8.5 11.4142 8.16421 11.75 7.75 11.75C7.33579 11.75 7 11.4142 7 11C7 9.34315 8.34315 8 10 8ZM10.0531 2.71775e-05C13.0574 2.71775e-05 15.5907 2.18577 16.2144 5.11732L16.2588 5.34992L16.3456 5.36028C18.3136 5.64045 19.8537 7.32262 19.9821 9.4088L19.9861 9.52732L19.9942 9.57583L20 9.6943C20 11.3812 19.164 12.921 17.8133 13.8126C17.39 14.0921 16.828 13.9635 16.558 13.5254C16.288 13.0873 16.4123 12.5056 16.8356 12.2262C17.6166 11.7106 18.1164 10.8476 18.1759 9.88754L18.1779 9.79547L18.1746 9.78323L18.1722 9.64544C18.1488 8.28847 17.0774 7.20061 15.7633 7.20095L15.5806 7.20376L14.5802 7.26991L14.5387 6.31084C14.432 3.84367 12.4526 1.8818 10.0504 1.88179C9.06424 1.8788 8.10543 2.2152 7.32423 2.83863C6.66352 3.36465 6.15715 4.06726 5.85838 4.86826L5.77503 5.11143L5.60291 5.66116L5.05131 5.75085C3.25 6.04374 1.90799 7.60542 1.82252 9.47093L1.81819 9.68957C1.81819 10.7506 2.35132 11.7121 3.21119 12.2564C3.6395 12.5275 3.77434 13.1067 3.51236 13.5499C3.25038 13.9932 2.69079 14.1328 2.26248 13.8616C0.928928 13.0174 0.0765097 11.5481 0.00490723 9.91345L3.90862e-06 9.66606C-0.0029897 7.01628 1.71391 4.72836 4.1324 4.03446L4.23335 4.00637C4.62708 3.04353 5.23134 2.19527 6.00087 1.52589L6.2148 1.34782C7.31481 0.469975 8.66611 -0.0041354 10.0531 2.71775e-05Z" fill="var(--fill-0, #555555)"/>
</g>
</svg>
