<svg preserveAspectRatio="none" width="100%" height="100%" overflow="visible" style="display: block;" viewBox="0 0 18.139 16" fill="none" xmlns="http://www.w3.org/2000/svg">
<g id=" ">
<path id="Icon" fill-rule="evenodd" clip-rule="evenodd" d="M14.2934 0.293271C14.6802 -0.0941288 15.3114 -0.0982552 15.7033 0.284054C16.0952 0.666364 16.0994 1.29034 15.7126 1.67774L10.6767 6.72103C10.9654 7.06772 11.139 7.51358 11.139 8C11.139 9.10457 10.2436 10 9.13901 10C8.65397 10 8.20926 9.82734 7.86299 9.54013L1.70662 15.7067C1.31985 16.0941 0.688605 16.0983 0.29669 15.7159C-0.0952258 15.3336 -0.0994006 14.7097 0.287365 14.3223L2.93785 11.6683C1.15128 10.2114 0.142977 8.51697 0.143881 8C0.14558 7.03812 3.63902 2 9.13901 2C10.1954 2 11.1781 2.19462 12.0764 2.51424L14.2934 0.293271ZM14.6282 3.86354C16.8586 5.45737 18.14 7.56154 18.139 8C18.1374 8.7247 14.6307 14 9.1325 14C7.76032 14 6.51309 13.6862 5.41393 13.2003L7.13098 11.4602C7.72114 11.8034 8.40712 12 9.13901 12C11.3481 12 13.139 10.2091 13.139 8C13.139 7.24898 12.932 6.54629 12.572 5.94589L14.6282 3.86354ZM9.13901 4C6.92987 4 5.13901 5.79086 5.13901 8C5.13901 8.4402 5.21012 8.8638 5.34147 9.25993L7.24706 7.34982C7.44653 6.76927 7.90569 6.30945 8.48583 6.10909L10.3924 4.2003C9.99813 4.07033 9.57678 4 9.13901 4Z" fill="var(--fill-0, #555555)"/>
</g>
</svg>
