<svg preserveAspectRatio="none" width="100%" height="100%" overflow="visible" style="display: block;" viewBox="0 0 16 16" fill="none" xmlns="http://www.w3.org/2000/svg">
<g id=" ">
<path id="Icon" fill-rule="evenodd" clip-rule="evenodd" d="M16 8.21333V15.1111C16 15.602 15.602 16 15.1111 16H11.5556C11.0646 16 10.6667 15.602 10.6667 15.1111V10.4644C10.6667 10.219 10.4677 10.02 10.2222 10.02H5.77778C5.53232 10.02 5.33333 10.219 5.33333 10.4644V15.1111C5.33333 15.602 4.93536 16 4.44444 16H0.888889C0.397969 16 0 15.602 0 15.1111V8.21333C0.00062241 7.50633 0.281982 6.82851 0.782222 6.32889L6.85333 0.257778C7.0189 0.0935607 7.24236 0.00098189 7.47556 0H8.52444C8.75764 0.00098189 8.9811 0.0935607 9.14667 0.257778L15.2178 6.32889C15.718 6.82851 15.9994 7.50633 16 8.21333Z" fill="var(--fill-0, #555555)"/>
</g>
</svg>
