<svg preserveAspectRatio="none" width="100%" height="100%" overflow="visible" style="display: block;" viewBox="0 0 16 12" fill="none" xmlns="http://www.w3.org/2000/svg">
<g id=" ">
<path id="Icon" fill-rule="evenodd" clip-rule="evenodd" d="M14 0C15.1046 0 16 0.89543 16 2V10C16 11.1046 15.1046 12 14 12H2C0.89543 12 0 11.1046 0 10V2C0 0.89543 0.89543 0 2 0H14ZM13.7226 2.084L8.83328 5.34429C8.32947 5.68024 7.67307 5.68031 7.16918 5.34446L2.27731 2.08395C2.04753 1.93079 1.7371 1.99291 1.58395 2.22269C1.43079 2.45247 1.49291 2.7629 1.72269 2.91605L6.61457 6.17657C7.45438 6.73631 8.54838 6.7362 9.38807 6.17628L14.2774 2.916C14.5071 2.7628 14.5692 2.45236 14.416 2.22261C14.2628 1.99286 13.9524 1.9308 13.7226 2.084Z" fill="var(--fill-0, #555555)"/>
</g>
</svg>
