<svg preserveAspectRatio="none" width="100%" height="100%" overflow="visible" style="display: block;" viewBox="0 0 14 18" fill="none" xmlns="http://www.w3.org/2000/svg">
<g id=" ">
<path id="Icon" fill-rule="evenodd" clip-rule="evenodd" d="M14 2.25C14 1.00736 13.0357 0 11.8462 0H2.15385C0.96431 0 0 1.00736 0 2.25V15.75C0 16.9926 0.96431 18 2.15385 18H11.8462C13.0357 18 14 16.9926 14 15.75V9V2.25ZM4.30769 2.25H9.69231C10.7692 2.25 11.3077 2.25 11.3077 3.375C11.3077 4.5 10.7692 4.5 9.69231 4.5H4.30769C3.23077 4.5 2.69231 4.5 2.69231 3.375C2.69231 2.25 3.23077 2.25 4.30769 2.25ZM4.84615 7.875C4.84615 7.32645 4.364 6.75 3.76923 6.75C3.17446 6.75 2.69231 7.25368 2.69231 7.875C2.69231 8.49632 3.17446 9 3.76923 9C4.364 9 4.84615 8.42355 4.84615 7.875ZM7 6.75C7.59477 6.75 8.07692 7.3125 8.07692 7.875C8.07692 8.4375 7.59477 9 7 9C6.40523 9 5.92308 8.4375 5.92308 7.875C5.92308 7.3125 6.40523 6.75 7 6.75ZM10.2308 6.75C10.8255 6.75 11.3077 7.3125 11.3077 7.875C11.3077 8.4375 10.8255 9 10.2308 9C9.636 9 9.15385 8.4375 9.15385 7.875C9.15385 7.3125 9.636 6.75 10.2308 6.75ZM4.84615 14.625C4.84615 14.0764 4.364 13.5 3.76923 13.5C3.17446 13.5 2.69231 14.0037 2.69231 14.625C2.69231 15.2463 3.17446 15.75 3.76923 15.75C4.364 15.75 4.84615 15.1736 4.84615 14.625ZM7 13.5C7.59477 13.5 8.07692 14.0625 8.07692 14.625C8.07692 15.1875 7.59477 15.75 7 15.75C6.40523 15.75 5.92308 15.1875 5.92308 14.625C5.92308 14.0625 6.40523 13.5 7 13.5ZM11.3077 14.625C11.3077 14.0625 10.8255 13.5 10.2308 13.5C9.636 13.5 9.15385 14.0625 9.15385 14.625C9.15385 15.1875 9.636 15.75 10.2308 15.75C10.8255 15.75 11.3077 15.1875 11.3077 14.625ZM10.2308 10.125C10.8255 10.125 11.3077 10.6875 11.3077 11.25C11.3077 11.8125 10.8255 12.375 10.2308 12.375C9.636 12.375 9.15385 11.8125 9.15385 11.25C9.15385 10.6875 9.636 10.125 10.2308 10.125ZM8.07692 11.25C8.07692 10.6875 7.59477 10.125 7 10.125C6.40523 10.125 5.92308 10.6875 5.92308 11.25C5.92308 11.8125 6.40523 12.375 7 12.375C7.59477 12.375 8.07692 11.8125 8.07692 11.25ZM3.76923 10.125C4.364 10.125 4.84615 10.7014 4.84615 11.25C4.84615 11.7986 4.364 12.375 3.76923 12.375C3.17446 12.375 2.69231 11.8713 2.69231 11.25C2.69231 10.6287 3.17446 10.125 3.76923 10.125Z" fill="var(--fill-0, #555555)"/>
</g>
</svg>
