<svg preserveAspectRatio="none" width="100%" height="100%" overflow="visible" style="display: block;" viewBox="0 0 16.7717 16.064" fill="none" xmlns="http://www.w3.org/2000/svg">
<g id="Star Frame">
<path id="Star 1" d="M7.4348 0.690982C7.73415 -0.230329 9.03756 -0.230327 9.33691 0.690984L10.631 4.67376C10.7649 5.08579 11.1488 5.36475 11.5821 5.36475H15.7698C16.7385 5.36475 17.1413 6.60436 16.3576 7.17376L12.9696 9.63526C12.6191 9.8899 12.4725 10.3413 12.6064 10.7533L13.9004 14.7361C14.1998 15.6574 13.1453 16.4235 12.3616 15.8541L8.97364 13.3926C8.62315 13.138 8.14856 13.138 7.79807 13.3926L4.41012 15.8541C3.6264 16.4235 2.57192 15.6574 2.87128 14.7361L4.16536 10.7533C4.29923 10.3413 4.15257 9.8899 3.80209 9.63526L0.414131 7.17376C-0.369583 6.60436 0.0331949 5.36475 1.00192 5.36475H5.18966C5.62289 5.36475 6.00684 5.08579 6.14072 4.67376L7.4348 0.690982Z" fill="var(--fill-0, #555555)"/>
</g>
</svg>
