<svg preserveAspectRatio="none" width="100%" height="100%" overflow="visible" style="display: block;" viewBox="0 0 16 16" fill="none" xmlns="http://www.w3.org/2000/svg">
<g id=" ">
<path id="Icon" fill-rule="evenodd" clip-rule="evenodd" d="M8 0C10.2091 0 12 1.79086 12 4H14C15.1046 4 16 4.89543 16 6V14C16 15.1046 15.1046 16 14 16H2C0.89543 16 0 15.1046 0 14V6C0 4.89543 0.89543 4 2 4H4C4 1.79086 5.79086 0 8 0ZM8 8C7.44772 8 7 8.44772 7 9V11C7 11.5523 7.44772 12 8 12C8.55228 12 9 11.5523 9 11V9C9 8.44772 8.55228 8 8 8ZM8 2C6.89543 2 6 2.89543 6 4H10C10 2.89543 9.10457 2 8 2Z" fill="var(--fill-0, #555555)"/>
</g>
</svg>
