<svg preserveAspectRatio="none" width="100%" height="100%" overflow="visible" style="display: block;" viewBox="0 0 13.9935 17" fill="none" xmlns="http://www.w3.org/2000/svg">
<g id=" ">
<path id="Icon" fill-rule="evenodd" clip-rule="evenodd" d="M6.99435 0C7.57929 0 8.05349 0.447715 8.05349 1L8.05357 2.10546C10.0705 2.51217 11.7151 4.05954 12.2005 6.12413L13.3492 11.0101L13.9358 12.6661C14.1202 13.1867 13.8477 13.7582 13.3271 13.9426C13.2199 13.9806 13.107 14 12.9932 14H1C0.447715 14 0 13.5523 0 13C0 12.8852 0.0197565 12.7713 0.058404 12.6633L0.639485 11.0385L1.79107 6.12481C2.27488 4.06043 3.91848 2.51268 5.93465 2.10563L5.9352 1C5.9352 0.447715 6.4094 0 6.99435 0ZM4.87606 15C4.87606 16.1046 5.82445 17 6.99435 17C8.16424 17 9.11263 16.1046 9.11263 15" fill="var(--fill-0, #555555)"/>
</g>
</svg>
