<svg preserveAspectRatio="none" width="100%" height="100%" overflow="visible" style="display: block;" viewBox="0 0 18 16" fill="none" xmlns="http://www.w3.org/2000/svg">
<g id=" ">
<path id="Icon" fill-rule="evenodd" clip-rule="evenodd" d="M11.3748 0C11.7721 0 12.1317 0.235194 12.291 0.599181L13.0288 2.28571H16C17.1046 2.28571 18 3.18114 18 4.28571V14C18 15.1046 17.1046 16 16 16H2C0.89543 16 0 15.1046 0 14V4.28571C0 3.18114 0.89543 2.28571 2 2.28571H5.01788L5.75574 0.599181C5.91499 0.235194 6.2746 0 6.6719 0H11.3748ZM9 5C6.79086 5 5 6.79086 5 9C5 11.2091 6.79086 13 9 13C11.2091 13 13 11.2091 13 9C13 6.79086 11.2091 5 9 5ZM15 4C14.4477 4 14 4.44772 14 5C14 5.55228 14.4477 6 15 6C15.5523 6 16 5.55228 16 5C16 4.44772 15.5523 4 15 4Z" fill="var(--fill-0, #555555)"/>
</g>
</svg>
