<svg preserveAspectRatio="none" width="100%" height="100%" overflow="visible" style="display: block;" viewBox="0 0 20 17" fill="none" xmlns="http://www.w3.org/2000/svg">
<g id=" ">
<path id="Icon" fill-rule="evenodd" clip-rule="evenodd" d="M12 15C12 16.1046 11.1046 17 10 17L9.85074 16.9945C8.81588 16.9182 8 16.0544 8 15H12ZM10 0C10.5523 0 11 0.448236 11 1.00116L10.9997 2.10079C12.8955 2.48803 14.4343 3.95653 14.8668 5.90495L16 11.0101L16.5594 12.6828C16.7346 13.2066 16.452 13.7732 15.9283 13.9484C15.826 13.9826 15.7189 14 15.6111 14H4.39313C3.84085 14 3.39313 13.5523 3.39313 13C3.39313 12.8912 3.41088 12.7832 3.44568 12.6801L4 11.0385L5.1358 5.90553C5.56686 3.95745 7.10456 2.4887 8.99945 2.10103L9 1.00116C9 0.448236 9.44772 0 10 0ZM16.9538 5.18338C17.6151 5.86067 17.6151 6.96274 16.9538 7.64007C16.8434 7.75318 16.6987 7.80969 16.554 7.80969C16.4093 7.80969 16.2646 7.75318 16.1542 7.64007C15.9334 7.41394 15.9334 7.04732 16.1542 6.82119C16.261 6.71183 16.3198 6.56641 16.3198 6.41173C16.3198 6.25704 16.261 6.11167 16.1542 6.00226C15.9334 5.77613 15.9334 5.40952 16.1542 5.18338C16.375 4.95724 16.733 4.95724 16.9538 5.18338ZM3.55634 5.18338C3.77714 5.40952 3.77714 5.77613 3.55634 6.00226C3.44956 6.11163 3.39072 6.25704 3.39072 6.41173C3.39072 6.56641 3.44956 6.71179 3.55634 6.82119C3.77714 7.04732 3.77714 7.41394 3.55634 7.64007C3.44594 7.75318 3.30124 7.80969 3.15654 7.80969C3.01184 7.80969 2.86714 7.75318 2.75678 7.64007C2.09544 6.96278 2.09544 5.86071 2.75678 5.18338C2.97754 4.95724 3.33554 4.95724 3.55634 5.18338ZM18.2302 9.4475C18.0657 9.4475 17.9014 9.39001 17.7759 9.27494C17.525 9.0449 17.525 8.67194 17.7759 8.4419C18.3815 7.88665 18.715 7.14702 18.715 6.35925C18.715 5.57149 18.3815 4.83186 17.7759 4.27661C17.525 4.04657 17.525 3.67361 17.7759 3.44356C18.0268 3.21352 18.4336 3.21352 18.6845 3.44356C19.5328 4.22132 20 5.25681 20 6.35925C20 7.4617 19.5328 8.49719 18.6845 9.27494C18.559 9.38997 18.3946 9.4475 18.2302 9.4475ZM1.55743 9.4475C1.41273 9.4475 1.26803 9.39099 1.15767 9.27788C0.411105 8.51335 0 7.49547 0 6.41177C0 5.32806 0.411105 4.31018 1.15763 3.54565C1.37843 3.31951 1.73639 3.31955 1.95719 3.54565C2.17799 3.77179 2.17799 4.1384 1.95719 4.36454C1.42426 4.91034 1.13076 5.63739 1.13076 6.41177C1.13076 7.18614 1.42426 7.91319 1.95719 8.45899C2.17799 8.68513 2.17799 9.05174 1.95719 9.27788C1.84683 9.39095 1.70213 9.4475 1.55743 9.4475Z" fill="var(--fill-0, #555555)"/>
</g>
</svg>
