<svg preserveAspectRatio="none" width="100%" height="100%" overflow="visible" style="display: block;" viewBox="0 0 18 18" fill="none" xmlns="http://www.w3.org/2000/svg">
<g id=" ">
<path id="Icon" fill-rule="evenodd" clip-rule="evenodd" d="M1 0C1.55228 0 2 0.447715 2 1V16H17C17.5523 16 18 16.4477 18 17C18 17.5523 17.5523 18 17 18H1C0.447715 18 0 17.5523 0 17V1C0 0.447715 0.447715 0 1 0ZM17.0315 3.00049C17.2731 2.9927 17.517 3.0832 17.7062 3.27366C17.866 3.43464 17.9611 3.64117 17.9903 3.85626L17.996 3.916L18 4V8C18 8.55228 17.5523 9 17 9C16.4477 9 16 8.55228 16 8V6.646L11.3513 11.8748C11.0228 12.2442 10.4923 12.2884 10.1158 11.9963L10.0252 11.9162L8.57194 10.4629L5.61311 13.6975C5.2511 14.0933 4.65615 14.1018 4.28425 13.7166C3.91236 13.3313 3.90434 12.6982 4.26635 12.3025L7.86924 8.36377C8.22677 7.97292 8.81267 7.95904 9.18617 8.33258L10.6298 9.77633L14.876 5H13C12.4872 5 12.0645 4.61396 12.0067 4.11662L12 4C12 3.44772 12.4477 3 13 3L17.0315 3.00049Z" fill="var(--fill-0, #555555)"/>
</g>
</svg>
