<svg preserveAspectRatio="none" width="100%" height="100%" overflow="visible" style="display: block;" viewBox="0 0 20.0001 20" fill="none" xmlns="http://www.w3.org/2000/svg">
<g id=" ">
<path id="Icon" fill-rule="evenodd" clip-rule="evenodd" d="M4.00211 3.99992C5.14119 3.99992 6.06461 3.10451 6.06461 1.99996C6.06461 0.895413 5.14119 0 4.00211 0C2.86302 0 1.9396 0.895413 1.9396 1.99996C1.9396 3.10451 2.86302 3.99992 4.00211 3.99992ZM8 7.51064C8 5.80394 5.9282 4.49991 4.00211 4.49991C2.07001 4.49991 1.00659e-08 5.74368 1.00659e-08 7.52684C1.00659e-08 7.78816 0.211843 8 0.473164 8H7.51064C7.78091 8 8 7.78091 8 7.51064ZM16.0021 16.4999C17.9282 16.4999 20 17.8039 20 19.5106C20 19.7809 19.7809 20 19.5106 20H12.4732C12.2118 20 12 19.7882 12 19.5268C12 17.7437 14.07 16.4999 16.0021 16.4999ZM4.43935 10.1016L4.55481 10.1679L7.55481 12.1679C8.01434 12.4743 8.13851 13.0952 7.83216 13.5547C7.54769 13.9814 6.99203 14.119 6.54617 13.8911L6.44541 13.8321L5.00011 12.87V15C5.00011 15.5128 5.38615 15.9355 5.88349 15.9933L6.00011 16H11.0001C11.5524 16 12.0001 16.4477 12.0001 17C12.0001 17.5128 11.6141 17.9355 11.1167 17.9933L11.0001 18H6.00011C4.40242 18 3.09645 16.7511 3.0052 15.1763L3.00011 15V12.871L1.55481 13.8321C1.09528 14.1384 0.474408 14.0142 0.168056 13.5547C-0.116414 13.128 -0.0296653 12.5622 0.352103 12.2382L0.445406 12.1679L3.44541 10.1679C3.74398 9.9689 4.12292 9.94678 4.43935 10.1016ZM16.0021 12C17.1412 12 18.0646 12.8954 18.0646 14C18.0646 15.1045 17.1412 15.9999 16.0021 15.9999C14.863 15.9999 13.9396 15.1045 13.9396 14C13.9396 12.8954 14.863 12 16.0021 12ZM14 2C15.5977 2 16.9037 3.24892 16.9949 4.82373L17 5V7.129L18.4453 6.16795C18.9048 5.8616 19.5257 5.98577 19.8321 6.4453C20.1165 6.87201 20.0298 7.43783 19.648 7.76176L19.5547 7.83205L16.5547 9.83205C16.2561 10.0311 15.8772 10.0532 15.5608 9.8984L15.4453 9.83205L12.4453 7.83205C11.9858 7.5257 11.8616 6.90483 12.1679 6.4453C12.4524 6.01859 13.0081 5.88105 13.4539 6.10886L13.5547 6.16795L15 7.13V5C15 4.48716 14.614 4.06449 14.1166 4.00673L14 4H9C8.44772 4 8 3.55228 8 3C8 2.48716 8.38604 2.06449 8.88338 2.00673L9 2H14Z" fill="var(--fill-0, #555555)"/>
</g>
</svg>
