<svg preserveAspectRatio="none" width="100%" height="100%" overflow="visible" style="display: block;" viewBox="0 0 18 18" fill="none" xmlns="http://www.w3.org/2000/svg">
<g id=" ">
<path id="Icon" fill-rule="evenodd" clip-rule="evenodd" d="M1 12.0081C1.51284 12.0081 1.93551 12.3941 1.99327 12.8915L2 13.0081V14.9877C2 15.5087 2.38572 15.935 2.87912 15.9932L2.99476 16H5C5.55228 16 6 16.4477 6 17C6 17.5128 5.61396 17.9355 5.11662 17.9933L5 18H2.99476C1.39798 18 0.0960356 16.7442 0.00507665 15.1645L0 14.9877V13.0081C0 12.4558 0.447715 12.0081 1 12.0081ZM17 11.9718C17.5128 11.9718 17.9355 12.3578 17.9933 12.8552L18 12.9718V14.9716C18 16.5676 16.7507 17.8714 15.1762 17.9625L15 17.9676H13.0004C12.4481 17.9676 12.0004 17.5199 12.0004 16.9676C12.0004 16.4548 12.3864 16.0321 12.8837 15.9743L13.0004 15.9676H15C15.5133 15.9676 15.9356 15.5827 15.9933 15.0877L16 14.9716V12.9718C16 12.4195 16.4477 11.9718 17 11.9718ZM12.6201 10.6171C12.8534 10.9593 12.7651 11.4259 12.4228 11.6592C10.4416 13.0099 7.85961 13.065 5.82861 11.8214L5.58095 11.6616C5.23742 11.4301 5.14655 10.964 5.37799 10.6205C5.58838 10.3082 5.99272 10.2047 6.32259 10.3623L6.41905 10.4175L6.44336 10.4339C7.99653 11.4803 10.0305 11.4747 11.5779 10.4198C11.9202 10.1865 12.3868 10.2748 12.6201 10.6171ZM6 5C6.55228 5 7 5.44772 7 6C7 6.55228 6.55228 7 6 7C5.44772 7 5 6.55228 5 6C5 5.44772 5.44772 5 6 5ZM12 5C12.5523 5 13 5.44772 13 6C13 6.55228 12.5523 7 12 7C11.4477 7 11 6.55228 11 6C11 5.44772 11.4477 5 12 5ZM14.9912 0C16.5926 0 17.9033 1.24782 17.9949 2.82328L18 2.99963V5C18 5.55228 17.5523 6 17 6C16.4872 6 16.0645 5.61396 16.0067 5.11662L16 5V2.99963C16 2.48794 15.6115 2.0646 15.1091 2.00674L14.9912 2H13C12.4477 2 12 1.55228 12 1C12 0.487164 12.386 0.0644928 12.8834 0.0067277L13 0H14.9912ZM5 0C5.55228 0 6 0.447715 6 1C6 1.55228 5.55228 2 5 2H2.99738C2.44535 2 2 2.44298 2 2.98673V4.9919C2 5.54418 1.55228 5.9919 1 5.9919C0.447715 5.9919 0 5.54418 0 4.9919V2.98673C0 1.33601 1.34316 0 2.99738 0H5Z" fill="var(--fill-0, #555555)"/>
</g>
</svg>
