<svg preserveAspectRatio="none" width="100%" height="100%" overflow="visible" style="display: block;" viewBox="0 0 18 18" fill="none" xmlns="http://www.w3.org/2000/svg">
<g id=" ">
<path id="Icon" fill-rule="evenodd" clip-rule="evenodd" d="M14.0714 0C16.2411 0 18 1.75888 18 3.92857V10.0714C18 12.2411 16.2411 14 14.0714 14H3.92857C1.75888 14 0 12.2411 0 10.0714V3.92857C0 1.75888 1.75888 0 3.92857 0H14.0714ZM14.0714 2H3.92857C2.86345 2 2 2.86345 2 3.92857V10.0714C2 11.1365 2.86345 12 3.92857 12H14.0714C15.1365 12 16 11.1365 16 10.0714V3.92857C16 2.86345 15.1365 2 14.0714 2ZM5.50132 8C6.70512 8 8 8.74514 8 9.72038C8 9.87481 7.87481 10 7.72038 10H3.27037C3.12105 10 3 9.87895 3 9.72963C3 8.71071 4.29376 8 5.50132 8ZM14 7C14.5523 7 15 7.44772 15 8C15 8.55228 14.5523 9 14 9H10C9.44772 9 9 8.55228 9 8C9 7.44772 9.44772 7 10 7H14ZM5.5 4C6.32843 4 7 4.67157 7 5.5C7 6.32843 6.32843 7 5.5 7C4.67157 7 4 6.32843 4 5.5C4 4.67157 4.67157 4 5.5 4ZM13 4C13.5523 4 14 4.44772 14 5C14 5.55228 13.5523 6 13 6H10C9.44772 6 9 5.55228 9 5C9 4.44772 9.44772 4 10 4H13ZM11.0357 15C11.5683 15 12 15.4317 12 15.9643L11.9993 16H13.8214C14.354 16 14.7857 16.4317 14.7857 16.9643V17.0357C14.7857 17.5683 14.354 18 13.8214 18H4.17857C3.64601 18 3.21429 17.5683 3.21429 17.0357V16.9643C3.21429 16.4317 3.64601 16 4.17857 16H5.99929L6 15.9643C6 15.4317 6.43173 15 6.96429 15H11.0357Z" fill="var(--fill-0, #555555)"/>
</g>
</svg>
