<svg preserveAspectRatio="none" width="100%" height="100%" overflow="visible" style="display: block;" viewBox="0 0 16.6155 16.6155" fill="none" xmlns="http://www.w3.org/2000/svg">
<g id=" ">
<path id="Icon" fill-rule="evenodd" clip-rule="evenodd" d="M6.29167 0.114105C6.34328 0.132884 6.39404 0.15391 6.44381 0.177123L7.4624 0.652191C7.99827 0.902122 8.61727 0.902122 9.15314 0.652191L10.1717 0.177123C11.1149 -0.262768 12.2361 0.145215 12.676 1.08838C12.6992 1.13815 12.7202 1.18891 12.739 1.24052L13.1233 2.29669C13.3255 2.85234 13.7632 3.29004 14.3189 3.49223L15.375 3.87655C16.353 4.23242 16.8573 5.31371 16.5014 6.29167C16.4827 6.34328 16.4616 6.39404 16.4384 6.44381L15.9634 7.4624C15.7134 7.99827 15.7134 8.61727 15.9634 9.15314L16.4384 10.1717C16.8783 11.1149 16.4703 12.2361 15.5272 12.676C15.4774 12.6992 15.4266 12.7202 15.375 12.739L14.3189 13.1233C13.7632 13.3255 13.3255 13.7632 13.1233 14.3189L12.739 15.375C12.3831 16.353 11.3018 16.8573 10.3239 16.5014C10.2723 16.4827 10.2215 16.4616 10.1717 16.4384L9.15314 15.9634C8.61727 15.7134 7.99827 15.7134 7.4624 15.9634L6.44381 16.4384C5.50065 16.8783 4.37946 16.4703 3.93957 15.5272C3.91636 15.4774 3.89533 15.4266 3.87655 15.375L3.49223 14.3189C3.29004 13.7632 2.85234 13.3255 2.29669 13.1233L1.24052 12.739C0.262549 12.3831 -0.241762 11.3018 0.114105 10.3239C0.132884 10.2723 0.15391 10.2215 0.177123 10.1717L0.652191 9.15314C0.902122 8.61727 0.902122 7.99827 0.652191 7.4624L0.177123 6.44381C-0.262768 5.50065 0.145215 4.37946 1.08838 3.93957C1.13815 3.91636 1.18891 3.89533 1.24052 3.87655L2.29669 3.49223C2.85234 3.29004 3.29004 2.85234 3.49223 2.29669L3.87655 1.24052C4.23242 0.262549 5.31371 -0.241762 6.29167 0.114105ZM8.30777 5.30777C6.65092 5.30777 5.30777 6.65092 5.30777 8.30777C5.30777 9.96463 6.65092 11.3078 8.30777 11.3078C9.96463 11.3078 11.3078 9.96463 11.3078 8.30777C11.3078 6.65092 9.96463 5.30777 8.30777 5.30777Z" fill="var(--fill-0, #555555)"/>
</g>
</svg>
