<svg preserveAspectRatio="none" width="100%" height="100%" overflow="visible" style="display: block;" viewBox="0 0 2.00002 19.1716" fill="none" xmlns="http://www.w3.org/2000/svg">
<path id="Union" fill-rule="evenodd" clip-rule="evenodd" d="M1 0C0.447715 0 0 0.447715 0 1V2C0 2.55228 0.447715 3 1 3C1.55228 3 2 2.55228 2 2V1C2 0.447715 1.55228 0 1 0ZM1.00002 16.1716C0.447735 16.1716 2.0216e-05 16.6193 2.0216e-05 17.1716V18.1716C2.0216e-05 18.7239 0.447735 19.1716 1.00002 19.1716C1.5523 19.1716 2.00002 18.7239 2.00002 18.1716V17.1716C2.00002 16.6193 1.5523 16.1716 1.00002 16.1716Z" fill="var(--fill-0, #555555)"/>
</svg>
