<svg preserveAspectRatio="none" width="100%" height="100%" overflow="visible" style="display: block;" viewBox="0 0 18 18" fill="none" xmlns="http://www.w3.org/2000/svg">
<g id=" ">
<path id="Icon" fill-rule="evenodd" clip-rule="evenodd" d="M9.03303 0C9.30917 0 9.53303 0.211912 9.53303 0.473319L9.53363 1.42907C13.3176 1.68864 16.3382 4.72304 16.572 8.51081L17.5263 8.51085C17.7879 8.51085 18 8.73471 18 9.01085C18 9.28699 17.7879 9.51085 17.5263 9.51085L16.5685 9.51057C16.3099 13.2736 13.3 16.2809 9.53363 16.5393L9.53303 17.5267C9.53303 17.7881 9.30917 18 9.03303 18C8.75689 18 8.53303 17.7881 8.53303 17.5267L8.53305 16.5427C4.74192 16.3092 1.70482 13.2913 1.44502 9.51057L0.473736 9.51085C0.212099 9.51085 0 9.28699 0 9.01085C0 8.73471 0.212099 8.51085 0.473736 8.51085L1.44156 8.51081C1.67646 4.70533 4.72421 1.66027 8.53305 1.42561L8.53303 0.473319C8.53303 0.211912 8.75689 0 9.03303 0ZM9.09091 2.83158L9.03303 2.83784C9.00985 2.83784 8.98703 2.83634 8.96469 2.83345L9.00677 2.83102C5.60548 2.83102 2.8482 5.58588 2.8482 8.98417C2.8482 12.3484 5.55045 15.082 8.90462 15.1365L8.94315 15.126L9.03303 15.1184C9.07671 15.1184 9.11908 15.1237 9.15946 15.1336L9.00677 15.1373C12.408 15.1373 15.1653 12.3825 15.1653 8.98417C15.1653 5.61395 12.4534 2.87657 9.09091 2.83158ZM9.00677 3.77766C11.8848 3.77766 14.2179 6.10869 14.2179 8.98417C14.2179 11.8596 11.8848 14.1907 9.00677 14.1907C6.12876 14.1907 3.79567 11.8596 3.79567 8.98417C3.79567 6.10869 6.12876 3.77766 9.00677 3.77766ZM11.4702 6.8069L8.95224 10.1612L7.40541 8.64617C7.21857 8.46318 6.91863 8.46615 6.73548 8.65282C6.55232 8.8395 6.5553 9.13917 6.74214 9.32217L8.67513 11.2154C8.87965 11.4158 9.21392 11.3904 9.38575 11.1614L12.2282 7.37488C12.3852 7.16576 12.3427 6.86908 12.1334 6.71224C11.9241 6.55539 11.6272 6.59777 11.4702 6.8069Z" fill="var(--fill-0, #555555)"/>
</g>
</svg>
