<svg preserveAspectRatio="none" width="100%" height="100%" overflow="visible" style="display: block;" viewBox="0 0 14 17.9988" fill="none" xmlns="http://www.w3.org/2000/svg">
<g id=" ">
<path id="Icon" fill-rule="evenodd" clip-rule="evenodd" d="M7.2921 0C8.8386 1.54082 9.61303 3.07928 9.61539 4.61538C9.61762 6.07497 8.92279 7.53668 7.5309 9.00051L7.96943 13.0479C10.9466 13.3353 14 14.8908 14 17.0356C14 17.5676 13.5687 17.9988 13.0368 17.9988H0.99478C0.445378 17.9988 0 17.5534 0 17.004C0 14.8109 3.36209 13.1866 6.45775 13.015L7.00272 8.91543C5.66977 7.48004 5.0022 6.04669 5 4.61538C4.99766 3.07928 5.76169 1.54082 7.2921 0ZM4.79907 9.35111C5.43516 9.78158 5.85794 10.5304 6.06742 11.5975C4.99765 11.8058 4.14471 11.6947 3.50863 11.2643C2.87254 10.8338 2.45135 10.0826 2.24504 9.01078C3.31164 8.80721 4.16298 8.92065 4.79907 9.35111ZM13.4009 6.62098C13.404 8.25827 12.9988 9.48487 12.1854 10.3008C11.372 11.1167 10.1479 11.5243 8.51309 11.5238C8.5161 9.89256 8.92431 8.66898 9.7377 7.85308C10.5511 7.0372 11.7722 6.6265 13.4009 6.62098Z" fill="var(--fill-0, #555555)"/>
</g>
</svg>
