<svg preserveAspectRatio="none" width="100%" height="100%" overflow="visible" style="display: block;" viewBox="0 0 20 15.2308" fill="none" xmlns="http://www.w3.org/2000/svg">
<g id=" ">
<path id="Icon" fill-rule="evenodd" clip-rule="evenodd" d="M2.03301 12.5L6.62738 12.5072C6.6483 12.6331 6.65918 12.7623 6.65918 12.8942C6.65918 14.1847 5.61619 15.2308 4.32959 15.2308L4.17009 15.2254C2.95789 15.1432 2 14.1309 2 12.8942C2 12.7598 2.0113 12.6281 2.03301 12.5ZM19.2305 11.4916C19.2813 11.6087 19.3231 11.7315 19.355 11.8594C19.6672 13.1116 18.9083 14.379 17.6599 14.6903L17.5039 14.7236C16.3078 14.9371 15.1334 14.1866 14.8342 12.9866C14.8017 12.8563 14.7808 12.7257 14.7709 12.5961L19.2305 11.4916ZM15.1349 0.0803513C15.7134 0.387503 16.0027 0.904301 16.0027 1.63075C16.0027 2.35719 15.6448 2.84673 14.9291 3.09938L16.597 8.64101L17.1917 8.64156C18.4419 8.64156 19.3463 9.17984 19.905 10.2564L20 10.452L14.9367 11.7632H1.16934C0.703541 11.7631 0.282202 11.4866 0 11.1013V9.7149C0 8.37036 0.797225 6.91098 2.39167 5.33676C2.11435 4.93062 2.03823 4.52304 2.16407 4.1135C2.32065 3.60393 2.7485 3.30968 3.4476 3.23077L8.66547 3.34914C9.20428 3.38722 9.47368 3.73718 9.47368 4.39903C9.47368 4.62104 9.44337 4.81487 9.38274 4.98052C9.91144 5.76883 7.7404 9.7149 9.13251 9.7149H13.231C14.181 9.19196 14.5082 8.44972 14.2126 7.48817C13.8003 6.14736 13.0488 4.28267 12.9565 2.23607L12.948 1.84705C12.9116 1.84672 12.8748 1.84296 12.8378 1.83551L11.4486 1.55548C11.1332 1.49192 10.929 1.18397 10.9924 0.867673C11.0557 0.551372 11.3627 0.346489 11.6781 0.410054L13.0673 0.690084C13.0985 0.696371 13.1286 0.705048 13.1575 0.715887L13.1711 0.685213C13.4885 0.0719751 14.1431 -0.129645 15.1349 0.0803513ZM6.47638 6.99999H3.52362C3.23443 6.99999 3 7.22385 3 7.49999C3 7.77613 3.23443 7.99999 3.52362 7.99999H6.47638C6.76557 7.99999 7 7.77613 7 7.49999C7 7.22385 6.76557 6.99999 6.47638 6.99999Z" fill="var(--fill-0, #555555)"/>
</g>
</svg>
