<svg preserveAspectRatio="none" width="100%" height="100%" overflow="visible" style="display: block;" viewBox="0 0 14 16" fill="none" xmlns="http://www.w3.org/2000/svg">
<g id=" ">
<path id="Icon" fill-rule="evenodd" clip-rule="evenodd" d="M10 8C12.2091 8 14 9.79086 14 12C14 14.2091 12.2091 16 10 16C7.79086 16 6 14.2091 6 12C6 9.79086 7.79086 8 10 8ZM11 0C12.1046 0 13 0.89543 13 2L13.0012 8.00054C12.1653 7.3723 11.1261 7 10 7C7.23858 7 5 9.23858 5 12C5 13.1261 5.3723 14.1653 6.00054 15.0012L2 15C0.89543 15 0 14.1046 0 13V2C0 0.89543 0.89543 0 2 0H11ZM10 9.99548C9.72386 9.99548 9.5 10.2193 9.5 10.4955V12.9746C9.5 13.2508 9.72386 13.4746 10 13.4746H12.0248C12.3009 13.4746 12.5248 13.2508 12.5248 12.9746C12.5248 12.6985 12.3009 12.4746 12.0248 12.4746H10.5V10.4955C10.5 10.2193 10.2761 9.99548 10 9.99548ZM4.53558 8.49591H3C2.72386 8.49591 2.5 8.71977 2.5 8.99591C2.5 9.27205 2.72386 9.49591 3 9.49591H4.53558C4.81173 9.49591 5.03558 9.27205 5.03558 8.99591C5.03558 8.71977 4.81173 8.49591 4.53558 8.49591ZM10 5.49591H3C2.72386 5.49591 2.5 5.71977 2.5 5.99591C2.5 6.27205 2.72386 6.49591 3 6.49591H10C10.2761 6.49591 10.5 6.27205 10.5 5.99591C10.5 5.71977 10.2761 5.49591 10 5.49591ZM10 2.49591H3C2.72386 2.49591 2.5 2.71977 2.5 2.99591C2.5 3.27205 2.72386 3.49591 3 3.49591H10C10.2761 3.49591 10.5 3.27205 10.5 2.99591C10.5 2.71977 10.2761 2.49591 10 2.49591Z" fill="var(--fill-0, #555555)"/>
</g>
</svg>
