<svg preserveAspectRatio="none" width="100%" height="100%" overflow="visible" style="display: block;" viewBox="0 0 24 24" fill="none" xmlns="http://www.w3.org/2000/svg">
<g id="Icon">
<circle id="Ellipse 1" cx="12" cy="12" r="4" stroke="var(--stroke-0, #555555)" stroke-width="2"/>
<path id="Union" fill-rule="evenodd" clip-rule="evenodd" d="M12 1C11.4477 1 11 1.44772 11 2V4C11 4.55228 11.4477 5 12 5C12.5523 5 13 4.55228 13 4V2C13 1.44772 12.5523 1 12 1ZM12 19C11.4477 19 11 19.4477 11 20V22C11 22.5523 11.4477 23 12 23C12.5523 23 13 22.5523 13 22V20C13 19.4477 12.5523 19 12 19Z" fill="var(--fill-0, #555555)"/>
<path id="Union_2" fill-rule="evenodd" clip-rule="evenodd" d="M23 12C23 11.4477 22.5523 11 22 11L20 11C19.4477 11 19 11.4477 19 12C19 12.5523 19.4477 13 20 13L22 13C22.5523 13 23 12.5523 23 12ZM5 12C5 11.4477 4.55228 11 4 11L2 11C1.44772 11 1 11.4477 1 12C1 12.5523 1.44772 13 2 13L4 13C4.55228 13 5 12.5523 5 12Z" fill="var(--fill-0, #555555)"/>
<path id="Union_3" fill-rule="evenodd" clip-rule="evenodd" d="M18.7782 18.7781C19.1687 18.3876 19.1687 17.7545 18.7782 17.3639L18.0711 16.6568C17.6805 16.2663 17.0474 16.2663 16.6569 16.6568C16.2663 17.0473 16.2663 17.6805 16.6569 18.071L17.364 18.7781C17.7545 19.1687 18.3876 19.1687 18.7782 18.7781ZM7.34316 7.3431C7.73369 6.95258 7.73369 6.31941 7.34316 5.92889L6.63605 5.22178C6.24553 4.83126 5.61237 4.83126 5.22184 5.22178C4.83132 5.6123 4.83132 6.24547 5.22184 6.63599L5.92895 7.3431C6.31947 7.73362 6.95264 7.73363 7.34316 7.3431Z" fill="var(--fill-0, #555555)"/>
<path id="Union_4" fill-rule="evenodd" clip-rule="evenodd" d="M5.22184 18.7782C5.61236 19.1687 6.24552 19.1687 6.63605 18.7782L7.34316 18.071C7.73368 17.6805 7.73368 17.0474 7.34316 16.6568C6.95263 16.2663 6.31947 16.2663 5.92894 16.6568L5.22184 17.3639C4.83131 17.7545 4.83131 18.3876 5.22184 18.7782ZM16.6569 7.34309C17.0474 7.73362 17.6806 7.73362 18.0711 7.34309L18.7782 6.63599C19.1687 6.24546 19.1687 5.6123 18.7782 5.22177C18.3877 4.83125 17.7545 4.83125 17.364 5.22177L16.6569 5.92888C16.2663 6.3194 16.2663 6.95257 16.6569 7.34309Z" fill="var(--fill-0, #555555)"/>
</g>
</svg>
