<svg preserveAspectRatio="none" width="100%" height="100%" overflow="visible" style="display: block;" viewBox="0 0 16 12" fill="none" xmlns="http://www.w3.org/2000/svg">
<g id=" ">
<path id="Icon" fill-rule="evenodd" clip-rule="evenodd" d="M14 0C15.1046 0 16 0.89543 16 2V10C16 11.1046 15.1046 12 14 12H2C0.89543 12 0 11.1046 0 10V2C0 0.89543 0.89543 0 2 0H14ZM14.416 2.22261C14.2628 1.99286 13.9524 1.9308 13.7226 2.084L8.83328 5.34429C8.32947 5.68024 7.67307 5.68031 7.16918 5.34446L2.27731 2.08395C2.04753 1.93079 1.7371 1.99291 1.58395 2.22269L1.5408 2.30195C1.44667 2.51952 1.51844 2.77992 1.72269 2.91605L5.38995 5.35995L2.64372 8.1492C2.44997 8.34596 2.45243 8.66254 2.6492 8.85628L2.71889 8.9136C2.9148 9.04708 3.18406 9.02571 3.35628 8.8508L6.23595 5.92395L6.61457 6.17657L6.77489 6.27496C7.59013 6.73411 8.60086 6.7012 9.38807 6.17628L9.73095 5.94695L12.647 8.85411C12.8426 9.04906 13.1592 9.04857 13.3541 8.853L13.4119 8.78366C13.5465 8.58858 13.5268 8.31919 13.353 8.14589L10.5799 5.38095L14.2774 2.916C14.5071 2.7628 14.5692 2.45236 14.416 2.22261Z" fill="var(--fill-0, #555555)"/>
</g>
</svg>
