<svg preserveAspectRatio="none" width="100%" height="100%" overflow="visible" style="display: block;" viewBox="0 0 16.002 16" fill="none" xmlns="http://www.w3.org/2000/svg">
<g id=" ">
<path id="Icon" fill-rule="evenodd" clip-rule="evenodd" d="M15.002 12C15.5543 12 16.002 11.5523 16.002 11C16.002 10.4477 15.5543 10 15.002 10L1.00199 10C0.0624093 10 -0.358518 11.1784 0.368429 11.7737L5.25319 15.7737C5.6805 16.1236 6.31054 16.0609 6.66045 15.6336C7.01035 15.2063 6.94761 14.5762 6.52031 14.2263L3.80157 12H15.002ZM12.1907 4.00003L1 4.00003C0.447717 4.00003 1.90735e-06 4.44775 1.90735e-06 5.00003C1.90735e-06 5.55232 0.447717 6.00003 1 6.00003L15 6.00003C15.9407 6.00003 16.361 4.81931 15.6319 4.22494L10.7251 0.224944C10.2971 -0.124019 9.66714 -0.0598922 9.31818 0.368176C8.96921 0.796245 9.03334 1.42615 9.46141 1.77512L12.1907 4.00003Z" fill="var(--fill-0, #555555)"/>
</g>
</svg>
