<svg preserveAspectRatio="none" width="100%" height="100%" overflow="visible" style="display: block;" viewBox="0 0 2.00002 19.1716" fill="none" xmlns="http://www.w3.org/2000/svg">
<path id="Union" fill-rule="evenodd" clip-rule="evenodd" d="M1.00002 0C0.447737 0 2.15769e-05 0.447715 2.15769e-05 1V2C2.15769e-05 2.55228 0.447737 3 1.00002 3C1.55231 3 2.00002 2.55228 2.00002 2V1C2.00002 0.447715 1.55231 0 1.00002 0ZM1 16.1716C0.447715 16.1716 0 16.6193 0 17.1716V18.1716C0 18.7239 0.447715 19.1716 1 19.1716C1.55228 19.1716 2 18.7239 2 18.1716V17.1716C2 16.6193 1.55228 16.1716 1 16.1716Z" fill="var(--fill-0, #555555)"/>
</svg>
