<svg preserveAspectRatio="none" width="100%" height="100%" overflow="visible" style="display: block;" viewBox="0 0 12 15.6866" fill="none" xmlns="http://www.w3.org/2000/svg">
<g id=" ">
<path id="Icon" fill-rule="evenodd" clip-rule="evenodd" d="M6 0C9.31371 0 12 2.6266 12 5.86667C12 6.84152 11.7568 7.76084 11.3265 8.5698C10.6908 9.76512 9.04598 12.0737 6.39221 15.4956C6.36589 15.5278 6.33624 15.5572 6.30328 15.5826C6.08457 15.7512 5.7706 15.7106 5.60203 15.4918C2.95347 12.0721 1.3104 9.76601 0.674679 8.57209C0.243638 7.76258 0 6.84244 0 5.86667C0 2.6266 2.68629 0 6 0ZM6 4C4.89543 4 4 4.89543 4 6C4 7.10457 4.89543 8 6 8C7.10457 8 8 7.10457 8 6C8 4.89543 7.10457 4 6 4Z" fill="var(--fill-0, #555555)"/>
</g>
</svg>
