<svg preserveAspectRatio="none" width="100%" height="100%" overflow="visible" style="display: block;" viewBox="0 0 17 13.199" fill="none" xmlns="http://www.w3.org/2000/svg">
<g id=" ">
<path id="Icon" fill-rule="evenodd" clip-rule="evenodd" d="M15 0C16.1046 0 17 0.89543 17 2V10C17 11.1046 16.1046 12 15 12H3.17946L1.53586 13.0432C1.06957 13.3391 0.451646 13.201 0.155696 12.7347C0.0540014 12.5745 0 12.3886 0 12.1989V2C0 0.89543 0.89543 0 2 0H15ZM13.5 5C12.6716 5 12 5.67157 12 6.5C12 7.32843 12.6716 8 13.5 8C14.3284 8 15 7.32843 15 6.5C15 5.67157 14.3284 5 13.5 5ZM8.5 5C7.67157 5 7 5.67157 7 6.5C7 7.32843 7.67157 8 8.5 8C9.32843 8 10 7.32843 10 6.5C10 5.67157 9.32843 5 8.5 5ZM3.5 5C2.67157 5 2 5.67157 2 6.5C2 7.32843 2.67157 8 3.5 8C4.32843 8 5 7.32843 5 6.5C5 5.67157 4.32843 5 3.5 5Z" fill="var(--fill-0, #555555)"/>
</g>
</svg>
