<svg preserveAspectRatio="none" width="100%" height="100%" overflow="visible" style="display: block;" viewBox="0 0 16 12" fill="none" xmlns="http://www.w3.org/2000/svg">
<g id=" ">
<path id="Icon" fill-rule="evenodd" clip-rule="evenodd" d="M14 0C15.1046 0 16 0.89543 16 2V10C16 11.1046 15.1046 12 14 12H2C0.89543 12 0 11.1046 0 10V2C0 0.89543 0.89543 0 2 0H14ZM7.92364 4.46122C6.78866 3.67497 5.2312 3.95766 4.44495 5.09264L1.58899 9.21527C1.43174 9.44227 1.48828 9.75376 1.71527 9.91101C1.94227 10.0683 2.25376 10.0117 2.41101 9.78473L5.26697 5.66209C5.73872 4.98111 6.6732 4.81149 7.35418 5.28324C7.50218 5.38577 7.63051 5.5141 7.73303 5.66209L10.589 9.78473C10.7462 10.0117 11.0577 10.0683 11.2847 9.91101L11.354 9.85321C11.5216 9.68558 11.5508 9.41705 11.411 9.21527L10.064 7.271L10.8277 6.34422C11.0032 6.131 11.3183 6.10041 11.5315 6.27588C11.5663 6.30453 11.5971 6.33774 11.623 6.37463L14.0191 9.78732C14.1778 10.0133 14.4897 10.0679 14.7157 9.9092C14.9417 9.75052 14.9962 9.43868 14.8375 9.21268L12.4414 5.8C12.3637 5.68933 12.2713 5.58967 12.1669 5.50374L12.0436 5.41227C11.4107 4.99093 10.5491 5.10909 10.0555 5.70877L9.47196 6.416L8.55505 5.09264C8.38418 4.84598 8.1703 4.63209 7.92364 4.46122ZM10 2C9.44772 2 9 2.44772 9 3C9 3.55228 9.44772 4 10 4C10.5523 4 11 3.55228 11 3C11 2.44772 10.5523 2 10 2Z" fill="var(--fill-0, #555555)"/>
</g>
</svg>
