<svg preserveAspectRatio="none" width="100%" height="100%" overflow="visible" style="display: block;" viewBox="0 0 16 16" fill="none" xmlns="http://www.w3.org/2000/svg">
<g id=" ">
<path id="Icon" fill-rule="evenodd" clip-rule="evenodd" d="M8 0C12.4183 0 16 3.58172 16 8C16 12.4183 12.4183 16 8 16C3.58172 16 0 12.4183 0 8C0 3.58172 3.58172 0 8 0ZM8 3.5C7.72386 3.5 7.5 3.72386 7.5 4V9C7.5 9.27614 7.72386 9.5 8 9.5H12C12.2761 9.5 12.5 9.27614 12.5 9C12.5 8.72386 12.2761 8.5 12 8.5H8.5V4C8.5 3.72386 8.27614 3.5 8 3.5Z" fill="var(--fill-0, #555555)"/>
</g>
</svg>
