<svg preserveAspectRatio="none" width="100%" height="100%" overflow="visible" style="display: block;" viewBox="0 0 18 15" fill="none" xmlns="http://www.w3.org/2000/svg">
<g id=" ">
<path id="Icon" fill-rule="evenodd" clip-rule="evenodd" d="M16 0C17.1046 0 18 0.89543 18 2V12C18 13.1046 17.1046 14 16 14H15C15 14.5523 14.5523 15 14 15H13C12.4477 15 12 14.5523 12 14H6C6 14.5523 5.55228 15 5 15H4C3.44772 15 3 14.5523 3 14H2C0.89543 14 0 13.1046 0 12V2C0 0.89543 0.89543 0 2 0H16ZM14.25 2H3.75C2.7835 2 2 2.74619 2 3.66667V10.3333C2 11.2538 2.7835 12 3.75 12H14.25C15.2165 12 16 11.2538 16 10.3333V3.66667C16 2.74619 15.2165 2 14.25 2ZM14.1429 3C14.6162 3 15 3.35817 15 3.8V10.2C15 10.6418 14.6162 11 14.1429 11H3.85714C3.38376 11 3 10.6418 3 10.2V3.8C3 3.35817 3.38376 3 3.85714 3H14.1429ZM9 4C7.34315 4 6 5.34315 6 7C6 8.65685 7.34315 10 9 10C10.6569 10 12 8.65685 12 7C12 5.34315 10.6569 4 9 4ZM13.5 7C13.2239 7 13 7.22386 13 7.5V9.5C13 9.77614 13.2239 10 13.5 10C13.7761 10 14 9.77614 14 9.5V7.5C14 7.22386 13.7761 7 13.5 7ZM6.93419 7.57148L7.84842 7.57241C7.99619 7.86913 8.25526 8.10067 8.57098 8.2124L8.57173 9.10005C7.7802 8.9395 7.14706 8.34268 6.93419 7.57148ZM11.0658 7.57148C10.8659 8.29557 10.2956 8.86594 9.57148 9.06581L9.57241 8.15158C9.82285 8.02686 10.0269 7.82285 10.1516 7.57241L11.0658 7.57148ZM9 6.57143C9.23669 6.57143 9.42857 6.76331 9.42857 7C9.42857 7.23669 9.23669 7.42857 9 7.42857C8.76331 7.42857 8.57143 7.23669 8.57143 7C8.57143 6.76331 8.76331 6.57143 9 6.57143ZM8.57173 4.89995L8.57098 5.7876C8.20602 5.91675 7.91675 6.20602 7.7876 6.57098L6.89995 6.57173C7.0703 5.73186 7.73186 5.0703 8.57173 4.89995ZM9.57148 4.93419C10.3427 5.14706 10.9395 5.7802 11.1001 6.57173L10.2124 6.57098C10.1007 6.25526 9.86913 5.99619 9.57241 5.84842L9.57148 4.93419Z" fill="var(--fill-0, #555555)"/>
</g>
</svg>
