<svg preserveAspectRatio="none" width="100%" height="100%" overflow="visible" style="display: block;" viewBox="0 0 23.4603 13.0183" fill="none" xmlns="http://www.w3.org/2000/svg">
<g id="Group 887">
<path id="Vector 2" fill-rule="evenodd" clip-rule="evenodd" d="M11.3947 8.7392C11.196 8.7193 11.0042 8.81846 10.8902 8.98237C10.3595 9.74513 8.62609 11.8084 5.55462 11.5363C3.80097 11.3809 2.19826 10.4507 1.19616 8.8547C0.194058 7.2587 0.471801 5.26649 0.598047 4.71381C0.822677 3.73041 1.19974 2.91312 2.57463 1.75946C3.17851 1.25274 4.86144 0.33895 6.47193 0.481639C9.55518 0.754817 10.9368 3.09849 11.3333 3.93073C11.4171 4.10658 11.5838 4.23329 11.7779 4.25026L21.3235 5.0854C21.4406 5.09564 21.5503 5.14682 21.6335 5.22994L22.6973 6.2938C22.8926 6.48906 22.8926 6.80564 22.6973 7.0009L20.9719 8.7263C20.7767 8.92156 20.4601 8.92156 20.2648 8.7263L19.6763 8.13783C19.4811 7.94257 19.1645 7.94257 18.9692 8.13783L18.0872 9.01983C17.892 9.21509 17.5754 9.21509 17.3801 9.01983L16.4202 8.05995C16.225 7.86468 15.9084 7.86468 15.7131 8.05995L14.8702 8.90285C14.7642 9.0089 14.6161 9.06175 14.4669 9.04681L11.3947 8.7392ZM7.78132 7.19181L4.19711 6.89456C4.19711 6.89456 3.57732 6.84316 3.64666 6.00702C3.72253 5.09226 4.34231 5.14366 4.34231 5.14366L7.92653 5.44091C7.92653 5.44091 8.76112 5.51012 8.68112 6.42454C8.608 7.26037 7.78132 7.19181 7.78132 7.19181Z" fill="var(--fill-0, #555555)"/>
</g>
</svg>
