<svg preserveAspectRatio="none" width="100%" height="100%" overflow="visible" style="display: block;" viewBox="0 0 18 14.019" fill="none" xmlns="http://www.w3.org/2000/svg">
<g id=" ">
<path id="Icon" fill-rule="evenodd" clip-rule="evenodd" d="M9 0C13.9706 0 18 4.02944 18 9C18 10.6097 17.576 12.1598 16.7831 13.5219C16.5052 13.9992 15.893 14.1609 15.4157 13.8831C14.9384 13.6052 14.7767 12.993 15.0546 12.5157C15.5883 11.5988 15.9067 10.5734 15.9824 9.50059L15 9.5C14.7239 9.5 14.5 9.27614 14.5 9C14.5 8.72386 14.7239 8.5 15 8.5L15.9825 8.50061C15.738 5.03297 12.9679 2.26252 9.50039 2.01761L9.5 3C9.5 3.27614 9.27614 3.5 9 3.5C8.72386 3.5 8.5 3.27614 8.5 3L8.50061 2.01754C5.03264 2.26199 2.26199 5.03264 2.01754 8.50061L3.00244 8.5C3.27858 8.5 3.50244 8.72386 3.50244 9C3.50244 9.27614 3.27858 9.5 3.00244 9.5L2.01761 9.50071C2.09322 10.5722 2.41097 11.5965 2.94363 12.5127C3.22123 12.9901 3.05922 13.6022 2.58178 13.8798C2.10433 14.1574 1.49224 13.9954 1.21464 13.5179C0.423206 12.1568 0 10.6081 0 9C0 4.02944 4.02944 0 9 0ZM8.99743 5L10.0177 11.996L9.99983 11.995C10 12.5128 9.61396 12.9355 9.11662 12.9933L9 13C8.44772 13 8 12.5523 8 12L7.98883 11.996L8.99743 5Z" fill="var(--fill-0, #555555)"/>
</g>
</svg>
