<svg width="404" height="152" viewBox="0 0 404 152" fill="none" xmlns="http://www.w3.org/2000/svg">
<g filter="url(#filter0_dd_229_509)">
<path d="M22 58.8C22 54.3196 22 52.0793 22.872 50.368C23.6389 48.8627 24.8628 47.6389 26.3681 46.8719C28.0794 46 30.3273 46 34.8229 46C85.6633 46.0005 102.731 46.0084 144.185 46.1298C147.019 46.1382 148.436 46.1423 149.684 46.5694C150.793 46.9489 151.792 47.5584 152.637 48.3703C153.588 49.2843 154.246 50.5529 155.562 53.0899C166.369 73.9286 176.005 89 202 89C227.717 89 238.954 74.6478 248.583 53.7753C249.93 50.8557 250.604 49.3959 251.568 48.409C252.445 47.5114 253.428 46.8825 254.61 46.4622C255.91 46 257.44 46.0001 260.499 46.0001C301.101 46.0004 318.881 46.0001 369.177 46C373.673 46 375.921 46 377.632 46.8719C379.137 47.6389 380.361 48.8628 381.128 50.3681C382 52.0794 382 54.3196 382 58.8V126H22V58.8Z" fill="white"/>
</g>
<g filter="url(#filter1_dd_229_509)">
<circle cx="202" cy="46" r="28" fill="#F58220"/>
</g>
<path fill-rule="evenodd" clip-rule="evenodd" d="M196.38 47.2381C196.566 47.2381 196.716 47.3885 196.716 47.5741V50.3307C196.716 50.5162 196.566 50.6667 196.38 50.6667H195.236C195.05 50.6667 194.9 50.5162 194.9 50.3307V47.5741C194.9 47.3885 195.05 47.2381 195.236 47.2381H196.38ZM191.179 42.1769C191.365 42.1769 191.515 42.3273 191.515 42.5129L191.514 47.2369L193.821 47.2381C194.006 47.2381 194.157 47.3885 194.157 47.5741V48.698C194.157 48.8836 194.006 49.034 193.821 49.034H190.035C189.849 49.034 189.699 48.8836 189.699 48.698V42.5129C189.699 42.3273 189.849 42.1769 190.035 42.1769H191.179ZM196.38 42.1769C196.566 42.1769 196.716 42.3273 196.716 42.5129V46.1674C196.716 46.353 196.566 46.5034 196.38 46.5034H195.236C195.05 46.5034 194.9 46.353 194.9 46.1674L194.899 43.9719L192.677 43.9728C192.491 43.9728 192.341 43.8224 192.341 43.6368V42.5129C192.341 42.3273 192.491 42.1769 192.677 42.1769H196.38ZM193.922 44.7891C194.015 44.7891 194.09 44.8643 194.09 44.9571V46.2878C194.09 46.3806 194.015 46.4558 193.922 46.4558H192.591C192.498 46.4558 192.423 46.3806 192.423 46.2878V44.9571C192.423 44.8643 192.498 44.7891 192.591 44.7891H193.922ZM193.506 45.2891H193.007C192.961 45.2891 192.923 45.3267 192.923 45.3731V45.8718C192.923 45.9182 192.961 45.9558 193.007 45.9558H193.506C193.552 45.9558 193.59 45.9182 193.59 45.8718V45.3731C193.59 45.3267 193.552 45.2891 193.506 45.2891ZM192.093 40.6667V41.0748H189.864C189.431 41.0748 189.079 41.422 189.079 41.8503V43.9728H188.667V41.8503C188.667 41.1966 189.203 40.6667 189.864 40.6667H192.093ZM199.193 48.698C199.193 48.8836 199.043 49.034 198.857 49.034H197.713C197.527 49.034 197.377 48.8836 197.377 48.698V45.0435C197.377 44.8579 197.527 44.7075 197.713 44.7075L202.495 44.7069V43.9719L197.713 43.9728C197.527 43.9728 197.377 43.8224 197.377 43.6368V42.5129C197.377 42.3273 197.527 42.1769 197.713 42.1769H203.976C204.161 42.1769 204.312 42.3273 204.312 42.5129V46.5034L201.587 46.5019L203.998 48.7429C204.066 48.8061 204.07 48.9124 204.007 48.9804C203.975 49.0146 203.931 49.034 203.884 49.034H202.033C202.012 49.034 201.991 49.026 201.976 49.0115L199.275 46.5019H199.192L199.193 48.698ZM205.308 42.1769H206.452C206.638 42.1769 206.788 42.3273 206.788 42.5129V48.698C206.788 48.8836 206.638 49.034 206.452 49.034H205.308C205.123 49.034 204.972 48.8836 204.972 48.698V42.5129C204.972 42.3273 205.123 42.1769 205.308 42.1769ZM215.333 47.3197V49.4422C215.333 50.0959 214.797 50.6259 214.136 50.6259H211.907V50.2177H214.136C214.569 50.2177 214.921 49.8705 214.921 49.4422V47.3197H215.333ZM214.048 42.1769C214.233 42.1769 214.384 42.3273 214.384 42.5129V43.9728L209.264 43.9719V44.7069L214.048 44.7075C214.233 44.7075 214.384 44.8579 214.384 45.0435V48.6164C214.384 48.771 214.279 48.9013 214.137 48.9404L214.048 48.9524H207.785C207.599 48.9524 207.449 48.802 207.449 48.6164V47.4925C207.449 47.3069 207.599 47.1565 207.785 47.1565L212.567 47.1552V46.5019L207.785 46.5034C207.599 46.5034 207.449 46.353 207.449 46.1674V42.5129C207.449 42.3273 207.599 42.1769 207.785 42.1769H214.048Z" fill="#FEFEFE"/>
<path fill-rule="evenodd" clip-rule="evenodd" d="M67.4142 75L73.7071 81.2929C73.8946 81.4804 74 81.7348 74 82V90V91C74 91.5523 73.5523 92 73 92H59C58.4477 92 58 91.5523 58 91V90V82C58 81.7348 58.1054 81.4804 58.2929 81.2929L64.5858 75C65.3668 74.219 66.6332 74.219 67.4142 75ZM66.7071 77.1214C66.3166 76.7308 65.6834 76.7308 65.2928 77.1213L60 82.414V89C60 89.5523 60.4477 90 61 90H63C63.5523 90 64 89.5523 64 89V86.9334C64 85.8288 64.8954 84.9334 66 84.9334C67.1046 84.9334 68 85.8288 68 86.9334V89C68 89.5523 68.4477 90 69 90H71C71.5523 90 72 89.5523 72 89V82.415L66.7071 77.1214Z" fill="#F58220"/>
<path d="M48.538 100.86C49.158 100.86 49.678 100.92 50.098 101.04C50.518 101.153 50.8313 101.34 51.038 101.6C51.2513 101.86 51.358 102.21 51.358 102.65C51.358 102.923 51.3113 103.17 51.218 103.39C51.1247 103.61 50.988 103.79 50.808 103.93C50.6347 104.07 50.418 104.163 50.158 104.21V104.26C50.4247 104.307 50.6613 104.393 50.868 104.52C51.0813 104.64 51.248 104.817 51.368 105.05C51.4947 105.277 51.558 105.577 51.558 105.95C51.558 106.383 51.4547 106.753 51.248 107.06C51.0413 107.367 50.7447 107.6 50.358 107.76C49.978 107.92 49.5247 108 48.998 108H46.388V100.86H48.538ZM48.708 103.77C49.2147 103.77 49.5613 103.69 49.748 103.53C49.9413 103.37 50.038 103.133 50.038 102.82C50.038 102.5 49.9247 102.27 49.698 102.13C49.4713 101.99 49.108 101.92 48.608 101.92H47.668V103.77H48.708ZM47.668 104.8V106.93H48.828C49.348 106.93 49.708 106.83 49.908 106.63C50.1147 106.43 50.218 106.163 50.218 105.83C50.218 105.617 50.1747 105.433 50.088 105.28C50.0013 105.127 49.8513 105.01 49.638 104.93C49.4247 104.843 49.1347 104.8 48.768 104.8H47.668ZM55.0886 102.48C55.5753 102.48 55.992 102.58 56.3386 102.78C56.692 102.973 56.9653 103.253 57.1586 103.62C57.352 103.98 57.4486 104.42 57.4486 104.94V105.58H53.8686C53.882 106.073 54.0186 106.457 54.2786 106.73C54.5386 106.997 54.8986 107.13 55.3586 107.13C55.712 107.13 56.0253 107.097 56.2986 107.03C56.5786 106.957 56.8653 106.853 57.1586 106.72V107.73C56.892 107.857 56.6153 107.95 56.3286 108.01C56.042 108.07 55.6986 108.1 55.2986 108.1C54.772 108.1 54.302 108 53.8886 107.8C53.482 107.593 53.162 107.283 52.9286 106.87C52.702 106.457 52.5886 105.943 52.5886 105.33C52.5886 104.71 52.692 104.19 52.8986 103.77C53.112 103.343 53.4053 103.023 53.7786 102.81C54.152 102.59 54.5886 102.48 55.0886 102.48ZM55.0886 103.41C54.7553 103.41 54.482 103.52 54.2686 103.74C54.062 103.953 53.9386 104.273 53.8986 104.7H56.2286C56.2286 104.447 56.1853 104.223 56.0986 104.03C56.0186 103.837 55.8953 103.687 55.7286 103.58C55.562 103.467 55.3486 103.41 55.0886 103.41ZM61.5592 102.48C61.6392 102.48 61.7325 102.483 61.8392 102.49C61.9458 102.497 62.0358 102.51 62.1092 102.53L61.9992 103.7C61.9392 103.687 61.8592 103.677 61.7592 103.67C61.6658 103.657 61.5825 103.65 61.5092 103.65C61.3092 103.65 61.1158 103.683 60.9292 103.75C60.7492 103.81 60.5858 103.903 60.4392 104.03C60.2992 104.15 60.1858 104.307 60.0992 104.5C60.0192 104.693 59.9792 104.923 59.9792 105.19V108H58.7192V102.58H59.6892L59.8692 103.52H59.9292C60.0358 103.327 60.1692 103.153 60.3292 103C60.4892 102.84 60.6725 102.713 60.8792 102.62C61.0925 102.527 61.3192 102.48 61.5592 102.48ZM65.0784 102.48C65.7784 102.48 66.3084 102.633 66.6684 102.94C67.0351 103.24 67.2184 103.713 67.2184 104.36V108H66.3284L66.0784 107.25H66.0384C65.8851 107.443 65.7251 107.607 65.5584 107.74C65.3984 107.867 65.2117 107.957 64.9984 108.01C64.7917 108.07 64.5384 108.1 64.2384 108.1C63.9184 108.1 63.6284 108.04 63.3684 107.92C63.1151 107.8 62.9151 107.617 62.7684 107.37C62.6217 107.117 62.5484 106.8 62.5484 106.42C62.5484 105.86 62.7517 105.44 63.1584 105.16C63.5717 104.873 64.1951 104.717 65.0284 104.69L65.9684 104.66V104.39C65.9684 104.043 65.8851 103.797 65.7184 103.65C65.5517 103.503 65.3184 103.43 65.0184 103.43C64.7451 103.43 64.4817 103.47 64.2284 103.55C63.9751 103.63 63.7284 103.723 63.4884 103.83L63.0884 102.95C63.3551 102.81 63.6584 102.697 63.9984 102.61C64.3451 102.523 64.7051 102.48 65.0784 102.48ZM65.3084 105.46C64.7551 105.48 64.3717 105.577 64.1584 105.75C63.9451 105.917 63.8384 106.143 63.8384 106.43C63.8384 106.683 63.9151 106.867 64.0684 106.98C64.2217 107.093 64.4184 107.15 64.6584 107.15C65.0251 107.15 65.3351 107.047 65.5884 106.84C65.8417 106.627 65.9684 106.313 65.9684 105.9V105.44L65.3084 105.46ZM71.6973 102.48C72.304 102.48 72.7773 102.637 73.1173 102.95C73.464 103.263 73.6373 103.77 73.6373 104.47V108H72.3773V104.72C72.3773 104.313 72.2973 104.01 72.1373 103.81C71.9773 103.603 71.724 103.5 71.3773 103.5C70.8706 103.5 70.524 103.66 70.3373 103.98C70.1506 104.293 70.0573 104.75 70.0573 105.35V108H68.7973V102.58H69.7673L69.9473 103.29H70.0173C70.1373 103.103 70.284 102.95 70.4573 102.83C70.6306 102.71 70.824 102.623 71.0373 102.57C71.2506 102.51 71.4706 102.48 71.6973 102.48ZM77.0033 108.1C76.3767 108.1 75.8667 107.867 75.4733 107.4C75.0867 106.927 74.8933 106.227 74.8933 105.3C74.8933 104.373 75.09 103.673 75.4833 103.2C75.8767 102.72 76.3933 102.48 77.0333 102.48C77.3 102.48 77.5333 102.517 77.7333 102.59C77.94 102.657 78.1167 102.75 78.2633 102.87C78.41 102.99 78.5333 103.123 78.6333 103.27H78.6933C78.6733 103.177 78.6533 103.033 78.6333 102.84C78.6133 102.647 78.6033 102.467 78.6033 102.3V100.4H79.8633V108H78.8833L78.6533 107.29H78.6033C78.5033 107.437 78.38 107.573 78.2333 107.7C78.0867 107.82 77.9133 107.917 77.7133 107.99C77.5133 108.063 77.2767 108.1 77.0033 108.1ZM77.3833 107.08C77.85 107.08 78.18 106.947 78.3733 106.68C78.5667 106.413 78.6633 106.01 78.6633 105.47V105.31C78.6633 104.723 78.57 104.277 78.3833 103.97C78.2033 103.663 77.8633 103.51 77.3633 103.51C76.9833 103.51 76.69 103.67 76.4833 103.99C76.2767 104.303 76.1733 104.747 76.1733 105.32C76.1733 105.893 76.2767 106.33 76.4833 106.63C76.69 106.93 76.99 107.08 77.3833 107.08ZM83.6331 102.48C84.3331 102.48 84.8631 102.633 85.2231 102.94C85.5898 103.24 85.7731 103.713 85.7731 104.36V108H84.8831L84.6331 107.25H84.5931C84.4398 107.443 84.2798 107.607 84.1131 107.74C83.9531 107.867 83.7664 107.957 83.5531 108.01C83.3464 108.07 83.0931 108.1 82.7931 108.1C82.4731 108.1 82.1831 108.04 81.9231 107.92C81.6698 107.8 81.4698 107.617 81.3231 107.37C81.1764 107.117 81.1031 106.8 81.1031 106.42C81.1031 105.86 81.3064 105.44 81.7131 105.16C82.1264 104.873 82.7498 104.717 83.5831 104.69L84.5231 104.66V104.39C84.5231 104.043 84.4398 103.797 84.2731 103.65C84.1064 103.503 83.8731 103.43 83.5731 103.43C83.2998 103.43 83.0364 103.47 82.7831 103.55C82.5298 103.63 82.2831 103.723 82.0431 103.83L81.6431 102.95C81.9098 102.81 82.2131 102.697 82.5531 102.61C82.8998 102.523 83.2598 102.48 83.6331 102.48ZM83.8631 105.46C83.3098 105.48 82.9264 105.577 82.7131 105.75C82.4998 105.917 82.3931 106.143 82.3931 106.43C82.3931 106.683 82.4698 106.867 82.6231 106.98C82.7764 107.093 82.9731 107.15 83.2131 107.15C83.5798 107.15 83.8898 107.047 84.1431 106.84C84.3964 106.627 84.5231 106.313 84.5231 105.9V105.44L83.8631 105.46Z" fill="#F58220"/>
<path fill-rule="evenodd" clip-rule="evenodd" d="M128 77C128 75.3432 129.343 74 131 74H141C142.657 74 144 75.3432 144 77V78H145C146.657 78 148 79.3432 148 81V87C148 88.6569 146.657 90 145 90H135C133.343 90 132 88.6569 132 87V86H131C129.343 86 128 84.6569 128 83V77ZM134 87C134 87.5523 134.448 88 135 88H145C145.552 88 146 87.5523 146 87V81C146 80.4477 145.552 80 145 80H135C134.448 80 134 80.4477 134 81V87ZM142 78H135C133.343 78 132 79.3432 132 81V84H131C130.448 84 130 83.5523 130 83V77C130 76.4477 130.448 76 131 76H141C141.552 76 142 76.4477 142 77V78ZM140 83C139.448 83 139 83.4477 139 84C139 84.5523 139.448 85 140 85C140.552 85 141 84.5523 141 84C141 83.4477 140.552 83 140 83ZM137 84C137 82.3431 138.343 81 140 81C141.657 81 143 82.3431 143 84C143 85.6569 141.657 87 140 87C138.343 87 137 85.6569 137 84Z" fill="#333333"/>
<path d="M111.924 100.86C112.858 100.86 113.538 101.043 113.964 101.41C114.391 101.777 114.604 102.293 114.604 102.96C114.604 103.253 114.554 103.537 114.454 103.81C114.361 104.077 114.204 104.317 113.984 104.53C113.764 104.743 113.471 104.913 113.104 105.04C112.738 105.16 112.288 105.22 111.754 105.22H110.934V108H110.034V100.86H111.924ZM111.844 101.63H110.934V104.45H111.654C112.108 104.45 112.484 104.403 112.784 104.31C113.084 104.21 113.308 104.053 113.454 103.84C113.601 103.627 113.674 103.347 113.674 103C113.674 102.54 113.528 102.197 113.234 101.97C112.941 101.743 112.478 101.63 111.844 101.63ZM118.039 102.54C118.499 102.54 118.892 102.64 119.219 102.84C119.552 103.04 119.806 103.323 119.979 103.69C120.159 104.05 120.249 104.473 120.249 104.96V105.49H116.579C116.592 106.097 116.746 106.56 117.039 106.88C117.339 107.193 117.756 107.35 118.289 107.35C118.629 107.35 118.929 107.32 119.189 107.26C119.456 107.193 119.729 107.1 120.009 106.98V107.75C119.736 107.87 119.466 107.957 119.199 108.01C118.932 108.07 118.616 108.1 118.249 108.1C117.742 108.1 117.292 107.997 116.899 107.79C116.512 107.583 116.209 107.277 115.989 106.87C115.776 106.457 115.669 105.953 115.669 105.36C115.669 104.773 115.766 104.27 115.959 103.85C116.159 103.43 116.436 103.107 116.789 102.88C117.149 102.653 117.566 102.54 118.039 102.54ZM118.029 103.26C117.609 103.26 117.276 103.397 117.029 103.67C116.789 103.937 116.646 104.31 116.599 104.79H119.329C119.329 104.483 119.282 104.217 119.189 103.99C119.096 103.763 118.952 103.587 118.759 103.46C118.572 103.327 118.329 103.26 118.029 103.26ZM127.494 102.54C128.1 102.54 128.554 102.697 128.854 103.01C129.154 103.317 129.304 103.817 129.304 104.51V108H128.434V104.55C128.434 104.13 128.344 103.813 128.164 103.6C127.99 103.387 127.717 103.28 127.344 103.28C126.824 103.28 126.45 103.43 126.224 103.73C126.004 104.03 125.894 104.467 125.894 105.04V108H125.024V104.55C125.024 104.27 124.984 104.037 124.904 103.85C124.824 103.657 124.704 103.513 124.544 103.42C124.384 103.327 124.177 103.28 123.924 103.28C123.564 103.28 123.28 103.357 123.074 103.51C122.867 103.657 122.717 103.873 122.624 104.16C122.537 104.447 122.494 104.8 122.494 105.22V108H121.614V102.64H122.324L122.454 103.37H122.504C122.617 103.183 122.754 103.03 122.914 102.91C123.08 102.783 123.264 102.69 123.464 102.63C123.664 102.57 123.87 102.54 124.084 102.54C124.497 102.54 124.84 102.613 125.114 102.76C125.394 102.907 125.597 103.133 125.724 103.44H125.774C125.954 103.133 126.197 102.907 126.504 102.76C126.817 102.613 127.147 102.54 127.494 102.54ZM131.839 102.25C131.839 102.477 131.833 102.69 131.819 102.89C131.813 103.083 131.803 103.237 131.789 103.35H131.839C131.993 103.123 132.203 102.933 132.469 102.78C132.736 102.627 133.079 102.55 133.499 102.55C134.166 102.55 134.699 102.783 135.099 103.25C135.506 103.71 135.709 104.4 135.709 105.32C135.709 105.933 135.616 106.447 135.429 106.86C135.249 107.273 134.993 107.583 134.659 107.79C134.326 107.997 133.939 108.1 133.499 108.1C133.079 108.1 132.736 108.023 132.469 107.87C132.203 107.717 131.993 107.533 131.839 107.32H131.769L131.589 108H130.959V100.4H131.839V102.25ZM133.349 103.28C132.969 103.28 132.669 103.353 132.449 103.5C132.229 103.64 132.073 103.86 131.979 104.16C131.886 104.453 131.839 104.83 131.839 105.29V105.33C131.839 105.99 131.946 106.497 132.159 106.85C132.379 107.197 132.783 107.37 133.369 107.37C133.849 107.37 134.206 107.193 134.439 106.84C134.679 106.487 134.799 105.977 134.799 105.31C134.799 104.637 134.679 104.13 134.439 103.79C134.206 103.45 133.843 103.28 133.349 103.28ZM137.992 102.64V108H137.112V102.64H137.992ZM137.562 100.63C137.695 100.63 137.812 100.677 137.912 100.77C138.018 100.857 138.072 100.997 138.072 101.19C138.072 101.377 138.018 101.517 137.912 101.61C137.812 101.703 137.695 101.75 137.562 101.75C137.415 101.75 137.292 101.703 137.192 101.61C137.092 101.517 137.042 101.377 137.042 101.19C137.042 100.997 137.092 100.857 137.192 100.77C137.292 100.677 137.415 100.63 137.562 100.63ZM141.72 102.55C142.373 102.55 142.857 102.693 143.17 102.98C143.483 103.267 143.64 103.723 143.64 104.35V108H143L142.83 107.24H142.79C142.637 107.433 142.477 107.597 142.31 107.73C142.15 107.857 141.963 107.95 141.75 108.01C141.543 108.07 141.29 108.1 140.99 108.1C140.67 108.1 140.38 108.043 140.12 107.93C139.867 107.817 139.667 107.643 139.52 107.41C139.373 107.17 139.3 106.87 139.3 106.51C139.3 105.977 139.51 105.567 139.93 105.28C140.35 104.987 140.997 104.827 141.87 104.8L142.78 104.77V104.45C142.78 104.003 142.683 103.693 142.49 103.52C142.297 103.347 142.023 103.26 141.67 103.26C141.39 103.26 141.123 103.303 140.87 103.39C140.617 103.47 140.38 103.563 140.16 103.67L139.89 103.01C140.123 102.883 140.4 102.777 140.72 102.69C141.04 102.597 141.373 102.55 141.72 102.55ZM141.98 105.41C141.313 105.437 140.85 105.543 140.59 105.73C140.337 105.917 140.21 106.18 140.21 106.52C140.21 106.82 140.3 107.04 140.48 107.18C140.667 107.32 140.903 107.39 141.19 107.39C141.643 107.39 142.02 107.267 142.32 107.02C142.62 106.767 142.77 106.38 142.77 105.86V105.38L141.98 105.41ZM144.455 102.64H145.395L146.555 105.69C146.622 105.87 146.682 106.043 146.735 106.21C146.795 106.377 146.849 106.54 146.895 106.7C146.942 106.853 146.979 107.003 147.005 107.15H147.045C147.085 106.983 147.149 106.767 147.235 106.5C147.322 106.227 147.412 105.953 147.505 105.68L148.595 102.64H149.545L147.235 108.74C147.109 109.073 146.959 109.363 146.785 109.61C146.619 109.863 146.412 110.057 146.165 110.19C145.925 110.33 145.632 110.4 145.285 110.4C145.125 110.4 144.985 110.39 144.865 110.37C144.745 110.357 144.642 110.34 144.555 110.32V109.62C144.629 109.633 144.715 109.647 144.815 109.66C144.922 109.673 145.032 109.68 145.145 109.68C145.352 109.68 145.529 109.64 145.675 109.56C145.829 109.487 145.959 109.377 146.065 109.23C146.172 109.09 146.262 108.923 146.335 108.73L146.615 108.02L144.455 102.64ZM152.423 102.55C153.076 102.55 153.56 102.693 153.873 102.98C154.186 103.267 154.343 103.723 154.343 104.35V108H153.703L153.533 107.24H153.493C153.34 107.433 153.18 107.597 153.013 107.73C152.853 107.857 152.666 107.95 152.453 108.01C152.246 108.07 151.993 108.1 151.693 108.1C151.373 108.1 151.083 108.043 150.823 107.93C150.57 107.817 150.37 107.643 150.223 107.41C150.076 107.17 150.003 106.87 150.003 106.51C150.003 105.977 150.213 105.567 150.633 105.28C151.053 104.987 151.7 104.827 152.573 104.8L153.483 104.77V104.45C153.483 104.003 153.386 103.693 153.193 103.52C153 103.347 152.726 103.26 152.373 103.26C152.093 103.26 151.826 103.303 151.573 103.39C151.32 103.47 151.083 103.563 150.863 103.67L150.593 103.01C150.826 102.883 151.103 102.777 151.423 102.69C151.743 102.597 152.076 102.55 152.423 102.55ZM152.683 105.41C152.016 105.437 151.553 105.543 151.293 105.73C151.04 105.917 150.913 106.18 150.913 106.52C150.913 106.82 151.003 107.04 151.183 107.18C151.37 107.32 151.606 107.39 151.893 107.39C152.346 107.39 152.723 107.267 153.023 107.02C153.323 106.767 153.473 106.38 153.473 105.86V105.38L152.683 105.41ZM158.028 102.55C158.682 102.55 159.165 102.693 159.478 102.98C159.792 103.267 159.948 103.723 159.948 104.35V108H159.308L159.138 107.24H159.098C158.945 107.433 158.785 107.597 158.618 107.73C158.458 107.857 158.272 107.95 158.058 108.01C157.852 108.07 157.598 108.1 157.298 108.1C156.978 108.1 156.688 108.043 156.428 107.93C156.175 107.817 155.975 107.643 155.828 107.41C155.682 107.17 155.608 106.87 155.608 106.51C155.608 105.977 155.818 105.567 156.238 105.28C156.658 104.987 157.305 104.827 158.178 104.8L159.088 104.77V104.45C159.088 104.003 158.992 103.693 158.798 103.52C158.605 103.347 158.332 103.26 157.978 103.26C157.698 103.26 157.432 103.303 157.178 103.39C156.925 103.47 156.688 103.563 156.468 103.67L156.198 103.01C156.432 102.883 156.708 102.777 157.028 102.69C157.348 102.597 157.682 102.55 158.028 102.55ZM158.288 105.41C157.622 105.437 157.158 105.543 156.898 105.73C156.645 105.917 156.518 106.18 156.518 106.52C156.518 106.82 156.608 107.04 156.788 107.18C156.975 107.32 157.212 107.39 157.498 107.39C157.952 107.39 158.328 107.267 158.628 107.02C158.928 106.767 159.078 106.38 159.078 105.86V105.38L158.288 105.41ZM164.184 102.54C164.824 102.54 165.307 102.697 165.634 103.01C165.961 103.317 166.124 103.817 166.124 104.51V108H165.254V104.57C165.254 104.137 165.157 103.813 164.964 103.6C164.771 103.387 164.467 103.28 164.054 103.28C163.461 103.28 163.051 103.447 162.824 103.78C162.597 104.113 162.484 104.593 162.484 105.22V108H161.604V102.64H162.314L162.444 103.37H162.494C162.614 103.183 162.761 103.03 162.934 102.91C163.114 102.783 163.311 102.69 163.524 102.63C163.737 102.57 163.957 102.54 164.184 102.54Z" fill="#333333"/>
<path fill-rule="evenodd" clip-rule="evenodd" d="M270.5 83C272.985 83 275 85.0147 275 87.5C275 89.9853 272.985 92 270.5 92C268.015 92 266 89.9853 266 87.5C266 85.0147 268.015 83 270.5 83ZM271.828 73.1716C272.878 74.2209 273 75.13 273 79V81C273 81.5523 272.552 82 272 82C271.448 82 271 81.5523 271 81V79C271 75.7989 270.903 75.0741 270.414 74.5858C269.942 74.1132 269.248 74.0067 266.302 74.0003H263.698C260.752 74.0067 260.058 74.1132 259.586 74.5858C259.113 75.0584 259.007 75.7524 259 78.6979V85.3021C259.007 88.2476 259.113 88.9416 259.586 89.4142C260.074 89.9026 260.799 90 264 90H265C265.552 90 266 90.4477 266 91C266 91.5523 265.552 92 265 92H264C260.13 92 259.221 91.8778 258.172 90.8284C257.153 89.8099 257.008 88.9235 257 85.3339L257 79C257 75.13 257.122 74.2209 258.172 73.1716C259.19 72.1531 260.076 72.008 263.666 72.0003L266 72C269.87 72 270.779 72.1222 271.828 73.1716ZM270.5 85C269.119 85 268 86.1193 268 87.5C268 88.8807 269.119 90 270.5 90C271.881 90 273 88.8807 273 87.5C273 86.1193 271.881 85 270.5 85ZM270.5 85.5C270.776 85.5 271 85.7239 271 86L271 87.29L271.744 88.0206C271.919 88.1926 271.941 88.4618 271.808 88.6579L271.75 88.7277C271.557 88.9247 271.24 88.9277 271.043 88.7342L270.15 87.8568C270.054 87.7628 270 87.6342 270 87.5V86C270 85.7239 270.224 85.5 270.5 85.5ZM265 84C265.552 84 266 84.4477 266 85C266 85.5523 265.552 86 265 86H262C261.448 86 261 85.5523 261 85C261 84.4477 261.448 84 262 84H265ZM268 80C268.552 80 269 80.4477 269 81C269 81.5523 268.552 82 268 82H262C261.448 82 261 81.5523 261 81C261 80.4477 261.448 80 262 80H268ZM266 76C266.552 76 267 76.4477 267 77C267 77.5523 266.552 78 266 78H262C261.448 78 261 77.5523 261 77C261 76.4477 261.448 76 262 76H266Z" fill="#333333"/>
<path d="M250.649 100.86C251.242 100.86 251.729 100.937 252.109 101.09C252.496 101.237 252.782 101.46 252.969 101.76C253.156 102.06 253.249 102.437 253.249 102.89C253.249 103.27 253.179 103.587 253.039 103.84C252.899 104.093 252.719 104.297 252.499 104.45C252.286 104.597 252.059 104.713 251.819 104.8L253.779 108H252.729L250.999 105.05H249.579V108H248.679V100.86H250.649ZM250.599 101.64H249.579V104.29H250.649C251.036 104.29 251.352 104.24 251.599 104.14C251.846 104.033 252.026 103.88 252.139 103.68C252.259 103.48 252.319 103.23 252.319 102.93C252.319 102.617 252.256 102.367 252.129 102.18C252.009 101.993 251.822 101.857 251.569 101.77C251.316 101.683 250.992 101.64 250.599 101.64ZM255.66 102.64V108H254.78V102.64H255.66ZM255.23 100.63C255.363 100.63 255.48 100.677 255.58 100.77C255.686 100.857 255.74 100.997 255.74 101.19C255.74 101.377 255.686 101.517 255.58 101.61C255.48 101.703 255.363 101.75 255.23 101.75C255.083 101.75 254.96 101.703 254.86 101.61C254.76 101.517 254.71 101.377 254.71 101.19C254.71 100.997 254.76 100.857 254.86 100.77C254.96 100.677 255.083 100.63 255.23 100.63ZM260.818 104.97C260.778 104.83 260.738 104.693 260.698 104.56C260.658 104.42 260.621 104.29 260.588 104.17C260.561 104.043 260.534 103.927 260.508 103.82C260.481 103.713 260.461 103.623 260.448 103.55H260.408C260.394 103.623 260.374 103.713 260.348 103.82C260.328 103.927 260.301 104.043 260.268 104.17C260.241 104.297 260.208 104.43 260.168 104.57C260.134 104.703 260.094 104.84 260.048 104.98L259.088 107.99H258.088L256.618 102.63H257.528L258.268 105.49C258.321 105.683 258.371 105.88 258.418 106.08C258.464 106.273 258.504 106.46 258.538 106.64C258.578 106.813 258.604 106.963 258.618 107.09H258.658C258.678 107.01 258.701 106.91 258.728 106.79C258.754 106.67 258.781 106.543 258.808 106.41C258.841 106.277 258.874 106.143 258.908 106.01C258.948 105.877 258.984 105.757 259.018 105.65L259.968 102.63H260.928L261.848 105.65C261.894 105.803 261.941 105.967 261.988 106.14C262.041 106.313 262.088 106.483 262.128 106.65C262.168 106.81 262.194 106.953 262.208 107.08H262.248C262.261 106.967 262.284 106.827 262.318 106.66C262.358 106.487 262.401 106.3 262.448 106.1C262.501 105.893 262.554 105.69 262.608 105.49L263.358 102.63H264.258L262.768 107.99H261.738L260.818 104.97ZM267.249 102.55C267.902 102.55 268.386 102.693 268.699 102.98C269.012 103.267 269.169 103.723 269.169 104.35V108H268.529L268.359 107.24H268.319C268.166 107.433 268.006 107.597 267.839 107.73C267.679 107.857 267.492 107.95 267.279 108.01C267.072 108.07 266.819 108.1 266.519 108.1C266.199 108.1 265.909 108.043 265.649 107.93C265.396 107.817 265.196 107.643 265.049 107.41C264.902 107.17 264.829 106.87 264.829 106.51C264.829 105.977 265.039 105.567 265.459 105.28C265.879 104.987 266.526 104.827 267.399 104.8L268.309 104.77V104.45C268.309 104.003 268.212 103.693 268.019 103.52C267.826 103.347 267.552 103.26 267.199 103.26C266.919 103.26 266.652 103.303 266.399 103.39C266.146 103.47 265.909 103.563 265.689 103.67L265.419 103.01C265.652 102.883 265.929 102.777 266.249 102.69C266.569 102.597 266.902 102.55 267.249 102.55ZM267.509 105.41C266.842 105.437 266.379 105.543 266.119 105.73C265.866 105.917 265.739 106.18 265.739 106.52C265.739 106.82 265.829 107.04 266.009 107.18C266.196 107.32 266.432 107.39 266.719 107.39C267.172 107.39 267.549 107.267 267.849 107.02C268.149 106.767 268.299 106.38 268.299 105.86V105.38L267.509 105.41ZM269.985 102.64H270.925L272.085 105.69C272.151 105.87 272.211 106.043 272.265 106.21C272.325 106.377 272.378 106.54 272.425 106.7C272.471 106.853 272.508 107.003 272.535 107.15H272.575C272.615 106.983 272.678 106.767 272.765 106.5C272.851 106.227 272.941 105.953 273.035 105.68L274.125 102.64H275.075L272.765 108.74C272.638 109.073 272.488 109.363 272.315 109.61C272.148 109.863 271.941 110.057 271.695 110.19C271.455 110.33 271.161 110.4 270.815 110.4C270.655 110.4 270.515 110.39 270.395 110.37C270.275 110.357 270.171 110.34 270.085 110.32V109.62C270.158 109.633 270.245 109.647 270.345 109.66C270.451 109.673 270.561 109.68 270.675 109.68C270.881 109.68 271.058 109.64 271.205 109.56C271.358 109.487 271.488 109.377 271.595 109.23C271.701 109.09 271.791 108.923 271.865 108.73L272.145 108.02L269.985 102.64ZM277.952 102.55C278.606 102.55 279.089 102.693 279.402 102.98C279.716 103.267 279.872 103.723 279.872 104.35V108H279.232L279.062 107.24H279.022C278.869 107.433 278.709 107.597 278.542 107.73C278.382 107.857 278.196 107.95 277.982 108.01C277.776 108.07 277.522 108.1 277.222 108.1C276.902 108.1 276.612 108.043 276.352 107.93C276.099 107.817 275.899 107.643 275.752 107.41C275.606 107.17 275.532 106.87 275.532 106.51C275.532 105.977 275.742 105.567 276.162 105.28C276.582 104.987 277.229 104.827 278.102 104.8L279.012 104.77V104.45C279.012 104.003 278.916 103.693 278.722 103.52C278.529 103.347 278.256 103.26 277.902 103.26C277.622 103.26 277.356 103.303 277.102 103.39C276.849 103.47 276.612 103.563 276.392 103.67L276.122 103.01C276.356 102.883 276.632 102.777 276.952 102.69C277.272 102.597 277.606 102.55 277.952 102.55ZM278.212 105.41C277.546 105.437 277.082 105.543 276.822 105.73C276.569 105.917 276.442 106.18 276.442 106.52C276.442 106.82 276.532 107.04 276.712 107.18C276.899 107.32 277.136 107.39 277.422 107.39C277.876 107.39 278.252 107.267 278.552 107.02C278.852 106.767 279.002 106.38 279.002 105.86V105.38L278.212 105.41ZM283.318 107.38C283.451 107.38 283.588 107.37 283.728 107.35C283.868 107.323 283.981 107.297 284.068 107.27V107.94C283.974 107.987 283.841 108.023 283.668 108.05C283.494 108.083 283.328 108.1 283.168 108.1C282.888 108.1 282.628 108.053 282.388 107.96C282.154 107.86 281.964 107.69 281.818 107.45C281.671 107.21 281.598 106.873 281.598 106.44V103.32H280.838V102.9L281.608 102.55L281.958 101.41H282.478V102.64H284.028V103.32H282.478V106.42C282.478 106.747 282.554 106.99 282.708 107.15C282.868 107.303 283.071 107.38 283.318 107.38Z" fill="#333333"/>
<circle cx="275" cy="70" r="4" fill="#ED1D1D"/>
<path fill-rule="evenodd" clip-rule="evenodd" d="M332 79C332 76.7909 333.791 75 336 75H340C342.209 75 344 76.7909 344 79V87C344 87.5523 343.552 88 343 88H340.732C340.387 87.4022 339.74 87 339 87C337.895 87 337 87.8954 337 89C337 90.1046 337.895 91 339 91C339.74 91 340.387 90.5978 340.732 90H343C344.657 90 346 88.6569 346 87C347.105 87 348 86.1046 348 85V82C348 80.6938 347.165 79.5825 346 79.1707V79C346 75.6863 343.314 73 340 73H336C332.686 73 330 75.6863 330 79V79.1707C328.835 79.5825 328 80.6938 328 82V85C328 86.1046 328.895 87 330 87H331C331.552 87 332 86.5523 332 86V79Z" fill="#333333"/>
<path d="M321.073 100.86C321.667 100.86 322.163 100.917 322.563 101.03C322.97 101.143 323.273 101.33 323.473 101.59C323.68 101.85 323.783 102.197 323.783 102.63C323.783 102.91 323.73 103.16 323.623 103.38C323.523 103.593 323.37 103.773 323.163 103.92C322.963 104.06 322.717 104.157 322.423 104.21V104.26C322.723 104.307 322.993 104.393 323.233 104.52C323.48 104.647 323.673 104.827 323.813 105.06C323.953 105.293 324.023 105.597 324.023 105.97C324.023 106.403 323.923 106.773 323.723 107.08C323.523 107.38 323.237 107.61 322.863 107.77C322.497 107.923 322.057 108 321.543 108H319.033V100.86H321.073ZM321.253 103.9C321.867 103.9 322.287 103.803 322.513 103.61C322.74 103.41 322.853 103.117 322.853 102.73C322.853 102.337 322.713 102.057 322.433 101.89C322.16 101.717 321.72 101.63 321.113 101.63H319.933V103.9H321.253ZM319.933 104.65V107.24H321.373C322.007 107.24 322.447 107.117 322.693 106.87C322.94 106.623 323.063 106.3 323.063 105.9C323.063 105.647 323.007 105.427 322.893 105.24C322.787 105.053 322.603 104.91 322.343 104.81C322.09 104.703 321.743 104.65 321.303 104.65H319.933ZM327.447 102.55C328.101 102.55 328.584 102.693 328.897 102.98C329.211 103.267 329.367 103.723 329.367 104.35V108H328.727L328.557 107.24H328.517C328.364 107.433 328.204 107.597 328.037 107.73C327.877 107.857 327.691 107.95 327.477 108.01C327.271 108.07 327.017 108.1 326.717 108.1C326.397 108.1 326.107 108.043 325.847 107.93C325.594 107.817 325.394 107.643 325.247 107.41C325.101 107.17 325.027 106.87 325.027 106.51C325.027 105.977 325.237 105.567 325.657 105.28C326.077 104.987 326.724 104.827 327.597 104.8L328.507 104.77V104.45C328.507 104.003 328.411 103.693 328.217 103.52C328.024 103.347 327.751 103.26 327.397 103.26C327.117 103.26 326.851 103.303 326.597 103.39C326.344 103.47 326.107 103.563 325.887 103.67L325.617 103.01C325.851 102.883 326.127 102.777 326.447 102.69C326.767 102.597 327.101 102.55 327.447 102.55ZM327.707 105.41C327.041 105.437 326.577 105.543 326.317 105.73C326.064 105.917 325.937 106.18 325.937 106.52C325.937 106.82 326.027 107.04 326.207 107.18C326.394 107.32 326.631 107.39 326.917 107.39C327.371 107.39 327.747 107.267 328.047 107.02C328.347 106.767 328.497 106.38 328.497 105.86V105.38L327.707 105.41ZM333.603 102.54C334.243 102.54 334.726 102.697 335.053 103.01C335.38 103.317 335.543 103.817 335.543 104.51V108H334.673V104.57C334.673 104.137 334.576 103.813 334.383 103.6C334.19 103.387 333.886 103.28 333.473 103.28C332.88 103.28 332.47 103.447 332.243 103.78C332.016 104.113 331.903 104.593 331.903 105.22V108H331.023V102.64H331.733L331.863 103.37H331.913C332.033 103.183 332.18 103.03 332.353 102.91C332.533 102.783 332.73 102.69 332.943 102.63C333.156 102.57 333.376 102.54 333.603 102.54ZM338.994 107.38C339.128 107.38 339.264 107.37 339.404 107.35C339.544 107.323 339.658 107.297 339.744 107.27V107.94C339.651 107.987 339.518 108.023 339.344 108.05C339.171 108.083 339.004 108.1 338.844 108.1C338.564 108.1 338.304 108.053 338.064 107.96C337.831 107.86 337.641 107.69 337.494 107.45C337.348 107.21 337.274 106.873 337.274 106.44V103.32H336.514V102.9L337.284 102.55L337.634 101.41H338.154V102.64H339.704V103.32H338.154V106.42C338.154 106.747 338.231 106.99 338.384 107.15C338.544 107.303 338.748 107.38 338.994 107.38ZM345.298 102.64V108H344.578L344.448 107.29H344.408C344.294 107.477 344.148 107.63 343.968 107.75C343.788 107.87 343.591 107.957 343.378 108.01C343.164 108.07 342.941 108.1 342.708 108.1C342.281 108.1 341.921 108.033 341.628 107.9C341.341 107.76 341.124 107.547 340.978 107.26C340.831 106.973 340.758 106.603 340.758 106.15V102.64H341.648V106.09C341.648 106.517 341.744 106.837 341.938 107.05C342.131 107.263 342.431 107.37 342.838 107.37C343.238 107.37 343.551 107.297 343.778 107.15C344.011 106.997 344.174 106.777 344.268 106.49C344.368 106.197 344.418 105.843 344.418 105.43V102.64H345.298ZM349.029 102.55C349.683 102.55 350.166 102.693 350.479 102.98C350.793 103.267 350.949 103.723 350.949 104.35V108H350.309L350.139 107.24H350.099C349.946 107.433 349.786 107.597 349.619 107.73C349.459 107.857 349.273 107.95 349.059 108.01C348.853 108.07 348.599 108.1 348.299 108.1C347.979 108.1 347.689 108.043 347.429 107.93C347.176 107.817 346.976 107.643 346.829 107.41C346.683 107.17 346.609 106.87 346.609 106.51C346.609 105.977 346.819 105.567 347.239 105.28C347.659 104.987 348.306 104.827 349.179 104.8L350.089 104.77V104.45C350.089 104.003 349.993 103.693 349.799 103.52C349.606 103.347 349.333 103.26 348.979 103.26C348.699 103.26 348.433 103.303 348.179 103.39C347.926 103.47 347.689 103.563 347.469 103.67L347.199 103.01C347.433 102.883 347.709 102.777 348.029 102.69C348.349 102.597 348.683 102.55 349.029 102.55ZM349.289 105.41C348.623 105.437 348.159 105.543 347.899 105.73C347.646 105.917 347.519 106.18 347.519 106.52C347.519 106.82 347.609 107.04 347.789 107.18C347.976 107.32 348.213 107.39 348.499 107.39C348.953 107.39 349.329 107.267 349.629 107.02C349.929 106.767 350.079 106.38 350.079 105.86V105.38L349.289 105.41ZM355.185 102.54C355.825 102.54 356.308 102.697 356.635 103.01C356.962 103.317 357.125 103.817 357.125 104.51V108H356.255V104.57C356.255 104.137 356.158 103.813 355.965 103.6C355.772 103.387 355.468 103.28 355.055 103.28C354.462 103.28 354.052 103.447 353.825 103.78C353.598 104.113 353.485 104.593 353.485 105.22V108H352.605V102.64H353.315L353.445 103.37H353.495C353.615 103.183 353.762 103.03 353.935 102.91C354.115 102.783 354.312 102.69 354.525 102.63C354.738 102.57 354.958 102.54 355.185 102.54Z" fill="#333333"/>
<defs>
<filter id="filter0_dd_229_509" x="0" y="28" width="404" height="124" filterUnits="userSpaceOnUse" color-interpolation-filters="sRGB">
<feFlood flood-opacity="0" result="BackgroundImageFix"/>
<feColorMatrix in="SourceAlpha" type="matrix" values="0 0 0 0 0 0 0 0 0 0 0 0 0 0 0 0 0 0 127 0" result="hardAlpha"/>
<feMorphology radius="2" operator="dilate" in="SourceAlpha" result="effect1_dropShadow_229_509"/>
<feOffset dy="4"/>
<feGaussianBlur stdDeviation="10"/>
<feComposite in2="hardAlpha" operator="out"/>
<feColorMatrix type="matrix" values="0 0 0 0 0.0941176 0 0 0 0 0.152941 0 0 0 0 0.294118 0 0 0 0.05 0"/>
<feBlend mode="normal" in2="BackgroundImageFix" result="effect1_dropShadow_229_509"/>
<feColorMatrix in="SourceAlpha" type="matrix" values="0 0 0 0 0 0 0 0 0 0 0 0 0 0 0 0 0 0 127 0" result="hardAlpha"/>
<feMorphology radius="1" operator="dilate" in="SourceAlpha" result="effect2_dropShadow_229_509"/>
<feOffset dy="1"/>
<feGaussianBlur stdDeviation="2"/>
<feComposite in2="hardAlpha" operator="out"/>
<feColorMatrix type="matrix" values="0 0 0 0 0.0702496 0 0 0 0 0.124381 0 0 0 0 0.22946 0 0 0 0.12 0"/>
<feBlend mode="normal" in2="effect1_dropShadow_229_509" result="effect2_dropShadow_229_509"/>
<feBlend mode="normal" in="SourceGraphic" in2="effect2_dropShadow_229_509" result="shape"/>
</filter>
<filter id="filter1_dd_229_509" x="152" y="0" width="100" height="100" filterUnits="userSpaceOnUse" color-interpolation-filters="sRGB">
<feFlood flood-opacity="0" result="BackgroundImageFix"/>
<feColorMatrix in="SourceAlpha" type="matrix" values="0 0 0 0 0 0 0 0 0 0 0 0 0 0 0 0 0 0 127 0" result="hardAlpha"/>
<feMorphology radius="2" operator="dilate" in="SourceAlpha" result="effect1_dropShadow_229_509"/>
<feOffset dy="4"/>
<feGaussianBlur stdDeviation="10"/>
<feComposite in2="hardAlpha" operator="out"/>
<feColorMatrix type="matrix" values="0 0 0 0 0.0941176 0 0 0 0 0.152941 0 0 0 0 0.294118 0 0 0 0.05 0"/>
<feBlend mode="normal" in2="BackgroundImageFix" result="effect1_dropShadow_229_509"/>
<feColorMatrix in="SourceAlpha" type="matrix" values="0 0 0 0 0 0 0 0 0 0 0 0 0 0 0 0 0 0 127 0" result="hardAlpha"/>
<feMorphology radius="1" operator="dilate" in="SourceAlpha" result="effect2_dropShadow_229_509"/>
<feOffset dy="1"/>
<feGaussianBlur stdDeviation="2"/>
<feComposite in2="hardAlpha" operator="out"/>
<feColorMatrix type="matrix" values="0 0 0 0 0.0702496 0 0 0 0 0.124381 0 0 0 0 0.22946 0 0 0 0.12 0"/>
<feBlend mode="normal" in2="effect1_dropShadow_229_509" result="effect2_dropShadow_229_509"/>
<feBlend mode="normal" in="SourceGraphic" in2="effect2_dropShadow_229_509" result="shape"/>
</filter>
</defs>
</svg>
