<svg width="404" height="124" viewBox="0 0 404 124" fill="none" xmlns="http://www.w3.org/2000/svg">
<g filter="url(#filter0_dd_228_318)">
<path d="M22 30.8C22 26.3196 22 24.0793 22.872 22.368C23.6389 20.8627 24.8628 19.6389 26.3681 18.8719C28.0794 18 30.3273 18 34.8229 18C85.6633 18.0005 102.731 18.0084 144.185 18.1298C147.019 18.1381 148.436 18.1423 149.684 18.5694C150.793 18.9489 151.792 19.5584 152.637 20.3703C153.588 21.2843 154.246 22.5529 155.562 25.0899C166.369 45.9286 176.005 61 202 61C227.717 61 238.954 46.6478 248.583 25.7753C249.93 22.8557 250.604 21.3959 251.568 20.409C252.445 19.5114 253.428 18.8825 254.61 18.4622C255.91 18 257.44 18 260.499 18.0001C301.101 18.0004 318.881 18.0001 369.177 18C373.673 18 375.921 18 377.632 18.8719C379.137 19.6389 380.361 20.8628 381.128 22.3681C382 24.0794 382 26.3196 382 30.8V98H22V30.8Z" fill="white"/>
</g>
<defs>
<filter id="filter0_dd_228_318" x="0" y="0" width="404" height="124" filterUnits="userSpaceOnUse" color-interpolation-filters="sRGB">
<feFlood flood-opacity="0" result="BackgroundImageFix"/>
<feColorMatrix in="SourceAlpha" type="matrix" values="0 0 0 0 0 0 0 0 0 0 0 0 0 0 0 0 0 0 127 0" result="hardAlpha"/>
<feMorphology radius="2" operator="dilate" in="SourceAlpha" result="effect1_dropShadow_228_318"/>
<feOffset dy="4"/>
<feGaussianBlur stdDeviation="10"/>
<feComposite in2="hardAlpha" operator="out"/>
<feColorMatrix type="matrix" values="0 0 0 0 0.0941176 0 0 0 0 0.152941 0 0 0 0 0.294118 0 0 0 0.05 0"/>
<feBlend mode="normal" in2="BackgroundImageFix" result="effect1_dropShadow_228_318"/>
<feColorMatrix in="SourceAlpha" type="matrix" values="0 0 0 0 0 0 0 0 0 0 0 0 0 0 0 0 0 0 127 0" result="hardAlpha"/>
<feMorphology radius="1" operator="dilate" in="SourceAlpha" result="effect2_dropShadow_228_318"/>
<feOffset dy="1"/>
<feGaussianBlur stdDeviation="2"/>
<feComposite in2="hardAlpha" operator="out"/>
<feColorMatrix type="matrix" values="0 0 0 0 0.0702496 0 0 0 0 0.124381 0 0 0 0 0.22946 0 0 0 0.12 0"/>
<feBlend mode="normal" in2="effect1_dropShadow_228_318" result="effect2_dropShadow_228_318"/>
<feBlend mode="normal" in="SourceGraphic" in2="effect2_dropShadow_228_318" result="shape"/>
</filter>
</defs>
</svg>
