<svg width="77" height="24" viewBox="0 0 77 24" fill="none" xmlns="http://www.w3.org/2000/svg">
<path d="M24.048 10.978C22.766 10.532 21.714 10.308 20.893 10.308C18.683 10.308 17.348 11.33 17.348 13.053C17.348 14.482 18.31 15.469 20.251 15.738L20.936 15.833C21.906 15.972 22.331 16.197 22.331 16.603C22.331 17.097 21.828 17.392 20.78 17.392C20.018 17.392 19.167 17.168 18.225 16.72C18.1428 16.6811 18.0488 16.6754 17.9626 16.7041C17.8764 16.7328 17.8045 16.7937 17.762 16.874L17.21 17.931C17.1872 17.9753 17.1741 18.0239 17.1714 18.0737C17.1687 18.1234 17.1767 18.1732 17.1946 18.2196C17.2125 18.2661 17.2401 18.3082 17.2755 18.3433C17.3109 18.3784 17.3533 18.4055 17.4 18.423C18.935 18.988 20.056 19.271 20.763 19.271C23.198 19.271 24.619 18.154 24.619 16.421C24.619 15.001 23.605 14.188 21.785 13.911L21.04 13.798C20.277 13.686 19.67 13.426 19.67 12.941C19.67 12.481 20.104 12.179 20.962 12.179C21.533 12.184 22.321 12.372 23.325 12.743C23.409 12.7745 23.502 12.7728 23.5848 12.7383C23.6677 12.7037 23.7342 12.6389 23.771 12.557L24.253 11.452C24.2722 11.4077 24.2822 11.3599 24.2822 11.3115C24.2822 11.2632 24.2723 11.2154 24.2531 11.171C24.2339 11.1267 24.2057 11.0868 24.1705 11.0537C24.1352 11.0207 24.0935 10.9953 24.048 10.979V10.978ZM28.257 10.235H26.844C26.7976 10.235 26.7517 10.2441 26.7089 10.2619C26.6661 10.2796 26.6272 10.3056 26.5944 10.3384C26.5616 10.3712 26.5356 10.4101 26.5179 10.4529C26.5001 10.4957 26.491 10.5416 26.491 10.588V19.058C26.491 19.254 26.649 19.412 26.844 19.412H28.257C28.3506 19.412 28.4404 19.3748 28.5066 19.3086C28.5728 19.2424 28.61 19.1526 28.61 19.059V10.589C28.6101 10.5426 28.6011 10.4965 28.5834 10.4536C28.5657 10.4107 28.5397 10.3716 28.507 10.3387C28.4742 10.3059 28.4352 10.2798 28.3923 10.262C28.3494 10.2442 28.3034 10.235 28.257 10.235ZM27.547 6C26.749 6 26.137 6.626 26.137 7.42C26.137 8.215 26.749 8.824 27.547 8.824C28.344 8.824 28.963 8.214 28.963 7.42C28.963 6.626 28.343 6 27.546 6H27.547Z" fill="#E67A2B"/>
<path fill-rule="evenodd" clip-rule="evenodd" d="M42.244 11.935C41.688 11.935 41.24 12.09 40.901 12.402C40.641 12.642 40.446 12.956 40.319 13.344C40.3048 13.3869 40.3009 13.4325 40.3077 13.4771C40.3145 13.5218 40.3318 13.5642 40.3581 13.6008C40.3845 13.6375 40.4191 13.6674 40.4592 13.6881C40.4994 13.7089 40.5438 13.7198 40.589 13.72L43.824 13.728C43.8692 13.7283 43.9139 13.7179 43.9544 13.6975C43.9948 13.6772 44.0298 13.6475 44.0566 13.611C44.0833 13.5745 44.101 13.5322 44.1082 13.4875C44.1154 13.4428 44.1119 13.3971 44.098 13.354C43.993 12.9924 43.7947 12.6647 43.523 12.404C43.188 12.093 42.762 11.937 42.244 11.935ZM42.267 9.86101C43.557 9.86501 44.602 10.301 45.405 11.169C46.208 12.038 46.61 13.169 46.613 14.565C46.613 14.765 46.606 14.947 46.593 15.113C46.5872 15.1847 46.5545 15.2516 46.5014 15.3002C46.4484 15.3488 46.3789 15.3755 46.307 15.375L40.578 15.361C40.5328 15.361 40.4882 15.3717 40.4479 15.3922C40.4077 15.4127 40.3728 15.4425 40.3463 15.4791C40.3197 15.5157 40.3022 15.558 40.2952 15.6027C40.2882 15.6474 40.2919 15.693 40.306 15.736C40.449 16.172 40.681 16.511 41 16.753C41.407 17.063 41.909 17.217 42.508 17.218C42.897 17.219 43.291 17.145 43.693 16.995C44.011 16.876 44.303 16.72 44.572 16.526C44.6291 16.4839 44.6999 16.4643 44.7706 16.4712C44.8413 16.478 44.9069 16.5107 44.955 16.563L45.991 17.702C46.101 17.822 46.089 18.011 45.962 18.113C45.007 18.885 43.808 19.268 42.364 19.264C40.982 19.261 39.862 18.829 39.004 17.97C38.144 17.11 37.717 15.98 37.721 14.58C37.725 13.172 38.147 12.033 38.988 11.162C39.828 10.292 40.922 9.85801 42.267 9.86201M52.406 12.127C51.726 12.125 51.173 12.356 50.743 12.819C50.313 13.282 50.098 13.869 50.096 14.583C50.094 15.295 50.306 15.884 50.734 16.349C51.162 16.815 51.715 17.048 52.394 17.049C53.091 17.051 53.651 16.817 54.074 16.349C54.498 15.879 54.711 15.294 54.713 14.594C54.714 13.894 54.505 13.308 54.083 12.837C53.663 12.365 53.103 12.129 52.406 12.127ZM52.856 9.88801C54.096 9.89101 55.129 10.343 55.956 11.242C56.784 12.141 57.196 13.261 57.193 14.6C57.189 15.94 56.772 17.057 55.94 17.952C55.108 18.848 54.075 19.294 52.842 19.29C51.98 19.288 51.256 19.051 50.669 18.578C50.627 18.5446 50.5765 18.5237 50.5232 18.5177C50.4699 18.5116 50.4159 18.5207 50.3675 18.5439C50.3191 18.567 50.2782 18.6033 50.2495 18.6486C50.2208 18.6939 50.2053 18.7464 50.205 18.8L50.196 22.456C50.1957 22.4934 50.1881 22.5303 50.1735 22.5648C50.1589 22.5992 50.1377 22.6304 50.111 22.6566C50.0844 22.6828 50.0528 22.7035 50.0181 22.7174C49.9834 22.7314 49.9464 22.7384 49.909 22.738H48.076C48.0001 22.7372 47.9276 22.7065 47.8743 22.6526C47.8209 22.5987 47.791 22.5259 47.791 22.45L47.821 10.443C47.821 10.286 47.949 10.161 48.107 10.161H49.895C50.053 10.161 50.181 10.291 50.181 10.449C50.18 10.69 50.463 10.781 50.648 10.626C51.241 10.132 51.976 9.88601 52.856 9.88801ZM62.813 12.153C62.123 12.151 61.563 12.384 61.137 12.854C60.71 13.323 60.496 13.908 60.494 14.609C60.492 15.309 60.704 15.895 61.128 16.366C61.552 16.837 62.111 17.074 62.801 17.075C63.486 17.077 64.043 16.846 64.473 16.383C64.903 15.921 65.119 15.333 65.121 14.62C65.123 13.907 64.909 13.318 64.481 12.853C64.054 12.388 63.498 12.154 62.813 12.153ZM67.416 10.449L67.396 18.811C67.396 18.969 67.266 19.094 67.109 19.093H65.322C65.246 19.0925 65.1734 19.0619 65.12 19.0079C65.0666 18.9539 65.0367 18.881 65.037 18.805V18.798C65.037 18.558 64.756 18.423 64.57 18.577C63.973 19.07 63.233 19.316 62.352 19.314C61.117 19.311 60.087 18.86 59.26 17.96C58.432 17.061 58.02 15.942 58.023 14.603C58.026 13.263 58.444 12.145 59.277 11.25C60.109 10.355 61.141 9.90901 62.375 9.91201C63.253 9.91401 63.992 10.166 64.589 10.668C64.6308 10.7025 64.6815 10.7244 64.7353 10.7312C64.789 10.7379 64.8436 10.7293 64.8927 10.7062C64.9417 10.6832 64.9832 10.6467 65.0123 10.6009C65.0414 10.5552 65.0569 10.5022 65.057 10.448V10.443C65.057 10.285 65.187 10.16 65.344 10.161H67.131C67.289 10.161 67.417 10.291 67.416 10.449ZM74.371 10.445L74.389 12.035C74.3887 12.0723 74.3811 12.1093 74.3665 12.1436C74.3519 12.178 74.3307 12.2091 74.304 12.2352C74.2773 12.2614 74.2457 12.282 74.211 12.2958C74.1764 12.3097 74.1393 12.3165 74.102 12.316H71.427C71.3897 12.3155 71.3526 12.3223 71.3179 12.3362C71.2832 12.3501 71.2517 12.3706 71.225 12.3968C71.1983 12.4229 71.1771 12.454 71.1625 12.4884C71.1479 12.5228 71.1402 12.5597 71.14 12.597L71.132 15.576C71.132 16.105 71.252 16.49 71.495 16.733C71.738 16.977 72.063 17.099 72.47 17.1C72.885 17.101 73.36 16.958 73.894 16.672C73.9282 16.6538 73.9657 16.6428 74.0043 16.6396C74.0429 16.6364 74.0818 16.641 74.1186 16.6533C74.1553 16.6655 74.1892 16.6851 74.2181 16.7109C74.2471 16.7366 74.2705 16.7679 74.287 16.803L74.934 18.182C74.9634 18.2456 74.9685 18.3178 74.9482 18.3849C74.928 18.452 74.8837 18.5094 74.824 18.546C73.9991 19.0671 73.0427 19.3422 72.067 19.339C70.963 19.336 70.127 19.03 69.562 18.42C68.996 17.81 68.714 16.925 68.717 15.763L68.737 7.79801C68.737 7.64101 68.866 7.51301 69.024 7.51401L70.867 7.51801C71.025 7.51801 71.152 7.64701 71.152 7.80401L71.125 9.86701C71.125 10.025 71.252 10.16 71.41 10.161H74.086C74.244 10.161 74.372 10.288 74.371 10.445ZM36.51 10.445L36.528 12.11C36.5276 12.1473 36.5198 12.1841 36.5052 12.2183C36.4906 12.2526 36.4693 12.2836 36.4426 12.3096C36.416 12.3356 36.3844 12.3561 36.3498 12.3699C36.3152 12.3837 36.2782 12.3905 36.241 12.39H33.565C33.5276 12.3896 33.4906 12.3966 33.456 12.4106C33.4214 12.4246 33.3899 12.4453 33.3633 12.4715C33.3367 12.4977 33.3156 12.5289 33.3011 12.5633C33.2866 12.5977 33.2791 12.6347 33.279 12.672L33.271 15.576C33.271 16.105 33.391 16.49 33.634 16.733C33.877 16.977 34.202 17.099 34.609 17.1C35.023 17.101 35.499 16.958 36.033 16.672C36.0672 16.6538 36.1047 16.6428 36.1433 16.6396C36.1819 16.6364 36.2208 16.641 36.2576 16.6533C36.2943 16.6655 36.3282 16.6851 36.3571 16.7109C36.3861 16.7366 36.4095 16.7679 36.426 16.803L37.073 18.182C37.1024 18.2456 37.1075 18.3178 37.0872 18.3849C37.067 18.452 37.0227 18.5094 36.963 18.546C36.1381 19.0671 35.1817 19.3422 34.206 19.339C33.102 19.336 32.266 19.03 31.701 18.42C31.134 17.81 30.853 16.925 30.856 15.763L30.876 7.70501C30.876 7.54801 31.005 7.42001 31.163 7.42101L33.005 7.41901C33.163 7.41901 33.291 7.54801 33.291 7.70501L33.264 9.94201C33.264 10.099 33.391 10.235 33.549 10.235H36.224C36.382 10.235 36.51 10.362 36.51 10.52" fill="#E67A2B"/>
<path fill-rule="evenodd" clip-rule="evenodd" d="M11.571 3.03403C10.7096 2.17561 9.54351 1.69303 8.32744 1.69171C7.11137 1.6904 5.94421 2.17047 5.081 3.02703C4.65424 3.4502 4.31535 3.95356 4.0838 4.50816C3.85225 5.06276 3.73262 5.65766 3.73179 6.25866C3.73095 6.85965 3.84892 7.45489 4.07893 8.01013C4.30893 8.56537 4.64642 9.06967 5.072 9.49403C5.93345 10.3531 7.09999 10.836 8.31655 10.8373C9.53311 10.8387 10.7007 10.3582 11.564 9.50103C11.9906 9.07773 12.3294 8.57426 12.5607 8.01959C12.7921 7.46492 12.9116 6.86998 12.9122 6.26899C12.9129 5.66799 12.7947 5.07279 12.5645 4.51762C12.3344 3.96245 11.9967 3.45826 11.571 3.03403Z" fill="#F9C623"/>
<path fill-rule="evenodd" clip-rule="evenodd" d="M3.88599 12.43C3.91058 12.3433 3.96796 12.2695 4.04598 12.2244C4.124 12.1792 4.21653 12.1662 4.30399 12.188C6.61399 12.727 10.038 12.737 12.357 12.212C12.4444 12.1908 12.5367 12.2044 12.6143 12.25C12.6919 12.2955 12.7488 12.3694 12.773 12.456V12.458C12.773 12.463 12.776 12.468 12.777 12.471L13.597 15.723C13.643 15.903 13.497 16.095 13.269 16.147C12.592 16.303 11.909 16.426 11.223 16.517C10.993 16.546 10.823 16.715 10.843 16.901L11.045 18.719C11.066 18.904 10.875 19.077 10.616 19.101C9.08199 19.243 7.53699 19.239 6.00399 19.087C5.74599 19.061 5.55499 18.888 5.57699 18.703C5.64699 18.097 5.71899 17.492 5.78999 16.886C5.80999 16.701 5.64199 16.53 5.41299 16.499C4.72563 16.4052 4.04318 16.2784 3.36799 16.119C3.14099 16.065 2.99599 15.871 3.04299 15.692L3.88599 12.43Z" fill="#E67A2B"/>
</svg>
