<svg width="58" height="28" viewBox="0 0 58 28" fill="none" xmlns="http://www.w3.org/2000/svg">
<path d="M48.4436 11.8164C49.5486 11.7367 50.1462 12.0971 50.9952 12.686C51.0258 12.1304 51.0904 11.9595 51.6961 11.9975C52.0989 12.0227 52.6582 11.9538 53.0453 12.013C53.1136 12.0236 53.1779 12.052 53.2317 12.0954C53.4554 12.2735 53.3812 13.1314 53.3815 13.4228V15.3533L53.3826 17.8915C53.3835 18.366 53.3877 18.8476 53.3784 19.3213C53.3764 19.4274 53.3636 19.6913 53.2945 19.7613C53.1869 19.87 52.9589 19.916 52.8088 19.915C52.3348 19.9091 51.8533 19.9233 51.3804 19.9042C51.0133 19.8893 51.004 19.428 50.9952 19.1616C50.855 19.2651 50.74 19.3657 50.5916 19.4663C49.409 20.3949 47.4226 20.1492 46.2983 19.2338C45.4572 18.545 44.925 17.5499 44.8191 16.4682C44.684 15.2597 45.0386 14.0473 45.8035 13.1017C46.4572 12.3019 47.4379 11.9155 48.4436 11.8164ZM49.4543 17.9653C49.7098 17.8994 49.9035 17.8553 50.1272 17.7098C51.8692 16.5758 51.079 13.5813 48.8083 13.9065C48.4025 14.0182 48.1686 14.1043 47.8517 14.3963C47.2456 14.9542 47.1244 15.884 47.3385 16.656C47.4651 17.114 47.7673 17.5037 48.1793 17.7403C48.5316 17.9393 49.055 18.0876 49.4543 17.9653Z" fill="#F28221"/>
<path d="M26.5253 11.8173C27.0742 11.7531 27.8626 11.8699 28.3818 12.0503C29.2925 12.3609 30.041 13.0238 30.4591 13.8906C30.7666 14.5316 31.0122 15.8392 30.7799 16.5023C30.5956 16.6852 29.3432 16.6257 29.0178 16.6252L26.1799 16.6232C25.9916 16.6243 25.2897 16.6221 25.1705 16.6688C25.0209 16.8834 25.3779 17.4276 25.5321 17.5718C26.2532 18.2671 27.5451 18.2676 28.3985 17.8463C29.2294 17.4361 29.1532 17.3356 29.7697 18.0498C30.2897 18.6487 30.6598 18.8341 29.7782 19.3428C29.147 19.7144 28.4421 19.9429 27.7128 20.0122C26.3866 20.1432 25.0289 19.937 23.9856 19.0502C22.2998 17.6174 22.1434 14.9149 23.5474 13.234C24.3446 12.2795 25.3191 11.9249 26.5253 11.8173ZM26.9762 15.0787C27.2516 15.0778 28.2696 15.1147 28.4548 15.0232C28.6032 14.8356 28.4543 14.6536 28.3478 14.4758C28.0342 13.9512 27.3722 13.5676 26.7529 13.655C26.0351 13.7639 25.1655 14.1466 25.141 15.0008C25.1827 15.0646 25.2103 15.0706 25.2937 15.0719C25.8494 15.0805 26.4221 15.0779 26.9762 15.0787Z" fill="#F28221"/>
<path d="M8.95151 6.51012C11.0357 6.38745 12.8242 7.97804 12.945 10.0616C13.0658 12.1452 11.473 13.9316 9.38858 14.0504C7.30689 14.1691 5.52268 12.5794 5.40207 10.4985C5.28145 8.41771 6.87005 6.63262 8.95151 6.51012Z" fill="#05757E"/>
<path d="M17.1051 9.12928C17.4728 9.14032 17.8794 9.10686 18.2452 9.1363C18.4972 9.1566 18.5979 9.23321 18.7436 9.4232C18.8032 10.0923 18.7587 11.2641 18.7762 11.9981C19.6285 12.0114 20.4863 11.987 21.3355 12.0075C21.3699 12.0318 21.4813 12.1151 21.4976 12.1547C21.6575 12.5452 21.618 13.2913 21.5665 13.7149C21.546 13.8836 21.4778 13.9275 21.3674 14.0024C20.9866 14.019 19.0289 13.9711 18.837 14.0765C18.7986 14.1145 18.7576 14.1707 18.7589 14.2276C18.7865 15.1909 18.7195 16.1818 18.7802 17.1411C18.8378 18.0508 19.817 18.1091 20.4889 17.8882C20.6912 17.8216 21.1173 17.6305 21.2962 17.6519C21.4672 17.7327 21.4969 17.877 21.567 18.0533C21.7332 18.3272 21.9453 18.8729 22.0988 19.1967C22.056 19.246 22.0101 19.2926 21.9614 19.336C21.7826 19.4929 21.4603 19.6618 21.2373 19.7454C19.9475 20.2292 17.9537 20.2589 16.9791 19.1388C16.6708 18.7858 16.4595 18.3588 16.3659 17.8996C16.2181 17.1834 16.2467 16.4552 16.2473 15.7284L16.25 13.4947L16.2492 10.9659C16.249 10.4632 16.2347 9.88715 16.2691 9.39319C16.3431 9.31081 16.409 9.22845 16.5136 9.18938L16.5292 9.18372C16.6785 9.12815 16.938 9.1333 17.1051 9.12928Z" fill="#F28221"/>
<path d="M5.6737 14.4463C6.16233 14.4062 6.99388 14.6235 7.51851 14.6935C8.3462 14.8039 10.3709 14.7977 11.1855 14.6541C11.418 14.6132 12.5171 14.3691 12.6754 14.4984C12.9002 14.682 13.4148 16.8423 13.4599 17.2219C13.4692 17.3005 13.4885 17.4469 13.4495 17.5192C13.1948 17.9912 11.6275 17.7649 11.3211 18.1792C11.2123 18.3263 11.3033 18.6423 11.3287 18.8133C11.3143 19.1107 11.5022 19.8837 11.3787 19.9741C10.8461 20.3638 7.33477 20.2682 6.97861 20.0241C6.78731 19.7252 7.07515 18.7409 7.05071 18.3569C7.04746 18.3058 7.04553 18.1176 7.00135 18.0938C6.56958 17.8371 5.23824 17.899 4.9035 17.5682C4.64468 17.3124 5.41669 15.1259 5.51227 14.6494C5.5249 14.5865 5.63232 14.4842 5.6737 14.4463Z" fill="#F28221"/>
<path d="M42.8857 11.8409C43.2194 11.8189 44.244 11.8282 44.2465 12.3504C44.2491 12.8441 44.1786 13.4021 44.1551 13.9003C44.129 14.4428 43.5439 14.2327 43.1828 14.2033C43.0135 14.1892 42.8435 14.1885 42.6742 14.2014C41.8297 14.2679 41.3055 14.7697 41.1081 15.6018C41.0444 15.8713 41.0707 16.7252 41.0718 17.0427L41.0781 19.0093C41.0769 19.7412 41.086 19.9351 40.2522 19.9368C39.9288 19.9375 39.5978 19.9284 39.2732 19.9183C39.0682 19.9174 38.9019 19.8775 38.7082 19.8202C38.6048 19.2886 38.6306 12.2984 38.7006 12.1599C38.7266 12.1078 38.8192 12.0752 38.8728 12.0593C39.205 11.9606 40.6337 11.9296 40.9186 12.0856C41.1027 12.3053 41.0463 12.6295 41.0276 12.9025C41.5918 12.2197 41.9888 11.9937 42.8857 11.8409Z" fill="#F28221"/>
<path d="M36.5524 11.8161C38.0472 11.8867 37.5932 12.5269 37.5697 13.6809C37.5626 14.0206 37.5023 14.1279 37.2474 14.3307C36.9322 14.2277 36.7878 14.2215 36.4629 14.1949C35.5423 14.1194 34.8028 14.534 34.5576 15.4588C34.4097 15.9929 34.5086 16.4377 34.4664 16.9756C34.4352 17.3696 34.5944 19.6155 34.3335 19.807C34.0832 19.9908 32.8535 19.9283 32.4689 19.9021C32.3981 19.8928 32.3285 19.8752 32.2619 19.8497C32.1965 19.8247 32.1277 19.7757 32.1013 19.7092C32.0175 19.498 32.026 13.301 32.0606 12.6245C32.0691 12.4618 32.0866 12.2865 32.1483 12.1348C32.4046 11.9353 33.1937 12.0073 33.5273 11.9991C34.4355 11.9767 34.4797 12.023 34.4638 12.862C35.1186 12.1423 35.5847 11.915 36.5524 11.8161Z" fill="#F28221"/>
</svg>
