<svg width="328" height="44" viewBox="0 0 328 44" fill="none" xmlns="http://www.w3.org/2000/svg">
<path d="M12 0.5H316C322.351 0.5 327.5 5.64873 327.5 12V32C327.5 38.3513 322.351 43.5 316 43.5H12C5.64873 43.5 0.5 38.3513 0.5 32V12C0.5 5.64873 5.64873 0.5 12 0.5Z" stroke="#4C4C4C"/>
<path d="M16.032 24.944C16.032 25.6267 15.8667 26.208 15.536 26.688C15.2053 27.1573 14.7307 27.52 14.112 27.776C13.504 28.032 12.784 28.16 11.952 28.16C11.5253 28.16 11.1147 28.1387 10.72 28.096C10.336 28.0533 9.984 27.9947 9.664 27.92C9.344 27.8347 9.06133 27.7333 8.816 27.616V26.24C9.2 26.4107 9.67467 26.5653 10.24 26.704C10.816 26.8427 11.408 26.912 12.016 26.912C12.5813 26.912 13.056 26.8373 13.44 26.688C13.824 26.5387 14.112 26.3253 14.304 26.048C14.496 25.7707 14.592 25.4453 14.592 25.072C14.592 24.6987 14.512 24.384 14.352 24.128C14.192 23.872 13.9147 23.6373 13.52 23.424C13.136 23.2 12.5973 22.9653 11.904 22.72C11.4133 22.5387 10.9813 22.3467 10.608 22.144C10.2453 21.9307 9.94133 21.6907 9.696 21.424C9.45067 21.1573 9.264 20.8533 9.136 20.512C9.01867 20.1707 8.96 19.776 8.96 19.328C8.96 18.72 9.11467 18.2027 9.424 17.776C9.73333 17.3387 10.16 17.0027 10.704 16.768C11.2587 16.5333 11.8933 16.416 12.608 16.416C13.2373 16.416 13.8133 16.4747 14.336 16.592C14.8587 16.7093 15.3333 16.864 15.76 17.056L15.312 18.288C14.9173 18.1173 14.4853 17.9733 14.016 17.856C13.5573 17.7387 13.0773 17.68 12.576 17.68C12.096 17.68 11.696 17.7493 11.376 17.888C11.056 18.0267 10.816 18.224 10.656 18.48C10.496 18.7253 10.416 19.0133 10.416 19.344C10.416 19.728 10.496 20.048 10.656 20.304C10.816 20.56 11.0773 20.7893 11.44 20.992C11.8027 21.1947 12.2933 21.4133 12.912 21.648C13.584 21.8933 14.1493 22.16 14.608 22.448C15.0773 22.7253 15.4293 23.0613 15.664 23.456C15.9093 23.8507 16.032 24.3467 16.032 24.944ZM21.4533 19.264C22.1893 19.264 22.8186 19.424 23.3413 19.744C23.8746 20.064 24.2799 20.5173 24.5573 21.104C24.8453 21.68 24.9893 22.3573 24.9893 23.136V23.984H19.1173C19.1386 24.9547 19.3839 25.696 19.8533 26.208C20.3333 26.7093 20.9999 26.96 21.8533 26.96C22.3973 26.96 22.8773 26.912 23.2933 26.816C23.7199 26.7093 24.1573 26.56 24.6053 26.368V27.6C24.1679 27.792 23.7359 27.9307 23.3093 28.016C22.8826 28.112 22.3759 28.16 21.7893 28.16C20.9786 28.16 20.2586 27.9947 19.6293 27.664C19.0106 27.3333 18.5253 26.8427 18.1733 26.192C17.8319 25.5307 17.6613 24.7253 17.6613 23.776C17.6613 22.8373 17.8159 22.032 18.1253 21.36C18.4453 20.688 18.8879 20.1707 19.4533 19.808C20.0293 19.4453 20.6959 19.264 21.4533 19.264ZM21.4373 20.416C20.7653 20.416 20.2319 20.6347 19.8373 21.072C19.4533 21.4987 19.2239 22.096 19.1493 22.864H23.5173C23.5173 22.3733 23.4426 21.9467 23.2933 21.584C23.1439 21.2213 22.9146 20.9387 22.6053 20.736C22.3066 20.5227 21.9173 20.416 21.4373 20.416ZM30.4205 19.28C31.4658 19.28 32.2392 19.5093 32.7405 19.968C33.2418 20.4267 33.4925 21.1573 33.4925 22.16V28H32.4685L32.1965 26.784H32.1325C31.8872 27.0933 31.6312 27.3547 31.3645 27.568C31.1085 27.7707 30.8098 27.92 30.4685 28.016C30.1378 28.112 29.7325 28.16 29.2525 28.16C28.7405 28.16 28.2765 28.0693 27.8605 27.888C27.4552 27.7067 27.1352 27.4293 26.9005 27.056C26.6658 26.672 26.5485 26.192 26.5485 25.616C26.5485 24.7627 26.8845 24.1067 27.5565 23.648C28.2285 23.1787 29.2632 22.9227 30.6605 22.88L32.1165 22.832V22.32C32.1165 21.6053 31.9618 21.1093 31.6525 20.832C31.3432 20.5547 30.9058 20.416 30.3405 20.416C29.8925 20.416 29.4658 20.4853 29.0605 20.624C28.6552 20.752 28.2765 20.9013 27.9245 21.072L27.4925 20.016C27.8658 19.8133 28.3085 19.6427 28.8205 19.504C29.3325 19.3547 29.8658 19.28 30.4205 19.28ZM30.8365 23.856C29.7698 23.8987 29.0285 24.0693 28.6125 24.368C28.2072 24.6667 28.0045 25.088 28.0045 25.632C28.0045 26.112 28.1485 26.464 28.4365 26.688C28.7352 26.912 29.1138 27.024 29.5725 27.024C30.2978 27.024 30.9005 26.8267 31.3805 26.432C31.8605 26.0267 32.1005 25.408 32.1005 24.576V23.808L30.8365 23.856ZM40.1413 19.264C40.3013 19.264 40.4719 19.2747 40.6533 19.296C40.8453 19.3067 41.0106 19.328 41.1493 19.36L40.9733 20.656C40.8346 20.624 40.6799 20.5973 40.5093 20.576C40.3493 20.5547 40.1946 20.544 40.0453 20.544C39.7146 20.544 39.3999 20.6133 39.1013 20.752C38.8026 20.8907 38.5359 21.088 38.3013 21.344C38.0666 21.5893 37.8799 21.888 37.7413 22.24C37.6133 22.592 37.5493 22.9867 37.5493 23.424V28H36.1413V19.424H37.2933L37.4533 20.992H37.5173C37.6986 20.672 37.9173 20.384 38.1733 20.128C38.4293 19.8613 38.7226 19.6533 39.0533 19.504C39.3839 19.344 39.7466 19.264 40.1413 19.264ZM45.8781 28.16C45.1208 28.16 44.4435 28.0053 43.8461 27.696C43.2595 27.3867 42.7955 26.9067 42.4541 26.256C42.1235 25.6053 41.9581 24.7733 41.9581 23.76C41.9581 22.704 42.1341 21.8453 42.4861 21.184C42.8381 20.5227 43.3128 20.0373 43.9101 19.728C44.5181 19.4187 45.2061 19.264 45.9741 19.264C46.4115 19.264 46.8328 19.312 47.2381 19.408C47.6435 19.4933 47.9741 19.6 48.2301 19.728L47.7981 20.896C47.5421 20.8 47.2435 20.7093 46.9021 20.624C46.5608 20.5387 46.2408 20.496 45.9421 20.496C45.3661 20.496 44.8915 20.6187 44.5181 20.864C44.1448 21.1093 43.8675 21.472 43.6861 21.952C43.5048 22.432 43.4141 23.0293 43.4141 23.744C43.4141 24.4267 43.5048 25.008 43.6861 25.488C43.8675 25.968 44.1395 26.3307 44.5021 26.576C44.8648 26.8213 45.3181 26.944 45.8621 26.944C46.3315 26.944 46.7421 26.896 47.0941 26.8C47.4568 26.704 47.7875 26.5867 48.0861 26.448V27.696C47.7981 27.8453 47.4781 27.9573 47.1261 28.032C46.7848 28.1173 46.3688 28.16 45.8781 28.16ZM51.5336 19.408C51.5336 19.6107 51.523 19.8187 51.5016 20.032C51.491 20.2453 51.475 20.4373 51.4536 20.608H51.5496C51.731 20.3093 51.9603 20.064 52.2376 19.872C52.515 19.68 52.8243 19.536 53.1656 19.44C53.507 19.3333 53.859 19.28 54.2216 19.28C54.915 19.28 55.491 19.392 55.9496 19.616C56.419 19.8293 56.771 20.1653 57.0056 20.624C57.2403 21.0827 57.3576 21.68 57.3576 22.416V28H55.9656V22.512C55.9656 21.8187 55.811 21.3013 55.5016 20.96C55.1923 20.6187 54.707 20.448 54.0456 20.448C53.4056 20.448 52.9043 20.5707 52.5416 20.816C52.179 21.0507 51.9176 21.4027 51.7576 21.872C51.6083 22.3307 51.5336 22.896 51.5336 23.568V28H50.1256V15.84H51.5336V19.408ZM65.5805 19.408C65.5805 19.6107 65.5698 19.8187 65.5485 20.032C65.5378 20.2453 65.5218 20.4373 65.5005 20.608H65.5965C65.7778 20.3093 66.0072 20.064 66.2845 19.872C66.5618 19.68 66.8712 19.536 67.2125 19.44C67.5538 19.3333 67.9058 19.28 68.2685 19.28C68.9618 19.28 69.5378 19.392 69.9965 19.616C70.4658 19.8293 70.8178 20.1653 71.0525 20.624C71.2872 21.0827 71.4045 21.68 71.4045 22.416V28H70.0125V22.512C70.0125 21.8187 69.8578 21.3013 69.5485 20.96C69.2392 20.6187 68.7538 20.448 68.0925 20.448C67.4525 20.448 66.9512 20.5707 66.5885 20.816C66.2258 21.0507 65.9645 21.4027 65.8045 21.872C65.6552 22.3307 65.5805 22.896 65.5805 23.568V28H64.1725V15.84H65.5805V19.408ZM77.3751 19.264C78.1111 19.264 78.7405 19.424 79.2631 19.744C79.7965 20.064 80.2018 20.5173 80.4791 21.104C80.7671 21.68 80.9111 22.3573 80.9111 23.136V23.984H75.0391C75.0605 24.9547 75.3058 25.696 75.7751 26.208C76.2551 26.7093 76.9218 26.96 77.7751 26.96C78.3191 26.96 78.7991 26.912 79.2151 26.816C79.6418 26.7093 80.0791 26.56 80.5271 26.368V27.6C80.0898 27.792 79.6578 27.9307 79.2311 28.016C78.8045 28.112 78.2978 28.16 77.7111 28.16C76.9005 28.16 76.1805 27.9947 75.5511 27.664C74.9325 27.3333 74.4471 26.8427 74.0951 26.192C73.7538 25.5307 73.5831 24.7253 73.5831 23.776C73.5831 22.8373 73.7378 22.032 74.0471 21.36C74.3671 20.688 74.8098 20.1707 75.3751 19.808C75.9511 19.4453 76.6178 19.264 77.3751 19.264ZM77.3591 20.416C76.6871 20.416 76.1538 20.6347 75.7591 21.072C75.3751 21.4987 75.1458 22.096 75.0711 22.864H79.4391C79.4391 22.3733 79.3645 21.9467 79.2151 21.584C79.0658 21.2213 78.8365 20.9387 78.5271 20.736C78.2285 20.5227 77.8391 20.416 77.3591 20.416ZM87.0944 19.264C87.2544 19.264 87.425 19.2747 87.6064 19.296C87.7984 19.3067 87.9637 19.328 88.1024 19.36L87.9264 20.656C87.7877 20.624 87.633 20.5973 87.4624 20.576C87.3024 20.5547 87.1477 20.544 86.9984 20.544C86.6677 20.544 86.353 20.6133 86.0544 20.752C85.7557 20.8907 85.489 21.088 85.2544 21.344C85.0197 21.5893 84.833 21.888 84.6944 22.24C84.5664 22.592 84.5024 22.9867 84.5024 23.424V28H83.0944V19.424H84.2464L84.4064 20.992H84.4704C84.6517 20.672 84.8704 20.384 85.1264 20.128C85.3824 19.8613 85.6757 19.6533 86.0064 19.504C86.337 19.344 86.6997 19.264 87.0944 19.264ZM92.7033 19.264C93.4393 19.264 94.0686 19.424 94.5913 19.744C95.1246 20.064 95.5299 20.5173 95.8073 21.104C96.0953 21.68 96.2393 22.3573 96.2393 23.136V23.984H90.3673C90.3886 24.9547 90.6339 25.696 91.1033 26.208C91.5833 26.7093 92.2499 26.96 93.1033 26.96C93.6473 26.96 94.1273 26.912 94.5433 26.816C94.9699 26.7093 95.4073 26.56 95.8553 26.368V27.6C95.4179 27.792 94.9859 27.9307 94.5593 28.016C94.1326 28.112 93.6259 28.16 93.0393 28.16C92.2286 28.16 91.5086 27.9947 90.8793 27.664C90.2606 27.3333 89.7753 26.8427 89.4233 26.192C89.0819 25.5307 88.9113 24.7253 88.9113 23.776C88.9113 22.8373 89.0659 22.032 89.3753 21.36C89.6953 20.688 90.1379 20.1707 90.7033 19.808C91.2793 19.4453 91.9459 19.264 92.7033 19.264ZM92.6873 20.416C92.0153 20.416 91.4819 20.6347 91.0873 21.072C90.7033 21.4987 90.4739 22.096 90.3993 22.864H94.7673C94.7673 22.3733 94.6926 21.9467 94.5433 21.584C94.3939 21.2213 94.1646 20.9387 93.8553 20.736C93.5566 20.5227 93.1673 20.416 92.6873 20.416Z" fill="#333333"/>
<path fill-rule="evenodd" clip-rule="evenodd" d="M307 13C311.418 13 315 16.5817 315 21C315 23.0557 314.225 24.9302 312.95 26.3472L315.692 28.9713C316.091 29.3533 316.104 29.9863 315.722 30.3852C315.34 30.7841 314.707 30.7978 314.308 30.4159L311.432 27.661C310.164 28.5069 308.639 29 307 29C302.582 29 299 25.4183 299 21C299 16.5817 302.582 13 307 13ZM307 15C303.686 15 301 17.6863 301 21C301 24.3137 303.686 27 307 27C310.314 27 313 24.3137 313 21C313 17.6863 310.314 15 307 15Z" fill="#333333"/>
</svg>
